<svg width="180" height="186" viewBox="0 0 180 186" fill="none" xmlns="http://www.w3.org/2000/svg">
<path opacity="0.25" d="M81.3316 54.7693C81.2393 55.3547 81.1227 55.9367 80.9673 56.511C80.392 58.5967 79.3178 60.5826 77.7346 62.1205C76.9517 62.884 76.0242 63.5419 75.0521 64.0163L72.2035 65.4976L66.5054 68.4621L55.0554 74.2842C51.2156 76.18 47.3884 78.0995 43.5205 79.9407L43.4251 79.9862L43.3852 79.8944L43.3684 79.8571L43.3682 79.8566C43.2225 79.9276 43.0761 79.997 42.9282 80.0608L42.7637 80.1298C42.6346 80.1834 42.5046 80.2334 42.3742 80.2817L42.2122 80.3399C42.1912 80.3474 42.1697 80.3537 42.1486 80.3608C42.0082 80.4085 41.8675 80.4546 41.7252 80.496L41.6476 80.5197C41.4681 80.5706 41.2864 80.616 41.1042 80.6568L40.9096 80.6979C40.9093 80.6979 40.9089 80.6979 40.9089 80.6979C40.8772 80.7042 40.8455 80.7094 40.8137 80.7158C40.7214 80.7339 40.6291 80.7521 40.536 80.7678L40.3192 80.8023C40.186 80.8223 40.0525 80.8387 39.9184 80.8532L39.7452 80.8732C39.6898 80.8788 39.6339 80.8803 39.5783 80.8846C39.5354 80.8879 39.4923 80.8904 39.4492 80.8933C39.3696 80.8984 39.2903 80.9058 39.2104 80.9096L38.9608 80.9159C38.8536 80.9187 38.7465 80.9206 38.6387 80.9196C38.5469 80.9196 38.4548 80.9178 38.3624 80.915C38.3122 80.9137 38.2621 80.9107 38.2119 80.9085C38.166 80.9066 38.1205 80.9047 38.0746 80.9023C38.0679 80.9019 38.0612 80.9018 38.0543 80.9014C37.9229 80.8941 37.7912 80.885 37.6594 80.8741C37.5308 80.8624 37.4017 80.8504 37.2727 80.8351C37.1645 80.8225 37.0559 80.8061 36.9477 80.7906L36.9139 80.7853L32.1027 82.8845C31.904 82.9798 31.7033 83.0671 31.5005 83.1471L31.4552 83.1652C27.8785 84.5509 23.6485 83.5762 20.0061 80.8628C19.4219 82.1161 19.8259 83.4309 20.9461 84.6299C21.268 84.8439 21.5184 85.0717 21.6732 85.3112C22.3696 85.8865 23.2232 86.4254 24.22 86.9C24.4284 86.9992 24.6411 87.0977 24.8554 87.1953C25.0619 87.1865 25.2706 87.1809 25.482 87.1809V87.1803H25.5003C25.5853 87.1803 25.6693 87.1813 25.7538 87.1822V87.1865C27.9604 87.2245 29.8991 87.7452 31.1013 88.5314C31.6707 88.4287 32.2228 88.238 32.7453 87.9263C34.161 87.0835 35.1953 85.4503 36.8332 85.2703C37.8759 85.1558 38.873 85.683 39.9111 85.835C41.343 86.0443 42.7726 85.5322 44.1239 85.0133C56.1862 80.396 67.8438 74.7254 78.9242 68.0883C80.7828 66.9756 82.7326 65.7142 83.5964 63.7281C84.5 61.6485 83.9962 59.2067 83.0213 57.16C82.6009 56.2795 82.0515 55.4093 81.3316 54.7693ZM33.8317 83.1673L33.8308 83.1654L33.8763 83.1482L33.8317 83.1673Z" fill="#BABABA"/>
<path opacity="0.25" d="M32.275 93.6444C32.2215 93.7883 32.1526 93.9296 32.0597 94.0664C32.0498 94.0809 32.0364 94.0947 32.0261 94.1091C31.9362 94.235 31.8279 94.3566 31.7066 94.4749C31.6781 94.5029 31.6508 94.5307 31.6204 94.5583C31.4822 94.6838 31.3292 94.8047 31.1584 94.92C31.1302 94.9388 31.0989 94.9565 31.0698 94.9752C30.9114 95.077 30.7405 95.1741 30.5583 95.2666C30.5195 95.2862 30.4829 95.3063 30.4434 95.3255C30.2344 95.4263 30.0117 95.5205 29.7763 95.6076C29.7315 95.6244 29.6845 95.6395 29.6388 95.6555C29.4185 95.7333 29.1889 95.8051 28.949 95.8702C28.9141 95.8797 28.8811 95.8904 28.8456 95.8993C28.5778 95.9691 28.2976 96.0294 28.0092 96.0821C27.9853 96.0866 27.9639 96.093 27.94 96.0972V96.0939C27.1798 96.2286 26.3589 96.3056 25.4974 96.3054C22.9317 96.3047 20.6985 95.6477 19.5141 94.6758C18.9433 95.0608 18.6139 95.4919 18.6139 95.9491C18.6139 97.5595 22.5878 98.8657 27.4891 98.8657C32.3908 98.8657 36.3643 97.5595 36.3643 95.9491C36.3643 94.9247 34.753 94.0254 32.3209 93.5055C32.3173 93.5181 32.3123 93.5305 32.3086 93.5433C32.2979 93.5773 32.2875 93.6109 32.275 93.6444Z" fill="#BABABA"/>
<path opacity="0.25" d="M13.772 94.2666V94.2749C13.772 94.428 13.741 94.5772 13.6968 94.7246C13.6864 94.7593 13.6757 94.7936 13.6631 94.8279C13.6097 94.9712 13.5412 95.112 13.4489 95.248C13.4381 95.2641 13.4235 95.279 13.4122 95.2948C13.3232 95.4191 13.2163 95.539 13.0967 95.6558C13.0671 95.6849 13.0389 95.7138 13.0075 95.7424C12.8701 95.8668 12.718 95.9873 12.5481 96.1016C12.5184 96.1216 12.4854 96.1403 12.4548 96.1599C12.2983 96.2604 12.1297 96.3563 11.9499 96.4475C11.9094 96.468 11.8711 96.4893 11.8295 96.5092C11.6225 96.609 11.4018 96.7023 11.1684 96.7889C11.1196 96.8069 11.069 96.8236 11.019 96.8409C10.8062 96.9155 10.5848 96.9849 10.3538 97.048C10.3107 97.0595 10.2699 97.0728 10.2262 97.0842C9.96582 97.1517 9.69366 97.2103 9.41385 97.2617C9.38437 97.2672 9.35789 97.2752 9.32804 97.2804V97.2763C8.56807 97.411 7.74692 97.4878 6.88567 97.4876C4.0786 97.4869 1.66813 96.7012 0.596267 95.5763C0.50766 95.7414 0.453003 95.9106 0.453003 96.0843C0.453003 97.6947 4.42632 98.9999 9.32823 98.9999C14.2296 98.9999 18.2031 97.6949 18.2031 96.0843C18.2031 95.0067 16.419 94.0676 13.7727 93.5627L13.7726 94.2665L13.772 94.2666Z" fill="#BABABA"/>
<path opacity="0.25" d="M20.9462 84.63C20.3651 84.2438 19.5365 83.9058 18.5212 83.6396C18.5163 83.774 18.4908 83.9059 18.4516 84.0357C18.4414 84.0696 18.4309 84.1034 18.4184 84.137C18.3649 84.281 18.296 84.4222 18.203 84.5589C18.1931 84.5735 18.1796 84.5873 18.1694 84.6016C18.0795 84.7275 17.9709 84.8494 17.8496 84.9676C17.8211 84.9954 17.7939 85.0234 17.7637 85.0508C17.6254 85.1762 17.4723 85.2974 17.301 85.4127C17.2732 85.4314 17.2421 85.4489 17.2134 85.4674C17.0546 85.5696 16.8832 85.6668 16.7004 85.7595C16.6621 85.7789 16.6259 85.7989 16.5866 85.8179C16.3775 85.9186 16.1547 86.0126 15.9191 86.1001C15.8744 86.1167 15.8274 86.132 15.7817 86.1481C15.5614 86.2258 15.3321 86.2977 15.0924 86.3626C15.0571 86.3721 15.0239 86.3827 14.9883 86.3921C14.7206 86.4616 14.4408 86.5219 14.1526 86.5747C14.1285 86.579 14.1069 86.5855 14.0826 86.5898V86.5864C13.3227 86.7211 12.5015 86.7982 11.6401 86.798C8.59053 86.7972 6.00862 85.8699 5.10371 84.5877C4.47805 84.987 4.11859 85.439 4.11859 85.919C4.11859 87.039 6.04294 88.0105 8.8625 88.4992C8.96062 88.5128 9.05594 88.5292 9.15239 88.5451C10.3162 88.7292 11.6157 88.8355 12.994 88.8355C17.8957 88.8355 21.8692 87.5296 21.8692 85.919C21.8692 85.7104 21.7998 85.5075 21.6732 85.3112C21.5187 85.0717 21.2684 84.8439 20.9462 84.63Z" fill="#BABABA"/>
<path d="M77.9193 39.4867C78.0158 39.6425 78.1074 39.8035 78.2008 39.9622C78.1072 39.8033 78.0156 39.6425 77.9193 39.4867Z" fill="#FEC14D"/>
<path d="M77.0609 38.1881C77.1434 38.3036 77.2197 38.4269 77.3002 38.5446C77.2197 38.4267 77.1434 38.3038 77.0609 38.1881Z" fill="#FEC14D"/>
<path d="M22.7422 51.1291C22.8993 50.884 23.0688 50.6505 23.2421 50.4201C23.0686 50.6507 22.8993 50.8838 22.7422 51.1291Z" fill="#FEC14D"/>
<path d="M23.5569 50.0055C23.7585 49.7617 23.9764 49.5343 24.1973 49.3101C23.9764 49.5343 23.7587 49.7615 23.5569 50.0055Z" fill="#FEC14D"/>
<path d="M75.7751 36.5562C75.9152 36.72 76.0578 36.88 76.1945 37.0492C76.0578 36.8798 75.9152 36.7203 75.7751 36.5562Z" fill="#FEC14D"/>
<path d="M53.4221 53.3975L46.7287 56.5358C46.4284 56.0055 46.1085 55.4966 45.7773 55.0015C46.1085 55.4968 46.4284 56.0058 46.7289 56.5364C46.8807 56.8044 47.0288 57.0762 47.1725 57.3525C48.6088 60.1245 49.441 63.0009 49.7122 65.753C52.043 64.6054 54.4293 63.43 56.831 62.2466C56.2665 59.5936 55.2486 56.5328 53.4221 53.3975Z" fill="#FEC14D"/>
<path d="M42.9019 51.4823L49.6584 48.2822C47.0207 45.3972 44.37 43.6222 42.7874 42.6815C50.1319 38.9 59.0871 34.3271 59.4236 34.2055C61.0252 35.2093 63.7881 37.1476 66.4881 40.3106L75.3756 36.1009C70.9994 31.2496 65.1357 28.9626 60.2067 30.4486C59.6094 30.6286 59.025 30.8612 58.4592 31.1535C58.1316 31.3231 35.4899 42.9498 27.96 46.8615C32.7105 45.1224 38.4514 47.0367 42.9019 51.4823Z" fill="#FEC14D"/>
<path d="M70.1028 45.5759C71.7697 48.6467 72.702 51.6114 73.216 54.1655C73.2169 54.1651 73.2176 54.1646 73.2186 54.1644C76.1182 52.7333 78.8879 51.3656 81.4405 50.1053C81.2415 47.2715 80.4377 44.2901 78.9903 41.409L70.1063 45.5748L70.1028 45.5759Z" fill="#FEC14D"/>
<path d="M22.4543 51.6109C22.4308 51.6518 22.4052 51.6906 22.3821 51.7318L22.3918 51.7277C22.4134 51.6893 22.4325 51.649 22.4543 51.6109Z" fill="#FEC14D"/>
<path d="M25.5518 48.1298H25.5515C25.1775 48.3964 24.8268 48.6904 24.493 49.003C24.8268 48.6907 25.1776 48.3969 25.5515 48.1304L25.5518 48.1298Z" fill="#FEC14D"/>
<path d="M42.1488 80.3608C42.1701 80.3537 42.1913 80.3472 42.2124 80.3399L42.2003 80.3444C42.1833 80.3502 42.1658 80.355 42.1488 80.3608Z" fill="#FEC14D"/>
<path d="M38.2121 80.9085C38.1664 80.9065 38.1205 80.905 38.0748 80.9024C38.1207 80.9048 38.1662 80.9065 38.2121 80.9085Z" fill="#FEC14D"/>
<path d="M40.9084 80.698C40.8767 80.7043 40.8449 80.7097 40.8132 80.7159C40.8449 80.7096 40.8767 80.7045 40.9084 80.698Z" fill="#FEC14D"/>
<path d="M39.578 80.8847C39.5351 80.8878 39.492 80.8904 39.4489 80.8934C39.492 80.8906 39.5349 80.888 39.578 80.8847Z" fill="#FEC14D"/>
<path d="M46.0313 77.9637C47.7796 76.2432 48.9343 73.8958 49.4674 71.2216C48.9341 73.8956 47.779 76.2429 46.0308 77.9631C46.0285 77.9657 46.0259 77.968 46.0235 77.9702C46.0259 77.968 46.0289 77.9661 46.0313 77.9637Z" fill="#FEC14D"/>
<path d="M66.4883 40.3106C63.7883 37.1476 61.0254 35.2092 59.4238 34.2055C59.0871 34.3271 50.1318 38.8999 42.7875 42.6815C44.3703 43.6222 47.0209 45.3972 49.6586 48.2822L49.6619 48.2807L66.4883 40.3106Z" fill="white"/>
<path d="M53.4225 53.3975C55.2487 56.5328 56.2667 59.5936 56.8311 62.2466C56.8326 62.2458 56.8341 62.2451 56.8356 62.2443C62.3824 59.5109 68.0092 56.7352 73.2159 54.1656C72.702 51.6117 71.7699 48.647 70.1027 45.576L53.424 53.3967L53.4225 53.3975Z" fill="white"/>
<path d="M73.8266 60.5606C73.3789 60.9289 72.895 61.2574 72.3689 61.5297C72.3538 61.5368 64.5979 65.5204 57.5 69.1652C57.5291 67.7156 57.4746 65.2432 56.8359 62.2444C56.8344 62.2453 56.8329 62.2459 56.8314 62.2466C54.4297 63.43 52.0435 64.6056 49.7127 65.753C49.9007 67.6626 49.8093 69.5079 49.4676 71.2216C48.9344 73.8959 47.7797 76.2433 46.0315 77.9638C46.0291 77.966 46.0261 77.9681 46.0236 77.9705C45.7013 78.3105 45.3523 78.6269 44.9846 78.9215C48.2271 77.1531 51.4895 75.4238 54.7472 73.6854L66.1495 67.7725L71.878 64.8697L74.7421 63.4173C75.6987 62.9611 76.5624 62.404 77.3354 61.695C78.8831 60.2918 79.9697 58.4132 80.6159 56.4047C81.2846 54.3957 81.5053 52.2469 81.4447 50.1118C81.4445 50.1088 81.4447 50.1062 81.4445 50.1032C81.4434 50.1039 81.4419 50.1043 81.4408 50.1051C78.8883 51.3655 76.1186 52.733 73.2188 54.1642C73.7686 56.894 73.8415 59.1519 73.8266 60.5606Z" fill="#F49C40"/>
<path d="M57.5 69.1652C64.5978 65.5204 72.3536 61.5368 72.3689 61.5297C72.895 61.2574 73.379 60.9289 73.8265 60.5606C73.8415 59.1519 73.7685 56.894 73.2188 54.1644C73.2179 54.1647 73.2171 54.1653 73.2162 54.1655C68.0095 56.7352 62.3827 59.5108 56.8359 62.2442C57.4746 65.2432 57.5291 67.7156 57.5 69.1652Z" fill="#F5B588"/>
<path d="M80.6158 56.4047C79.9696 58.4132 78.883 60.2919 77.3353 61.695C76.5623 62.4039 75.6984 62.9611 74.742 63.4173L71.8779 64.8698L66.1494 67.7725L54.7471 73.6855C51.4894 75.4238 48.2272 77.1531 44.9845 78.9215C45.3522 78.6271 45.7014 78.3105 46.0236 77.9705C46.0258 77.9681 46.0284 77.9658 46.0308 77.9634C45.3052 78.6779 44.4822 79.2884 43.5584 79.7674L43.4575 79.8146L43.4547 79.8165C43.4262 79.8309 43.3969 79.8426 43.3682 79.8568L43.3684 79.8573L43.3851 79.8947L43.4251 79.9864L43.5204 79.9409C47.3885 78.0996 51.2155 76.1803 55.0553 74.2844L66.5053 68.4623L72.2034 65.4978L75.0521 64.0165C76.0241 63.5421 76.9514 62.884 77.7345 62.1207C79.3177 60.5829 80.392 58.5971 80.9673 56.5113C81.1227 55.9369 81.2392 55.3547 81.3316 54.7695C81.5757 53.2225 81.6106 51.6493 81.4444 50.1049C81.4446 50.1073 81.4444 50.1095 81.4444 50.1122C81.5054 52.2469 81.2846 54.3957 80.6158 56.4047Z" fill="#C46208"/>
<path d="M70.0159 45.4089C70.0463 45.4641 70.0765 45.5195 70.1065 45.5747L78.9905 41.4089L78.9956 41.4066C78.9547 41.327 78.9174 41.2475 78.8769 41.168C78.8696 41.1541 78.8626 41.1401 78.8553 41.1261C78.8413 41.0988 78.8269 41.0716 78.8129 41.0444C78.8017 41.0231 78.7904 41.0017 78.7792 40.9802C78.7762 40.9742 78.7732 40.9686 78.77 40.9629C78.7588 40.9414 78.7475 40.9201 78.7361 40.8987C78.7329 40.8927 78.7297 40.8867 78.7264 40.8806C78.7159 40.8608 78.7049 40.8403 78.6943 40.8205C78.69 40.8125 78.6855 40.8045 78.6812 40.7963C78.6715 40.778 78.662 40.7605 78.6521 40.7422C78.6465 40.7317 78.6408 40.7211 78.635 40.7105C78.6271 40.6957 78.6184 40.6797 78.6104 40.6651C78.6023 40.6504 78.5943 40.6357 78.5863 40.6211C78.5799 40.6094 78.574 40.5984 78.5674 40.5866C78.5563 40.5663 78.5451 40.5458 78.5337 40.5256C78.5303 40.5196 78.5279 40.515 78.5245 40.5092C78.421 40.3223 78.3083 40.1451 78.2007 39.9623C78.1072 39.8035 78.0157 39.6423 77.9192 39.4868C77.7196 39.1646 77.5118 38.8525 77.3005 38.5447C77.2199 38.427 77.1434 38.3037 77.0611 38.1882C76.7813 37.7958 76.4918 37.4169 76.1947 37.0492C76.0579 36.88 75.9154 36.72 75.7753 36.5562C75.6449 36.4036 75.5181 36.2451 75.3847 36.0971L75.3761 36.1012L66.4886 40.3109C67.7155 41.7482 68.9297 43.4384 70.0159 45.4089Z" fill="#FDAE4E"/>
<path d="M53.4226 53.3974L53.4243 53.3967C53.4103 53.3724 53.3957 53.3478 53.3818 53.3236C52.2284 51.3561 50.9467 49.686 49.6621 48.2806L49.6588 48.2821L42.9023 51.4822C43.9419 52.521 44.9082 53.7009 45.7778 55.0013C46.1089 55.4964 46.4288 56.0053 46.7292 56.5356L53.4226 53.3974Z" fill="#FDAE4E"/>
<path d="M53.3815 53.3237C53.3957 53.3479 53.41 53.3726 53.424 53.3968L70.1028 45.5761L70.106 45.5746C70.0759 45.5194 70.0457 45.4642 70.0153 45.4088C68.9291 43.4385 67.7151 41.7481 66.4882 40.3108L49.6619 48.2807C50.9464 49.6861 52.2279 51.3562 53.3815 53.3237Z" fill="#FEC795"/>
<path d="M23.2875 51.3361L23.3024 51.3478C23.441 51.2659 23.5792 51.1842 23.7229 51.1096C25.2409 50.2217 27.0478 49.8545 28.8223 49.9236C30.6032 50.0137 32.3472 50.5352 33.9455 51.3206C37.164 52.9056 39.7152 55.5938 41.5778 58.6085C43.3814 61.6695 44.5065 65.1721 44.557 68.7384C44.5678 70.5143 44.3447 72.3073 43.7459 73.9824C43.1348 75.6447 42.1978 77.206 40.8958 78.3857C40.2483 79.0229 39.5145 79.5673 38.6905 79.9944C38.4415 80.1235 38.1874 80.2353 37.9313 80.3397V80.3416L36.9141 80.7854L36.9478 80.7906C37.056 80.8061 37.1646 80.8225 37.2728 80.8352C37.4019 80.8507 37.531 80.8624 37.6595 80.8742C37.7912 80.885 37.9231 80.8941 38.0544 80.9014C38.0611 80.9018 38.0678 80.902 38.0747 80.9023C38.1204 80.9048 38.1663 80.9063 38.212 80.9085C38.2622 80.9107 38.3124 80.9137 38.3626 80.915C38.4547 80.9178 38.5471 80.9197 38.6388 80.9197C38.7466 80.9206 38.8539 80.9188 38.961 80.916L39.2106 80.9096C39.2906 80.9061 39.3697 80.8984 39.4493 80.8934C39.4924 80.8904 39.5353 80.888 39.5784 80.8846C39.634 80.8803 39.69 80.8787 39.7454 80.8732L39.9185 80.8533C40.0526 80.8387 40.1862 80.8223 40.3194 80.8024L40.5361 80.7678C40.629 80.7522 40.7214 80.7339 40.8139 80.7158C40.8456 80.7097 40.8773 80.7044 40.909 80.6979C40.9092 80.6979 40.9094 80.6979 40.9098 80.6979L41.1043 80.6569C41.2866 80.616 41.4683 80.5707 41.6477 80.5197L41.7253 80.4961C41.8677 80.4547 42.0083 80.4086 42.1488 80.3608C42.1658 80.355 42.1833 80.3502 42.2003 80.3444L42.2124 80.3399L42.3743 80.2817C42.5047 80.2336 42.6347 80.1836 42.7638 80.1299L42.9283 80.0609C43.0764 79.9971 43.2229 79.9277 43.3684 79.8566C43.3971 79.8426 43.4264 79.8307 43.4549 79.8163L43.4577 79.8144L43.5587 79.7672C44.4824 79.2882 45.3054 78.6775 46.0311 77.9632C47.7793 76.2429 48.9344 73.8957 49.4677 71.2216C49.8094 69.5079 49.9008 67.6628 49.7128 65.753C49.4416 63.001 48.6094 60.1245 47.1731 57.3525C47.0294 57.0763 46.8813 56.8045 46.7295 56.5364C46.4289 56.0059 46.109 55.4967 45.7779 55.0016C44.9083 53.701 43.942 52.5211 42.9024 51.4825H42.9022C38.4517 47.0367 32.7108 45.1226 27.9605 46.8617C27.9603 46.8617 27.9603 46.8619 27.96 46.8619C27.5578 47.0092 27.1625 47.1799 26.7762 47.3799C26.3467 47.6024 25.939 47.8543 25.5519 48.1298L25.5513 48.1307C25.1775 48.3973 24.8266 48.6911 24.4929 49.0034C24.3892 49.1004 24.297 49.2091 24.1972 49.3102C23.9764 49.5344 23.7585 49.7618 23.5569 50.0057C23.4466 50.139 23.3464 50.2812 23.2422 50.4201C23.069 50.6505 22.8993 50.8841 22.7422 51.1292C22.6417 51.2861 22.5484 51.4485 22.4544 51.6112C22.4326 51.6491 22.4134 51.6895 22.3919 51.7278L23.2875 51.3361Z" fill="#DD7936"/>
<path d="M33.8319 83.1672L33.8765 83.1481L33.8309 83.1653L33.8319 83.1672Z" fill="#E0760C"/>
<path d="M35.5774 62.7749C39.1346 69.6394 38.558 77.2217 34.5589 81.1562C33.9114 81.7932 33.1776 82.3387 32.3536 82.7647L32.1024 82.8847L36.9136 80.7855L37.9308 80.3418V80.3399C38.1871 80.2354 38.441 80.1237 38.69 79.9946C39.514 79.5674 40.2478 79.0231 40.8953 78.3859C43.2651 75.7657 44.1331 72.1668 43.9503 68.7567C43.774 65.3223 42.6988 61.944 40.8989 59.0157C39.148 56.0702 36.6946 53.49 33.6646 51.8613C32.1615 51.0424 30.5063 50.4744 28.7946 50.3117C27.0861 50.1181 25.3201 50.3845 23.7224 51.1098C23.5788 51.1844 23.4407 51.2661 23.3019 51.348L23.287 51.3362L22.3918 51.7276L22.3821 51.7317L18.814 53.2919L18.8149 53.2938C24.5518 51.4689 31.7675 55.4224 35.5774 62.7749Z" fill="#FEC14D"/>
<path d="M31.4551 83.1654L31.5004 83.1473C31.7032 83.0675 31.9039 82.9802 32.1026 82.8847L32.3538 82.7647C33.1778 82.3385 33.9116 81.7932 34.5591 81.1562C38.558 77.2217 39.1346 69.6394 35.5776 62.7749C31.7677 55.4224 24.552 51.4689 18.8151 53.294C18.3275 53.4484 17.8494 53.6402 17.3864 53.8801C17.0034 54.0791 16.6398 54.3035 16.2944 54.5499C11.3102 58.1017 10.2978 66.4111 14.1626 73.8709C15.6749 76.7889 17.7261 79.1643 20.006 80.863C23.6484 83.5764 27.8784 84.5511 31.4551 83.1654ZM15.1365 73.3665C11.623 66.5857 12.5432 59.0314 17.0743 55.8024C17.3882 55.578 17.7186 55.3743 18.0671 55.1935C18.4879 54.9754 18.9224 54.8008 19.3654 54.66C20.1481 54.411 20.9629 54.2944 21.791 54.2748C21.7938 54.2711 21.796 54.2668 21.7986 54.2629C21.9046 54.2604 22.0118 54.2694 22.1184 54.2705C22.2663 54.2722 22.414 54.2726 22.5627 54.2811C22.7498 54.292 22.9375 54.3136 23.1253 54.3351C23.2624 54.3507 23.3986 54.3608 23.5361 54.3822C23.8474 54.4307 24.1597 54.4923 24.4716 54.5695C24.5887 54.5984 24.7055 54.6386 24.8224 54.6714C25.0323 54.7303 25.2422 54.7898 25.4515 54.8615C25.5929 54.91 25.7333 54.9669 25.8742 55.0208C26.0594 55.0916 26.2441 55.1642 26.4282 55.2446C26.5724 55.3077 26.7155 55.3756 26.8589 55.4444C27.0406 55.5317 27.2212 55.6233 27.4014 55.7196C27.5409 55.7944 27.6797 55.8697 27.8181 55.9499C28.0054 56.0583 28.1906 56.1741 28.3753 56.2924C28.5025 56.3736 28.6299 56.4521 28.7557 56.5377C28.975 56.6873 29.1907 56.8474 29.4056 57.0106C29.4927 57.0766 29.5815 57.1371 29.6678 57.2053C29.9628 57.4387 30.2526 57.6855 30.5373 57.9439C30.6272 58.0256 30.7138 58.1142 30.8026 58.1985C31.0009 58.3861 31.1975 58.5764 31.3894 58.7758C31.4952 58.8857 31.5978 59.0006 31.7015 59.114C31.8724 59.301 32.041 59.4908 32.2061 59.6871C32.3104 59.8111 32.4128 59.9372 32.5146 60.065C32.6752 60.2663 32.8319 60.4728 32.9862 60.6832C33.081 60.8125 33.1757 60.9408 33.2681 61.0734C33.4304 61.3068 33.5863 61.5476 33.7404 61.7914C33.7971 61.8812 33.8588 61.9649 33.9146 62.0562H33.9152C33.9165 62.0582 33.9174 62.0606 33.9187 62.0627C33.9351 62.0895 33.9493 62.1188 33.9655 62.1457C34.1873 62.5135 34.4019 62.89 34.6035 63.2795C34.7964 63.6516 34.974 64.0264 35.1402 64.4023C35.1952 64.5267 35.2422 64.652 35.2945 64.7768C35.3993 65.0277 35.5032 65.2786 35.5963 65.5305C35.6535 65.6851 35.7033 65.8396 35.7563 65.9942C35.8321 66.2158 35.9069 66.437 35.9736 66.6587C36.0251 66.8295 36.0706 66.9997 36.1169 67.1703C36.1718 67.3735 36.2251 67.5761 36.2725 67.7785C36.3158 67.9624 36.3546 68.1454 36.3917 68.3289C36.4292 68.514 36.4637 68.6987 36.4948 68.883C36.5284 69.0799 36.5592 69.2762 36.5857 69.4722C36.6075 69.6355 36.6256 69.7974 36.6426 69.9593C36.6652 70.1725 36.6866 70.3848 36.7008 70.596C36.7097 70.7282 36.7138 70.859 36.7194 70.9907C36.7299 71.2278 36.7396 71.4641 36.7394 71.6982C36.7394 71.7717 36.7353 71.8439 36.734 71.917C36.7006 74.2203 36.1572 76.3459 35.1411 78.079C35.1392 78.0822 35.1374 78.0854 35.1355 78.0884C34.7233 78.7896 34.2429 79.4335 33.6779 79.9894C33.0894 80.5682 32.4223 81.0635 31.673 81.4517L31.4448 81.5608C31.2644 81.6472 31.0818 81.727 30.8973 81.8L30.8559 81.8162C25.5695 83.8644 18.7067 80.2573 15.1365 73.3665Z" fill="#FDA24E"/>
<path d="M30.8976 81.7995C31.0821 81.7268 31.2647 81.6468 31.4451 81.5604L31.6733 81.4513C32.4226 81.0633 33.0897 80.5678 33.6782 79.989C34.243 79.4331 34.7236 78.7892 35.1358 78.088C34.9873 78.3403 34.829 78.5845 34.6607 78.8192C32.4778 78.8658 30.1921 78.1344 28.0738 76.7753C27.9734 76.8061 27.8697 76.8344 27.7658 76.8626C27.7309 76.8719 27.6979 76.8827 27.6625 76.8919C27.3946 76.9616 27.1144 77.0219 26.826 77.0747C26.8021 77.079 26.7807 77.0855 26.7568 77.0898V77.0866C25.9966 77.2211 25.1757 77.2983 24.3142 77.298C20.5112 77.297 17.4288 75.8566 17.4294 74.0816L17.4309 74.0262L17.4316 71.4497H17.4335L17.4316 71.3852C17.432 70.1232 18.9943 69.0342 21.2617 68.5093C19.0031 63.2686 19.2998 57.7674 21.7913 54.2748C20.963 54.2944 20.1484 54.4111 19.3657 54.66C18.9227 54.8008 18.4882 54.9752 18.0674 55.1935C17.7189 55.3742 17.3886 55.5779 17.0746 55.8023C12.5435 59.0314 11.6233 66.5857 15.1368 73.3664C18.7072 80.2572 25.5698 83.8644 30.8566 81.816L30.8976 81.7995Z" fill="#EE8438"/>
<path d="M33.9661 62.1454C33.9498 62.1184 33.9357 62.0891 33.9193 62.0624C33.9355 62.0889 33.9495 62.118 33.9657 62.1449L33.9661 62.1454Z" fill="#EE8438"/>
<path d="M33.9146 62.0557C33.859 61.9645 33.7973 61.8809 33.7404 61.791C33.7961 61.8791 33.8536 61.9654 33.9081 62.0548C33.9103 62.0551 33.9125 62.0553 33.9146 62.0557Z" fill="#EE8438"/>
<path d="M35.5969 65.5302C35.654 65.6846 35.704 65.8393 35.757 65.9939C35.704 65.8393 35.6542 65.6846 35.5969 65.5302Z" fill="#EE8438"/>
<path d="M36.6426 69.959C36.665 70.172 36.6868 70.3845 36.7008 70.5957C36.6866 70.3845 36.6653 70.1722 36.6426 69.959Z" fill="#EE8438"/>
<path d="M36.4954 68.8829C36.5286 69.0797 36.5599 69.2764 36.5862 69.4722C36.5595 69.2762 36.5288 69.0799 36.4954 68.8829Z" fill="#EE8438"/>
<path d="M36.2726 67.7784C36.3157 67.9623 36.3549 68.1457 36.3918 68.3288C36.3547 68.1453 36.3159 67.9623 36.2726 67.7784Z" fill="#EE8438"/>
<path d="M36.7196 70.9903C36.7297 71.2272 36.7399 71.464 36.7396 71.6979C36.7397 71.4638 36.7301 71.2274 36.7196 70.9903Z" fill="#EE8438"/>
<path d="M23.1257 54.335C23.2627 54.3506 23.3992 54.3607 23.5365 54.3822C23.399 54.3607 23.2628 54.3508 23.1257 54.335Z" fill="#EE8438"/>
<path d="M35.9736 66.6583C36.0249 66.829 36.0706 66.9995 36.1169 67.17C36.0706 66.9993 36.0251 66.8292 35.9736 66.6583Z" fill="#EE8438"/>
<path d="M29.4059 57.0101C29.4928 57.0762 29.5818 57.1368 29.6682 57.2049C29.582 57.1368 29.493 57.0764 29.4059 57.0101Z" fill="#EE8438"/>
<path d="M32.2062 59.6868C32.3105 59.8107 32.413 59.937 32.5147 60.0647C32.4129 59.937 32.3105 59.8109 32.2062 59.6868Z" fill="#EE8438"/>
<path d="M32.9868 60.6828C33.0814 60.8119 33.1765 60.9407 33.2687 61.0731C33.1763 60.9405 33.0814 60.8121 32.9868 60.6828Z" fill="#EE8438"/>
<path d="M35.1401 64.402C35.1954 64.5264 35.2422 64.6518 35.2944 64.7766C35.2422 64.6518 35.1952 64.5266 35.1401 64.402Z" fill="#EE8438"/>
<path d="M28.3753 56.2919C28.5023 56.3731 28.6301 56.4516 28.7557 56.5372C28.6299 56.4516 28.5023 56.3733 28.3753 56.2919Z" fill="#EE8438"/>
<path d="M27.4014 55.7193C27.5407 55.7939 27.6799 55.8696 27.8181 55.9497C27.6797 55.8694 27.5409 55.7939 27.4014 55.7193Z" fill="#EE8438"/>
<path d="M35.1416 78.0785C36.1577 76.3454 36.7011 74.2199 36.7345 71.9165C36.6987 74.2171 36.1581 76.3465 35.1416 78.0785Z" fill="#EE8438"/>
<path d="M21.2612 68.509C22.178 68.2967 23.2068 68.1743 24.2992 68.1736V68.1732H24.3169C24.402 68.1732 24.4865 68.1742 24.5704 68.1751V68.1792C24.5896 68.1796 24.6085 68.1801 24.6277 68.1807C24.5866 68.0387 24.5581 67.8951 24.5581 67.7479L24.56 67.6925L24.5605 65.1158H24.5622L24.5605 65.0513C24.5611 63.2792 27.6342 61.8432 31.4286 61.8394L31.4463 61.8385C31.5314 61.8394 31.6159 61.8404 31.6998 61.8413V61.8448C32.4756 61.8585 33.2179 61.931 33.9079 62.0547C33.8534 61.9653 33.796 61.879 33.7402 61.7909C33.5861 61.5471 33.4302 61.3063 33.2679 61.0729C33.1757 60.9405 33.0808 60.8118 32.986 60.6827C32.8317 60.4723 32.675 60.2658 32.5144 60.0645C32.4128 59.9369 32.31 59.8106 32.2059 59.6866C32.0408 59.4901 31.8722 59.3004 31.7013 59.1135C31.5976 59.0001 31.495 58.8852 31.3892 58.7753C31.1971 58.5757 31.0005 58.3856 30.8024 58.198C30.7136 58.1139 30.627 58.0251 30.5371 57.9434C30.2524 57.685 29.9626 57.4382 29.6676 57.2048C29.5813 57.1368 29.4925 57.0761 29.4054 57.0101C29.1905 56.8469 28.9748 56.6868 28.7555 56.5372C28.6299 56.4516 28.5021 56.3731 28.3751 56.2919C28.1902 56.1736 28.005 56.0578 27.8179 55.9494C27.6797 55.8694 27.5405 55.7937 27.4012 55.719C27.2212 55.6228 27.0404 55.531 26.8587 55.4439C26.7154 55.3751 26.572 55.3071 26.428 55.2441C26.2439 55.1637 26.0592 55.0911 25.874 55.0203C25.7331 54.9663 25.5925 54.9095 25.4513 54.861C25.242 54.7893 25.0321 54.7298 24.8222 54.6709C24.7053 54.638 24.5885 54.5979 24.4714 54.569C24.1593 54.4918 23.8472 54.4304 23.5359 54.3817C23.3986 54.3603 23.2622 54.3502 23.1251 54.3345C22.9373 54.3129 22.7494 54.2915 22.5625 54.2806C22.4138 54.2721 22.2661 54.2717 22.1182 54.27C22.0116 54.2689 21.9044 54.2599 21.7984 54.2623C21.7958 54.2663 21.7934 54.2705 21.7908 54.2743C19.2993 57.7671 19.0026 63.2683 21.2612 68.509Z" fill="#C46208"/>
<path d="M36.1732 67.3881L36.1736 67.389C36.3878 68.2196 36.5404 69.0458 36.6318 69.861C36.545 69.9075 36.4568 69.9537 36.3641 69.9974L36.2188 70.0638C36.121 70.1084 36.0207 70.1502 35.9175 70.1919L35.7571 70.2546C35.6347 70.3001 35.5084 70.3445 35.3793 70.3863L35.2749 70.4217C35.1122 70.4727 34.9439 70.5199 34.7718 70.5635L34.6022 70.6046C34.4785 70.6346 34.3532 70.6628 34.225 70.6891L34.0219 70.7299L33.8861 70.7564V70.7527C33.1263 70.8872 32.3051 70.9644 31.4435 70.9644C31.3385 70.9644 31.2363 70.9592 31.1324 70.9569C31.1732 71.0989 31.2019 71.2425 31.2018 71.3897L31.2001 71.4533H31.2018L31.2012 74.0761H31.2008V74.0852C31.2008 74.2386 31.1699 74.388 31.1253 74.5357C31.115 74.5697 31.1046 74.6034 31.0921 74.637C31.0385 74.7808 30.9699 74.9222 30.8768 75.059C30.8669 75.0735 30.8535 75.0873 30.8432 75.1017C30.7533 75.2276 30.6449 75.3492 30.5237 75.4675C30.4951 75.4955 30.4679 75.5233 30.4375 75.5511C30.2993 75.6764 30.1463 75.7975 29.9753 75.9126C29.9471 75.9316 29.9158 75.9491 29.8867 75.9678C29.7283 76.0696 29.5574 76.1668 29.3752 76.2592C29.3364 76.2787 29.2998 76.2991 29.2602 76.3181C29.0513 76.4188 28.8286 76.5128 28.5932 76.6001C28.5482 76.6168 28.5014 76.6321 28.4557 76.6481C28.3309 76.6923 28.2054 76.7354 28.074 76.7753C30.1924 78.1345 32.4781 78.8659 34.661 78.8192C34.8292 78.5844 34.9876 78.3404 35.1361 78.088C35.1379 78.085 35.1398 78.0818 35.1417 78.0787C36.1581 76.3465 36.6987 74.2173 36.7345 71.9167C36.7359 71.8436 36.74 71.7714 36.74 71.6979C36.7403 71.4641 36.7303 71.2272 36.72 70.9903C36.7144 70.8588 36.7103 70.7279 36.7013 70.5956C36.6874 70.3844 36.6655 70.172 36.6431 69.9589C36.6262 69.7968 36.6081 69.6349 36.5863 69.4719C36.56 69.276 36.5288 69.0794 36.4954 68.8826C36.4641 68.6981 36.4296 68.5136 36.3922 68.3286C36.3551 68.1454 36.3161 67.962 36.273 67.7781C36.2257 67.5755 36.1723 67.3729 36.1175 67.17C36.0714 66.9995 36.0257 66.829 35.9742 66.6583C35.9074 66.4367 35.8326 66.2153 35.7569 65.9938C35.7041 65.8392 35.6541 65.6845 35.5968 65.5301C35.5038 65.2783 35.3997 65.0274 35.295 64.7765C35.2428 64.6517 35.196 64.5265 35.1407 64.4019C34.9745 64.0258 34.7971 63.6513 34.6041 63.2791C35.3053 64.6315 35.8188 66.0147 36.1732 67.3881Z" fill="#C46208"/>
<path d="M34.6037 63.2793C34.4018 62.8898 34.1875 62.5133 33.9657 62.1455C33.9657 62.1455 33.9655 62.1451 33.9653 62.1447C34.1871 62.513 34.4018 62.8898 34.6037 63.2793Z" fill="#C46208"/>
<path d="M44.5571 68.7386C44.5067 65.1723 43.3815 61.6696 41.5779 58.6087C39.7153 55.5942 37.1641 52.9058 33.9456 51.3207C32.3473 50.5354 30.6033 50.0138 28.8224 49.9237C27.0479 49.8547 25.241 50.2218 23.723 51.1098C25.3207 50.3845 27.0867 50.1183 28.7952 50.3117C30.5069 50.4744 32.1621 51.0424 33.6652 51.8613C36.6954 53.49 39.1487 56.0702 40.8994 59.0157C42.6994 61.944 43.7746 65.3221 43.9509 68.7567C44.1335 72.1666 43.2657 75.7657 40.8959 78.3859C42.1979 77.2062 43.1349 75.6449 43.746 73.9826C44.3448 72.3076 44.5679 70.5144 44.5571 68.7386Z" fill="#C46208"/>
<path d="M18.3979 81.4945C18.4116 81.4613 18.4231 81.4279 18.4347 81.3945C18.4231 81.4279 18.4114 81.4613 18.3979 81.4945Z" fill="#E5E5E5"/>
<path d="M17.1808 82.7933C17.2071 82.7767 17.2355 82.7612 17.2612 82.7444C17.2357 82.7612 17.2071 82.7767 17.1808 82.7933Z" fill="#E5E5E5"/>
<path d="M16.5504 83.1397C16.5907 83.1205 16.6282 83.1004 16.6676 83.0808C16.6284 83.1002 16.5907 83.1205 16.5504 83.1397Z" fill="#E5E5E5"/>
<path d="M18.1412 81.9461C18.1507 81.9332 18.1632 81.9209 18.1724 81.9081C18.1631 81.9209 18.1507 81.9332 18.1412 81.9461Z" fill="#E5E5E5"/>
<path d="M17.8144 82.3067C17.7853 82.3345 17.7567 82.3621 17.726 82.3895C17.7569 82.3623 17.7851 82.3345 17.8144 82.3067Z" fill="#E5E5E5"/>
<path d="M18.1695 84.6019C18.0796 84.7278 17.971 84.8496 17.8498 84.9679C17.971 84.8495 18.0794 84.7276 18.1695 84.6019Z" fill="#E5E5E5"/>
<path d="M14.9687 83.7016C15.0077 83.6915 15.0442 83.6801 15.0825 83.6698C15.0442 83.6801 15.0075 83.6915 14.9687 83.7016Z" fill="#E5E5E5"/>
<path d="M16.5867 85.8182C16.3776 85.9188 16.1549 86.0132 15.9193 86.1005C16.1549 86.013 16.3776 85.919 16.5867 85.8182Z" fill="#E5E5E5"/>
<path d="M18.4186 84.137C18.365 84.281 18.2962 84.4224 18.2031 84.559C18.2964 84.4222 18.365 84.281 18.4186 84.137Z" fill="#E5E5E5"/>
<path d="M17.2137 85.4675C17.0549 85.5697 16.8835 85.6669 16.7007 85.7596C16.8835 85.6671 17.0549 85.5697 17.2137 85.4675Z" fill="#E5E5E5"/>
<path d="M11.6404 86.798C12.5017 86.7982 13.3229 86.7212 14.083 86.5865L14.0836 83.8941C14.1041 83.8904 14.1224 83.885 14.1427 83.8813C13.4419 84.009 12.6856 84.0833 11.8951 84.0965V84.0997C11.8109 84.1016 11.727 84.1025 11.6419 84.1025C7.8852 84.1006 4.83209 82.6956 4.75934 80.9498H4.75804L4.7571 83.5263L4.7558 83.5817C4.75561 83.9333 4.88078 84.2709 5.10444 84.5879C6.00898 85.87 8.59088 86.7973 11.6404 86.798Z" fill="#E5E5E5"/>
<path d="M18.4515 84.0358C18.4907 83.906 18.5163 83.7741 18.5211 83.6398C18.5219 83.6215 18.5271 83.6038 18.5271 83.5853C18.5269 83.7386 18.4961 83.8884 18.4515 84.0358Z" fill="#E5E5E5"/>
<path d="M18.3979 81.4945C18.3401 81.6355 18.2681 81.7743 18.1722 81.9081C18.1631 81.9209 18.1506 81.9333 18.1411 81.9461C18.0485 82.0704 17.9376 82.1899 17.8142 82.3067C17.785 82.3345 17.7568 82.3621 17.7258 82.3895C17.5865 82.5125 17.433 82.6313 17.2619 82.7441C17.2363 82.7609 17.2078 82.7766 17.1815 82.793C17.0224 82.8938 16.8508 82.9895 16.6681 83.0807C16.6288 83.1003 16.5913 83.1206 16.551 83.1396C16.3428 83.2385 16.1218 83.3312 15.8877 83.4168C15.8474 83.4317 15.8048 83.445 15.7638 83.4595C15.5463 83.5355 15.3195 83.6058 15.0831 83.6698C15.0447 83.68 15.0081 83.6914 14.9693 83.7015C14.7042 83.7699 14.4278 83.8296 14.1428 83.8813C14.1224 83.8852 14.104 83.8906 14.0836 83.8942L14.0831 86.5865V86.5899C14.1073 86.5856 14.129 86.579 14.153 86.5748C14.441 86.522 14.721 86.4617 14.9887 86.3921C15.0243 86.383 15.0576 86.3722 15.0928 86.3627C15.3323 86.2977 15.562 86.2257 15.7821 86.1481C15.828 86.1321 15.8748 86.1168 15.9196 86.1002C16.1552 86.0129 16.3781 85.9187 16.587 85.818C16.6264 85.7989 16.6625 85.7788 16.7008 85.7596C16.8836 85.6669 17.0552 85.5697 17.2138 85.4674C17.2425 85.449 17.2737 85.4314 17.3014 85.4128C17.4727 85.2977 17.6258 85.1763 17.7641 85.0509C17.7943 85.0235 17.8215 84.9955 17.8501 84.9677C17.9715 84.8493 18.0799 84.7274 18.1698 84.6017C18.1801 84.5873 18.1935 84.5735 18.2034 84.559C18.2965 84.4223 18.3653 84.2809 18.4188 84.137C18.4313 84.1035 18.4418 84.0697 18.452 84.0358C18.4964 83.8882 18.5274 83.7384 18.5276 83.5853L18.527 83.5761H18.5276L18.5285 80.9532H18.5263C18.5199 81.1033 18.4839 81.25 18.4349 81.3943C18.4231 81.4279 18.4114 81.4613 18.3979 81.4945Z" fill="#D8D8D6"/>
<path d="M11.642 84.1025L11.6239 84.1016L11.6257 77.674C7.8315 77.6766 4.75862 79.1132 4.75806 80.8862L4.75936 80.9498C4.83211 82.6956 7.88522 84.1007 11.642 84.1025Z" fill="white"/>
<path d="M11.8951 84.0965C12.6858 84.0834 13.4419 84.009 14.1427 83.8812C14.4277 83.8295 14.704 83.7699 14.9693 83.7014C15.0081 83.6913 15.0448 83.6799 15.0831 83.6697C15.3194 83.6059 15.5462 83.5356 15.7637 83.4594C15.8048 83.4451 15.8473 83.4317 15.8876 83.4167C16.1217 83.3311 16.3428 83.2384 16.5509 83.1395C16.5912 83.1203 16.6289 83.1 16.6681 83.0806C16.8507 82.9896 17.0223 82.8937 17.1814 82.7929C17.2076 82.7763 17.2363 82.7608 17.2618 82.7441C17.4331 82.6312 17.5864 82.5124 17.7258 82.3894C17.7567 82.3622 17.7851 82.3344 17.8142 82.3066C17.9373 82.1898 18.0483 82.0701 18.141 81.946C18.1505 81.9332 18.163 81.9209 18.1722 81.908C18.268 81.7742 18.3401 81.6354 18.3979 81.4944C18.4113 81.4612 18.4233 81.4278 18.4346 81.3944C18.4835 81.2501 18.5197 81.1034 18.526 80.9533L18.5279 80.8897C18.5285 79.1539 15.5813 77.7429 11.8969 77.6793L11.8951 84.0965Z" fill="white"/>
<path d="M11.6233 84.1016L11.6414 84.1026C11.7264 84.1026 11.8104 84.1016 11.8945 84.0998V84.0966L11.8964 77.6794V77.6753C11.8123 77.6744 11.7278 77.6736 11.6432 77.6736H11.6252V77.674L11.6233 84.1016Z" fill="#EFEFEF"/>
<path d="M13.0588 92.9973C13.0297 93.025 13.0015 93.0525 12.9709 93.0798C13.0017 93.0527 13.0297 93.0251 13.0588 92.9973Z" fill="#E5E5E5"/>
<path d="M13.387 92.6362C13.3963 92.6235 13.4084 92.6116 13.4176 92.5989C13.4084 92.6114 13.3963 92.6235 13.387 92.6362Z" fill="#E5E5E5"/>
<path d="M13.6429 92.1849C13.6566 92.1517 13.6681 92.1185 13.6793 92.0851C13.6681 92.1185 13.6566 92.1519 13.6429 92.1849Z" fill="#E5E5E5"/>
<path d="M13.4118 95.295C13.3228 95.4192 13.2159 95.5392 13.0963 95.656C13.2161 95.5392 13.3228 95.4192 13.4118 95.295Z" fill="#E5E5E5"/>
<path d="M10.3541 97.0481C10.5851 96.9851 10.8065 96.9157 11.0193 96.8411C10.8065 96.9157 10.5849 96.9851 10.3541 97.0481Z" fill="#E5E5E5"/>
<path d="M11.168 96.7889C11.4012 96.7023 11.6219 96.6092 11.8291 96.5092C11.6221 96.609 11.401 96.7023 11.168 96.7889Z" fill="#E5E5E5"/>
<path d="M13.6965 94.7248C13.7407 94.5776 13.7717 94.4282 13.7717 94.275C13.7717 94.4282 13.7409 94.5776 13.6965 94.7248Z" fill="#E5E5E5"/>
<path d="M9.32777 97.2764L9.32833 94.5848C9.35407 94.5803 9.37701 94.5734 9.40257 94.5687C8.69763 94.6978 7.93599 94.7728 7.13983 94.7862V94.7901C7.0557 94.7911 6.97139 94.792 6.88689 94.792H6.86861V94.7914C3.12026 94.786 0.0768538 93.3821 0.00428962 91.64H0.00242524L0.0018645 94.2156L1.2082e-07 94.271C-0.00018642 94.7362 0.215642 95.1768 0.595998 95.5762C1.66786 96.7011 4.07833 97.4868 6.88539 97.4875C7.74665 97.4879 8.5678 97.411 9.32777 97.2764Z" fill="#E5E5E5"/>
<path d="M11.7954 93.8302C11.8363 93.8109 11.8741 93.7904 11.9139 93.7707C11.8741 93.7904 11.8361 93.8108 11.7954 93.8302Z" fill="#E5E5E5"/>
<path d="M11.0012 94.1521C11.0459 94.1365 11.0918 94.1221 11.1355 94.1059C11.0918 94.1219 11.0457 94.1366 11.0012 94.1521Z" fill="#E5E5E5"/>
<path d="M10.2076 94.3933C10.253 94.3815 10.2959 94.3683 10.3406 94.3562C10.2959 94.3685 10.253 94.3817 10.2076 94.3933Z" fill="#E5E5E5"/>
<path d="M13.4489 95.2481C13.5414 95.1121 13.6099 94.9713 13.6631 94.828C13.6097 94.9713 13.5414 95.1121 13.4489 95.2481Z" fill="#E5E5E5"/>
<path d="M9.41418 97.2618C9.694 97.2103 9.96597 97.1517 10.2266 97.0842C9.96616 97.1517 9.69381 97.2101 9.41418 97.2618Z" fill="#E5E5E5"/>
<path d="M13.6431 92.185C13.5855 92.3262 13.5131 92.465 13.4172 92.5989C13.4081 92.6116 13.3959 92.6235 13.3866 92.6362C13.2937 92.7606 13.1826 92.8806 13.0591 92.9975C13.03 93.0252 13.002 93.0528 12.9712 93.08C12.8317 93.2031 12.6781 93.3219 12.5067 93.4348C12.4813 93.4514 12.4532 93.4669 12.4271 93.4833C12.2681 93.584 12.0963 93.6795 11.9139 93.7708C11.8742 93.7905 11.8363 93.811 11.7954 93.8303C11.5882 93.9286 11.3684 94.0207 11.1358 94.1062C11.092 94.1222 11.0461 94.1365 11.0015 94.1524C10.7902 94.2261 10.5701 94.2942 10.3408 94.3565C10.296 94.3686 10.2533 94.3819 10.2078 94.3936C9.94943 94.4602 9.68025 94.5182 9.40287 94.5691C9.37731 94.5738 9.35437 94.5807 9.32862 94.5852L9.32806 97.2768V97.2809C9.35772 97.2757 9.38421 97.2676 9.41387 97.2622C9.6935 97.2106 9.96585 97.1522 10.2263 97.0847C10.2699 97.0735 10.3108 97.0602 10.3539 97.0485C10.5846 96.9854 10.8064 96.916 11.0191 96.8414C11.0689 96.8239 11.1196 96.8075 11.1685 96.7894C11.4015 96.7028 11.6225 96.6095 11.8296 96.5097C11.8712 96.4898 11.9094 96.4685 11.9499 96.448C12.1297 96.3568 12.2983 96.2611 12.4549 96.1603C12.4854 96.1407 12.5185 96.1223 12.5481 96.1021C12.7179 95.9878 12.8701 95.8673 13.0076 95.7428C13.0389 95.7143 13.0673 95.6854 13.0967 95.6563C13.2163 95.5395 13.3232 95.4194 13.4122 95.2954C13.4236 95.2795 13.4381 95.2646 13.4489 95.2485C13.5415 95.1125 13.6099 94.9717 13.6631 94.8284C13.6758 94.7941 13.6864 94.7598 13.6968 94.7251C13.7411 94.5779 13.772 94.4285 13.772 94.2753V94.2671H13.7726L13.7728 93.5633L13.7735 91.6444H13.7711C13.7647 91.7945 13.7287 91.941 13.6797 92.0855C13.6683 92.1186 13.6567 92.1518 13.6431 92.185Z" fill="#D8D8D6"/>
<path d="M6.8685 94.7917L6.87037 88.3635C3.07613 88.3672 0.00269242 89.8036 0.00231934 91.5757L0.00418656 91.6403C0.0767508 93.3824 3.12035 94.7863 6.8685 94.7917Z" fill="white"/>
<path d="M7.14194 88.369L7.14008 94.7862C7.93642 94.7729 8.69788 94.6977 9.40281 94.5687C9.6802 94.5177 9.94938 94.4597 10.2077 94.3931C10.2531 94.3814 10.296 94.3681 10.3407 94.356C10.5698 94.2939 10.7901 94.2258 11.0015 94.1519C11.046 94.1364 11.0921 94.1217 11.1358 94.1057C11.3684 94.0202 11.5883 93.9283 11.7954 93.8298C11.836 93.8105 11.8741 93.79 11.9138 93.7703C12.0965 93.679 12.2681 93.5835 12.427 93.4828C12.4529 93.4664 12.4813 93.4509 12.5067 93.4343C12.6781 93.3213 12.8316 93.2024 12.9711 93.0795C13.0019 93.0525 13.0299 93.0247 13.059 92.997C13.1825 92.8801 13.2937 92.7602 13.3866 92.6357C13.3959 92.6231 13.408 92.6109 13.4172 92.5984C13.513 92.4645 13.5854 92.3257 13.6431 92.1845C13.6567 92.1515 13.6682 92.1181 13.6794 92.0847C13.7285 91.9401 13.7645 91.7937 13.7708 91.6435L13.7727 91.579C13.7731 90.1749 11.8407 88.9831 9.15229 88.5447C9.05603 88.5289 8.96071 88.5124 8.8624 88.4988C8.31472 88.4225 7.73757 88.3794 7.14194 88.369Z" fill="white"/>
<path d="M6.86902 94.7917V94.7923H6.8873C6.9718 94.7923 7.0563 94.7913 7.14025 94.7904V94.7865L7.14211 88.3693V88.3659C7.05798 88.3641 6.97348 88.3631 6.88898 88.3631H6.87088V88.3637L6.86902 94.7917Z" fill="#EFEFEF"/>
<path d="M31.0359 92.3018C31.0632 92.2844 31.0925 92.2684 31.1191 92.251C31.0927 92.2684 31.063 92.2844 31.0359 92.3018Z" fill="#E5E5E5"/>
<path d="M30.4062 92.6476C30.4478 92.6279 30.4861 92.6072 30.5264 92.587C30.4863 92.6072 30.4477 92.6281 30.4062 92.6476Z" fill="#E5E5E5"/>
<path d="M32.2545 91.002C32.2679 90.9688 32.2797 90.9354 32.2911 90.902C32.2797 90.9354 32.2681 90.9688 32.2545 91.002Z" fill="#E5E5E5"/>
<path d="M31.6713 91.8135C31.6417 91.8417 31.6131 91.8698 31.5818 91.8973C31.6131 91.8697 31.6417 91.8417 31.6713 91.8135Z" fill="#E5E5E5"/>
<path d="M27.9398 96.094L27.9407 93.4017C27.9618 93.3981 27.9802 93.3923 28.0013 93.3884C27.3001 93.5162 26.5435 93.5907 25.7524 93.6037V93.6069C25.6683 93.6078 25.5838 93.6097 25.4987 93.6097C21.7425 93.6078 18.6892 92.2028 18.6165 90.457H18.6146L18.6139 93.0336L18.6124 93.089C18.6122 93.6666 18.9427 94.2073 19.5139 94.6759C20.6983 95.6476 22.9315 96.3048 25.4972 96.3056C26.3585 96.3057 27.1796 96.2287 27.9398 96.094Z" fill="#E5E5E5"/>
<path d="M32.0259 94.1091C31.936 94.235 31.8276 94.3566 31.7064 94.4749C31.8276 94.3566 31.9358 94.235 32.0259 94.1091Z" fill="#E5E5E5"/>
<path d="M32.3081 93.5434C32.3118 93.5307 32.3169 93.5182 32.3204 93.5055C32.3577 93.3701 32.3835 93.2329 32.3835 93.0927C32.3837 93.2458 32.3525 93.3956 32.3081 93.5434Z" fill="#E5E5E5"/>
<path d="M31.1582 94.9202C31.3293 94.8049 31.4822 94.684 31.6203 94.5585C31.4822 94.6837 31.3293 94.8051 31.1582 94.9202Z" fill="#E5E5E5"/>
<path d="M28.8245 93.2093C28.865 93.1989 28.9031 93.1869 28.9432 93.1761C28.9032 93.1869 28.865 93.1989 28.8245 93.2093Z" fill="#E5E5E5"/>
<path d="M30.558 95.2666C30.7402 95.1743 30.9111 95.0773 31.0695 94.9753C30.9113 95.0771 30.7402 95.1743 30.558 95.2666Z" fill="#E5E5E5"/>
<path d="M28.9484 95.8702C29.1883 95.8051 29.4177 95.7333 29.6382 95.6555C29.4179 95.7333 29.1883 95.8051 28.9484 95.8702Z" fill="#E5E5E5"/>
<path d="M32.0597 94.0663C32.1528 93.9296 32.2216 93.7882 32.275 93.6444C32.2214 93.7884 32.1528 93.9298 32.0597 94.0663Z" fill="#E5E5E5"/>
<path d="M29.7758 95.6076C30.0112 95.5203 30.2342 95.4263 30.4429 95.3256C30.2342 95.4263 30.0114 95.5205 29.7758 95.6076Z" fill="#E5E5E5"/>
<path d="M32.2545 91.0019C32.1969 91.1431 32.1247 91.2815 32.029 91.4154C32.0195 91.4287 32.0068 91.4412 31.9971 91.4542C31.9048 91.5779 31.7941 91.6973 31.6714 91.8137C31.6417 91.8419 31.6132 91.8699 31.5819 91.8975C31.4427 92.0202 31.2899 92.1385 31.119 92.2512C31.0926 92.2685 31.0631 92.2847 31.0358 92.3019C30.8778 92.4017 30.7075 92.4966 30.5264 92.5871C30.4859 92.6072 30.4477 92.628 30.4063 92.6477C30.1988 92.7462 29.9785 92.8386 29.7455 92.924C29.7038 92.9393 29.6597 92.9531 29.6172 92.9682C29.4016 93.0434 29.177 93.113 28.9427 93.1762C28.9028 93.187 28.8645 93.199 28.824 93.2094C28.5599 93.2775 28.2844 93.3368 28.0005 93.3887C27.9796 93.3926 27.9609 93.3982 27.9398 93.4019L27.9389 96.0943V96.0976C27.963 96.0933 27.9842 96.087 28.0081 96.0825C28.2967 96.0299 28.5767 95.9695 28.8446 95.8997C28.88 95.8906 28.913 95.8799 28.9479 95.8706C29.1878 95.8057 29.4174 95.7337 29.6377 95.6559C29.6836 95.6398 29.7304 95.6247 29.7752 95.608C30.0106 95.5207 30.2335 95.4266 30.4423 95.3259C30.4818 95.3067 30.5186 95.2865 30.5572 95.267C30.7394 95.1746 30.9105 95.0774 31.0687 94.9756C31.0978 94.9569 31.1291 94.9392 31.1573 94.9204C31.3282 94.8053 31.4813 94.684 31.6193 94.5587C31.6497 94.5311 31.677 94.5031 31.7055 94.4753C31.8268 94.3568 31.9352 94.2354 32.0251 94.1095C32.0353 94.0951 32.0488 94.0813 32.0586 94.0667C32.1517 93.9302 32.2204 93.7886 32.2739 93.6448C32.2864 93.6112 32.2969 93.5775 32.3071 93.5435C32.3515 93.396 32.3827 93.2462 32.3827 93.0928L32.3823 93.0839H32.3832L32.3838 90.4609H32.3819C32.3756 90.6111 32.3396 90.7577 32.2905 90.9021C32.2797 90.9353 32.2681 90.9687 32.2545 91.0019Z" fill="#D8D8D6"/>
<path d="M25.498 93.6097L25.4803 93.6088L25.4816 87.181C25.2702 87.181 25.0617 87.1866 24.855 87.1954C21.3549 87.3457 18.6143 88.7188 18.6139 90.3923L18.6158 90.4568C18.6885 92.2029 21.7418 93.6079 25.498 93.6097Z" fill="white"/>
<path d="M25.7516 93.6038C26.5428 93.5908 27.2994 93.5163 28.0006 93.3886C28.2847 93.3367 28.56 93.2774 28.8242 93.2093C28.8646 93.1989 28.9029 93.1869 28.9428 93.1761C29.1769 93.1129 29.4017 93.0433 29.6173 92.9681C29.6599 92.9532 29.7039 92.9392 29.7457 92.9239C29.9787 92.8385 30.199 92.7463 30.4064 92.6476C30.4478 92.6281 30.4864 92.6071 30.5265 92.587C30.7077 92.4965 30.8782 92.4016 31.036 92.3018C31.063 92.2844 31.0927 92.2684 31.1192 92.251C31.2898 92.1384 31.4428 92.0201 31.582 91.8974C31.6133 91.8699 31.6418 91.8418 31.6715 91.8136C31.7943 91.6972 31.9047 91.5778 31.9972 91.4541C32.0069 91.4411 32.0198 91.4286 32.0291 91.4153C32.1248 91.2816 32.197 91.143 32.2546 91.0018C32.2681 90.9686 32.2798 90.9352 32.2912 90.9018C32.3403 90.7574 32.3763 90.611 32.3826 90.4606L32.3845 90.397C32.3847 89.7008 31.9062 89.058 31.1011 88.5318C29.8988 87.7455 27.9603 87.2249 25.7535 87.1868L25.7516 93.6038Z" fill="white"/>
<path d="M25.4806 93.6088L25.4983 93.6098C25.5834 93.6098 25.6679 93.6079 25.752 93.6069V93.6038L25.7537 87.1866V87.1823C25.6692 87.1814 25.5851 87.1804 25.5002 87.1804H25.4819V87.181L25.4806 93.6088Z" fill="#EFEFEF"/>
<path d="M26.7576 74.3943C26.7787 74.3908 26.7971 74.385 26.8182 74.3813C26.117 74.509 25.3604 74.5834 24.5693 74.5965V74.5997C24.4852 74.6015 24.4006 74.6025 24.3156 74.6025C20.5594 74.6006 17.5061 73.1956 17.4334 71.4498H17.4315L17.4308 74.0263L17.4293 74.0817C17.4287 75.8566 20.5111 77.2973 24.3141 77.298C25.1755 77.2982 25.9965 77.2211 26.7567 77.0866L26.7576 74.3943Z" fill="#E5E5E5"/>
<path d="M27.6625 76.892C27.3946 76.9618 27.1144 77.022 26.826 77.0748C27.1146 77.0218 27.3946 76.9618 27.6625 76.892Z" fill="#E5E5E5"/>
<path d="M27.7653 76.8627C27.8693 76.8345 27.9729 76.806 28.0732 76.7754C28.2046 76.7354 28.3303 76.6924 28.4549 76.6481C28.2348 76.7257 28.0051 76.7978 27.7653 76.8627Z" fill="#E5E5E5"/>
<path d="M29.936 73.2436C29.9096 73.261 29.8801 73.2772 29.8528 73.2944C29.8801 73.277 29.9096 73.261 29.936 73.2436Z" fill="#E5E5E5"/>
<path d="M29.3441 73.5796C29.3038 73.5998 29.2652 73.6207 29.2239 73.6401C29.2655 73.6205 29.3038 73.5998 29.3441 73.5796Z" fill="#E5E5E5"/>
<path d="M27.7601 74.1687C27.7201 74.1795 27.6819 74.1915 27.6414 74.2019C27.6819 74.1913 27.7199 74.1795 27.7601 74.1687Z" fill="#E5E5E5"/>
<path d="M28.5631 73.9165C28.5213 73.9318 28.4773 73.9457 28.4349 73.9608C28.4773 73.9457 28.5213 73.9317 28.5631 73.9165Z" fill="#E5E5E5"/>
<path d="M30.8466 72.4077C30.8373 72.4209 30.8244 72.4334 30.8147 72.4467C30.8244 72.4336 30.8371 72.4211 30.8466 72.4077Z" fill="#E5E5E5"/>
<path d="M31.1087 71.8945C31.0973 71.928 31.0856 71.9614 31.0721 71.9944C31.0858 71.9614 31.0973 71.928 31.1087 71.8945Z" fill="#E5E5E5"/>
<path d="M29.2598 76.3182C29.0509 76.4188 28.8281 76.513 28.5927 76.6003C28.8281 76.513 29.0509 76.4189 29.2598 76.3182Z" fill="#E5E5E5"/>
<path d="M30.5233 75.4675C30.6447 75.3491 30.7529 75.2276 30.8428 75.1017C30.7527 75.2276 30.6445 75.3493 30.5233 75.4675Z" fill="#E5E5E5"/>
<path d="M30.4374 75.5511C30.2994 75.6765 30.1462 75.7977 29.9752 75.9126C30.1462 75.7973 30.2992 75.6765 30.4374 75.5511Z" fill="#E5E5E5"/>
<path d="M28.4554 76.6481C28.5013 76.6321 28.5481 76.6168 28.5929 76.6002C28.8283 76.5129 29.0512 76.4187 29.26 76.3181C29.2995 76.2989 29.3363 76.2786 29.3749 76.2592C29.5571 76.1669 29.7282 76.0697 29.8864 75.9678C29.9155 75.9492 29.9468 75.9316 29.975 75.9126C30.146 75.7975 30.299 75.6763 30.4372 75.5511C30.4676 75.5235 30.4949 75.4955 30.5234 75.4675C30.6447 75.3491 30.753 75.2276 30.8429 75.1017C30.8532 75.0873 30.8666 75.0735 30.8765 75.059C30.9696 74.9223 31.0383 74.7809 31.0918 74.637C31.1043 74.6035 31.1147 74.5697 31.125 74.5358C31.1694 74.3882 31.2005 74.2384 31.2005 74.0853V74.0761H31.2009L31.2015 71.4534H31.1998C31.1935 71.6035 31.1575 71.75 31.1084 71.8945C31.097 71.9281 31.0853 71.9615 31.0718 71.9945C31.0142 72.1355 30.942 72.2741 30.8463 72.4079C30.8368 72.4211 30.8241 72.4336 30.8144 72.4469C30.7221 72.5706 30.6115 72.6899 30.4887 72.8063C30.4591 72.8345 30.4305 72.8625 30.3992 72.8901C30.26 73.0128 30.1072 73.1311 29.9364 73.2438C29.9099 73.2611 29.8804 73.2773 29.8532 73.2945C29.6952 73.3943 29.5249 73.4893 29.3437 73.5799C29.3034 73.6001 29.265 73.6208 29.2236 73.6404C29.0162 73.739 28.7959 73.8312 28.5629 73.9166C28.5211 73.9319 28.4772 73.9457 28.4347 73.9608C28.2191 74.036 27.9945 74.1056 27.7604 74.1688C27.7203 74.1796 27.6822 74.1916 27.6417 74.202C27.3776 74.2703 27.1021 74.3294 26.8182 74.3813C26.7973 74.385 26.7786 74.3908 26.7575 74.3943L26.7566 77.0867V77.0899C26.7807 77.0856 26.8019 77.0792 26.8258 77.0748C27.1144 77.022 27.3944 76.9617 27.6622 76.8919C27.6977 76.8828 27.7307 76.8722 27.7656 76.8627C28.0055 76.7977 28.2351 76.7257 28.4554 76.6481Z" fill="#D8D8D6"/>
<path d="M24.3156 74.6024L24.2979 74.6014L24.2996 68.1736C23.2072 68.1744 22.1784 68.2967 21.2616 68.509C18.9942 69.0341 17.4319 70.1232 17.4315 71.3849L17.4334 71.4495C17.5061 73.1955 20.5594 74.6005 24.3156 74.6024Z" fill="white"/>
<path d="M24.5693 74.5965C25.3605 74.5834 26.1171 74.509 26.8183 74.3812C27.1024 74.3293 27.3777 74.27 27.6418 74.2019C27.6823 74.1915 27.7206 74.1795 27.7605 74.1687C27.9946 74.1055 28.2194 74.0359 28.4348 73.9607C28.4774 73.9458 28.5214 73.9318 28.563 73.9165C28.796 73.8311 29.0163 73.7389 29.2237 73.6403C29.2649 73.6207 29.3037 73.5998 29.3438 73.5798C29.525 73.4893 29.6955 73.3942 29.8533 73.2944C29.8803 73.2772 29.91 73.261 29.9365 73.2437C30.1072 73.131 30.2601 73.0127 30.3993 72.89C30.4306 72.8624 30.4592 72.8344 30.4888 72.8062C30.6116 72.6898 30.722 72.5705 30.8145 72.4468C30.8242 72.4337 30.8371 72.4212 30.8464 72.4078C30.9421 72.274 31.0143 72.1354 31.072 71.9944C31.0854 71.9614 31.0971 71.9278 31.1085 71.8944C31.1576 71.75 31.1936 71.6034 31.1999 71.4533L31.2016 71.3896C31.2018 71.2424 31.1731 71.0986 31.1322 70.9569C27.7864 70.8852 25.0678 69.7033 24.6279 68.1808C24.6089 68.1802 24.5899 68.1798 24.5706 68.1793L24.5693 74.5965Z" fill="white"/>
<path d="M24.2975 74.6014L24.3153 74.6023C24.4001 74.6023 24.4846 74.6014 24.569 74.5995V74.5964L24.5706 68.1792V68.1751C24.4865 68.1742 24.402 68.1732 24.3171 68.1732H24.2994V68.1736L24.2975 74.6014Z" fill="#EFEFEF"/>
<path d="M31.1325 70.9568C31.2364 70.9591 31.3386 70.9643 31.4436 70.9643C32.3052 70.9643 33.1264 70.8871 33.8862 70.7526L33.8871 68.0606L34.0039 68.0378C33.2872 68.1714 32.5106 68.2486 31.6986 68.2623V68.2658C31.6145 68.2667 31.53 68.2676 31.4451 68.2676H31.4274C27.6788 68.2622 24.6356 66.8589 24.5629 65.1159H24.5612L24.5606 67.6925L24.5588 67.7479C24.5588 67.8951 24.5873 68.0388 24.6284 68.1807C25.0678 69.7033 27.7865 70.8852 31.1325 70.9568Z" fill="#E5E5E5"/>
<path d="M36.1734 67.3888L36.173 67.3878C36.0768 67.4306 35.9777 67.4723 35.8762 67.5123C35.9777 67.4723 36.0771 67.4306 36.1734 67.3888Z" fill="#E5E5E5"/>
<path d="M33.886 70.7527V70.7564L34.0218 70.7299L34.225 70.689C34.3531 70.6627 34.4785 70.6346 34.6022 70.6045L34.7717 70.5635C34.9439 70.5199 35.112 70.4727 35.2748 70.4217L35.3793 70.3863C35.5084 70.3445 35.6347 70.2999 35.757 70.2546L35.9175 70.1919C36.0206 70.1501 36.1212 70.1084 36.2187 70.0638L36.364 69.9974C36.4568 69.9537 36.5448 69.9075 36.6317 69.861C36.5405 69.0458 36.3877 68.2198 36.1736 67.389C36.0773 67.4308 35.9777 67.4725 35.8764 67.5125L35.722 67.5725C35.5897 67.6216 35.4539 67.6679 35.3148 67.7124L35.2442 67.7352C35.0833 67.7852 34.9161 67.8314 34.7458 67.8751L34.5705 67.9169C34.4496 67.945 34.3272 67.9732 34.2022 67.9988L34.0038 68.038L33.887 68.0607L33.886 70.7527Z" fill="#D8D8D6"/>
<path d="M31.4272 68.2677L31.4291 61.8395C27.6347 61.8433 24.5614 63.2792 24.561 65.0514L24.5627 65.1159C24.6355 66.8591 27.6787 68.2625 31.4272 68.2677Z" fill="white"/>
<path d="M31.6999 61.845L31.6981 68.2623C32.5101 68.2487 33.2866 68.1713 34.0033 68.0379L34.2018 67.9987C34.3268 67.9732 34.4492 67.945 34.57 67.9169L34.7454 67.8751C34.9157 67.8314 35.083 67.7852 35.2438 67.7352L35.3143 67.7124C35.4533 67.6678 35.5893 67.6216 35.7215 67.5725L35.876 67.5125C35.9773 67.4725 36.0764 67.4307 36.1728 67.388C35.8184 66.0147 35.3048 64.6315 34.6038 63.2793C34.402 62.8898 34.1873 62.513 33.9655 62.1447C33.9492 62.1179 33.9352 62.0888 33.919 62.0623C33.9177 62.0602 33.9168 62.0578 33.9155 62.0558H33.9149C33.9129 62.0554 33.9106 62.0552 33.9084 62.055C33.218 61.931 32.4757 61.8586 31.6999 61.845Z" fill="white"/>
<path d="M31.4447 68.2677C31.5298 68.2677 31.6143 68.2668 31.6982 68.2658V68.2623L31.7001 61.8449V61.8414C31.616 61.8404 31.5315 61.8395 31.4466 61.8386L31.4289 61.8395L31.427 68.2677H31.4447Z" fill="#EFEFEF"/>
<path opacity="0.15" d="M230.408 142.669L105.29 70.4241C101.28 68.1084 96.3366 68.112 92.3301 70.4351L27.9261 107.761C26.2889 108.71 26.2902 111.074 27.9298 112.021L153.048 184.266C157.058 186.581 162 186.578 166.008 184.256L230.412 146.93C232.049 145.98 232.047 143.616 230.408 142.669Z" fill="#F0306D"/>
<path d="M194.566 78.4177L194.14 79.7357L182.03 117.184L181.673 118.275L160.46 183.827H159.409L180.792 117.759L181.139 116.668L193.496 78.4871L193.922 77.1678L194.557 78.4067L194.566 78.4177Z" fill="#5C58BF"/>
<path d="M64.025 2.16345L29.5134 108.824L159.41 183.829L181.14 116.669L193.923 77.1678L64.025 2.16345Z" fill="#F0306D"/>
<path d="M73.5181 14.5448L42.4405 109.604L154.323 174.206L173.039 116.361L185.4 79.1473L73.5181 14.5448Z" fill="#FF5289"/>
<path d="M72.7348 13.2231L41.6572 108.281L153.539 172.883L172.255 115.038L184.617 77.8257L72.7348 13.2231Z" fill="#FF9DBC"/>
<path d="M71.9905 11.5701L40.9129 106.629L152.796 171.23L171.51 113.385L183.872 76.1726L71.9905 11.5701Z" fill="white"/>
<path d="M82.3071 43.8695C79.2203 42.0861 77.6756 41.1957 74.5888 39.4123C73.9505 39.0432 73.6497 38.0772 73.9152 37.2537C74.182 36.4302 74.9153 36.0611 75.5536 36.4302C78.6405 38.2124 80.1851 39.1041 83.2719 40.8875C83.9102 41.2566 84.2111 42.2226 83.9455 43.046C83.6787 43.8695 82.9454 44.2374 82.3071 43.8695Z" fill="#FFDDE8"/>
<path d="M96.3184 51.9593C93.2304 50.1759 91.687 49.2854 88.6002 47.5021C87.9618 47.1342 87.661 46.167 87.9265 45.3435C88.1933 44.52 88.9266 44.1509 89.5649 44.52C92.6517 46.3022 94.1964 47.1939 97.2832 48.9773C97.9215 49.3464 98.2224 50.3124 97.9568 51.1358C97.6901 51.9593 96.9567 52.3284 96.3184 51.9593Z" fill="#FFDDE8"/>
<path d="M110.328 60.0503C107.24 58.2669 105.697 57.3765 102.61 55.5931C101.972 55.224 101.67 54.258 101.936 53.4345C102.203 52.611 102.937 52.2419 103.575 52.611C106.663 54.3944 108.206 55.2849 111.293 57.0683C111.931 57.4374 112.234 58.4034 111.967 59.2268C111.701 60.0491 110.967 60.4182 110.328 60.0503Z" fill="#FFDDE8"/>
<path d="M124.34 68.1401C121.252 66.3567 119.708 65.4662 116.62 63.6829C115.982 63.3137 115.681 62.3478 115.946 61.5243C116.213 60.7008 116.947 60.3317 117.585 60.7008C120.673 62.483 122.216 63.3747 125.304 65.158C125.943 65.5271 126.244 66.4931 125.978 67.3166C125.711 68.1401 124.978 68.5092 124.34 68.1401Z" fill="#FFDDE8"/>
<path d="M138.351 76.2311C135.263 74.4489 133.719 73.5572 130.631 71.7739C129.993 71.4048 129.692 70.4388 129.958 69.6153C130.225 68.7918 130.958 68.4227 131.596 68.7918C134.684 70.5752 136.228 71.4657 139.316 73.249C139.954 73.6182 140.255 74.5841 139.989 75.4076C139.723 76.2299 138.989 76.599 138.351 76.2311Z" fill="#FFDDE8"/>
<path d="M152.362 84.3209C149.274 82.5375 147.731 81.647 144.644 79.8636C144.006 79.4945 143.703 78.5285 143.97 77.7051C144.237 76.8816 144.97 76.5125 145.609 76.8816C148.697 78.665 150.24 79.5554 153.327 81.3388C153.965 81.7079 154.266 82.6739 154 83.4974C153.734 84.3209 153 84.6888 152.362 84.3209Z" fill="#FFDDE8"/>
<path d="M166.372 92.4107C163.285 90.6285 161.741 89.7368 158.654 87.9534C158.016 87.5843 157.715 86.6183 157.98 85.7948C158.247 84.9714 158.98 84.6023 159.619 84.9714C162.705 86.7548 164.25 87.6452 167.337 89.4286C167.975 89.7977 168.276 90.7637 168.011 91.5872C167.744 92.4107 167.01 92.7798 166.372 92.4107Z" fill="#FFDDE8"/>
<path d="M122.042 86.7791C116.437 83.5437 113.636 81.9247 108.031 78.6893C107.826 78.5711 107.73 78.2617 107.815 77.9986C109.39 73.1308 110.179 70.697 111.754 65.8292C111.839 65.5649 112.074 65.4479 112.277 65.5661C117.882 68.8027 120.684 70.4205 126.289 73.6571C126.493 73.7753 126.59 74.0847 126.504 74.3478C124.929 79.2156 124.141 81.6494 122.566 86.5172C122.481 86.7791 122.247 86.8972 122.042 86.7791ZM108.709 77.9487C114.018 81.0135 116.673 82.546 121.981 85.6121C123.432 81.1256 124.158 78.883 125.61 74.3977C120.301 71.3328 117.647 69.7992 112.338 66.7343C110.888 71.2196 110.161 73.4622 108.709 77.9487Z" fill="#FFDDE8"/>
<path d="M136.053 94.8701C130.449 91.6347 127.647 90.0157 122.042 86.7803C121.837 86.6622 121.741 86.354 121.826 86.0896C123.402 81.2219 124.19 78.788 125.765 73.9202C125.85 73.6571 126.085 73.5389 126.289 73.6571C131.893 76.8937 134.695 78.5115 140.3 81.7469C140.504 81.865 140.601 82.1745 140.515 82.4376C138.94 87.3053 138.152 89.7392 136.577 94.607C136.492 94.8701 136.258 94.987 136.053 94.8701ZM122.721 86.0384C128.029 89.1033 130.684 90.637 135.992 93.7019C137.443 89.2166 138.169 86.9728 139.621 82.4875C134.313 79.4226 131.658 77.8902 126.349 74.8241C124.899 79.3094 124.173 81.5532 122.721 86.0384Z" fill="#FFDDE8"/>
<path d="M150.063 102.96C144.46 99.7232 141.657 98.1055 136.053 94.8701C135.849 94.7519 135.752 94.4425 135.838 94.1794C137.413 89.3116 138.201 86.8778 139.776 82.01C139.861 81.7457 140.095 81.6287 140.3 81.7469C145.905 84.9835 148.706 86.6013 154.31 89.8367C154.515 89.9548 154.611 90.2642 154.526 90.5274C152.95 95.3951 152.162 97.829 150.587 102.697C150.503 102.96 150.268 103.078 150.063 102.96ZM136.732 94.1282C142.041 97.1931 144.695 98.7256 150.003 101.79C151.455 97.3052 152.181 95.0614 153.631 90.5761C148.323 87.5112 145.67 85.9788 140.361 82.9127C138.909 87.4004 138.183 89.643 136.732 94.1282Z" fill="#FFDDE8"/>
<path d="M164.073 111.05C158.47 107.814 155.668 106.197 150.063 102.96C149.859 102.842 149.763 102.532 149.848 102.269C151.423 97.4014 152.211 94.9675 153.786 90.0998C153.871 89.8367 154.107 89.7185 154.311 89.8367C159.915 93.0721 162.718 94.691 168.321 97.9264C168.526 98.0446 168.622 98.354 168.537 98.6171C166.962 103.485 166.174 105.919 164.599 110.787C164.512 111.05 164.278 111.168 164.073 111.05ZM150.742 102.219C156.051 105.284 158.704 106.817 164.013 109.881C165.463 105.396 166.191 103.154 167.641 98.6671C162.334 95.6022 159.68 94.0698 154.371 91.0049C152.92 95.4901 152.194 97.7328 150.742 102.219Z" fill="#FFDDE8"/>
<path d="M76.0713 74.6791C70.4678 71.4437 67.6648 69.8248 62.0613 66.5893C61.8566 66.4712 61.7604 66.1618 61.8456 65.8987C63.4207 61.0309 64.2089 58.597 65.7839 53.728C65.8692 53.4649 66.1043 53.3468 66.3077 53.4649C71.9113 56.7003 74.713 58.3181 80.3178 61.5547C80.5224 61.6729 80.6187 61.9823 80.5334 62.2454C78.9583 67.1132 78.1702 69.547 76.5951 74.416C76.511 74.6791 76.2759 74.7973 76.0713 74.6791ZM62.741 65.8487C68.0485 68.9136 70.7029 70.446 76.0116 73.5109C77.4636 69.0244 78.1897 66.7818 79.6405 62.2953C74.333 59.2305 71.6786 57.698 66.3699 54.6331C64.9179 59.1196 64.1918 61.3622 62.741 65.8487Z" fill="#FFDDE8"/>
<path d="M90.0826 82.7689C84.4778 79.5323 81.6761 77.9145 76.0713 74.6791C75.8667 74.561 75.7704 74.2515 75.8557 73.9884C77.4308 69.1207 78.2189 66.6868 79.794 61.8178C79.8793 61.5535 80.1144 61.4365 80.3178 61.5547C85.9213 64.7901 88.7243 66.4091 94.3279 69.6445C94.5325 69.7626 94.6287 70.072 94.5435 70.3352C92.9684 75.2029 92.1815 77.6368 90.6052 82.5046C90.5211 82.7689 90.2872 82.8871 90.0826 82.7689ZM76.751 73.9385C82.0598 77.0034 84.7129 78.5358 90.0217 81.6007C91.4737 77.1142 92.1985 74.8716 93.6506 70.3851C88.3418 67.3202 85.6874 65.7878 80.3799 62.7229C78.9279 67.2082 78.2019 69.452 76.751 73.9385Z" fill="#FFDDE8"/>
<path d="M104.094 90.8587C98.489 87.6221 95.6873 86.0044 90.0825 82.7689C89.8779 82.6508 89.7817 82.3414 89.8669 82.0782C91.442 77.2105 92.2289 74.7766 93.804 69.9088C93.8893 69.6445 94.1232 69.5276 94.3278 69.6445C99.9313 72.8812 102.734 74.4989 108.339 77.7343C108.544 77.8524 108.64 78.1619 108.555 78.425C106.98 83.2927 106.193 85.7266 104.618 90.5944C104.532 90.8587 104.298 90.9769 104.094 90.8587ZM90.761 82.0283C96.0698 85.0932 98.7242 86.6256 104.033 89.6917C105.484 85.2052 106.211 82.9626 107.662 78.4761C102.353 75.4113 99.6987 73.8788 94.3899 70.8127C92.9379 75.298 92.2131 77.5418 90.761 82.0283Z" fill="#FFDDE8"/>
<path d="M118.105 98.9497C112.5 95.713 109.699 94.0953 104.094 90.8599C103.889 90.7418 103.793 90.4323 103.878 90.1692C105.453 85.3015 106.241 82.8676 107.815 77.9998C107.901 77.7367 108.136 77.6185 108.339 77.7367C113.944 80.9734 116.746 82.5911 122.35 85.8265C122.555 85.9447 122.651 86.2541 122.566 86.5172C120.991 91.3849 120.204 93.8188 118.628 98.6866C118.544 98.9497 118.308 99.0666 118.105 98.9497ZM104.772 90.1181C110.081 93.1829 112.735 94.7154 118.044 97.7815C119.495 93.295 120.221 91.0524 121.673 86.5659C116.364 83.501 113.71 81.9674 108.401 78.9025C106.949 83.389 106.224 85.6316 104.772 90.1181Z" fill="#FFDDE8"/>
<path d="M132.115 107.04C126.512 103.804 123.709 102.185 118.104 98.9497C117.899 98.8316 117.803 98.5221 117.888 98.259C119.463 93.3913 120.251 90.9574 121.825 86.0896C121.911 85.8253 122.146 85.7083 122.349 85.8265C127.954 89.0632 130.756 90.6809 136.36 93.9163C136.565 94.0345 136.661 94.3426 136.576 94.607C135.001 99.4747 134.214 101.909 132.639 106.776C132.555 107.039 132.32 107.158 132.115 107.04ZM118.784 98.2079C124.092 101.273 126.747 102.805 132.055 105.871C133.507 101.385 134.232 99.1422 135.684 94.6569C130.376 91.592 127.721 90.0584 122.412 86.9935C120.96 91.4788 120.234 93.7226 118.784 98.2079Z" fill="#FFDDE8"/>
<path d="M146.126 115.129C140.523 111.894 137.72 110.275 132.115 107.039C131.91 106.921 131.814 106.613 131.899 106.349C133.475 101.481 134.263 99.0471 135.837 94.1794C135.922 93.915 136.157 93.7981 136.36 93.9163C141.965 97.1517 144.767 98.7706 150.37 102.006C150.575 102.124 150.671 102.434 150.586 102.697C149.011 107.565 148.224 109.998 146.649 114.866C146.565 115.129 146.331 115.247 146.126 115.129ZM132.795 106.298C138.104 109.363 140.757 110.895 146.065 113.96C147.516 109.473 148.242 107.231 149.694 102.745C144.386 99.6806 141.731 98.1482 136.424 95.0833C134.972 99.5685 134.246 101.812 132.795 106.298Z" fill="#FFDDE8"/>
<path d="M160.136 123.219C154.533 119.984 151.73 118.366 146.126 115.129C145.922 115.011 145.825 114.703 145.911 114.439C147.486 109.571 148.273 107.137 149.848 102.269C149.933 102.006 150.168 101.888 150.372 102.006C155.975 105.241 158.778 106.86 164.382 110.096C164.586 110.214 164.683 110.522 164.597 110.787C163.022 115.654 162.235 118.088 160.66 122.956C160.575 123.219 160.341 123.336 160.136 123.219ZM146.805 114.389C152.114 117.454 154.767 118.986 160.075 122.051C161.526 117.564 162.252 115.322 163.704 110.836C158.397 107.772 155.742 106.239 150.435 103.174C148.982 107.66 148.256 109.902 146.805 114.389Z" fill="#FFDDE8"/>
<path d="M72.1343 86.8485C66.5308 83.6131 63.7278 81.9942 58.1242 78.7587C57.9196 78.6406 57.8234 78.3312 57.9086 78.068C59.4837 73.2003 60.2719 70.7664 61.8469 65.8974C61.9322 65.6343 62.1673 65.5162 62.3707 65.6343C67.9743 68.8697 70.7772 70.4875 76.3808 73.7241C76.5854 73.8423 76.6817 74.1517 76.5964 74.4148C75.0213 79.2826 74.2344 81.7164 72.6593 86.5854C72.5728 86.8485 72.3389 86.9667 72.1343 86.8485ZM58.8028 78.0181C64.1103 81.083 66.7646 82.6154 72.0734 85.6803C73.5254 81.1938 74.2502 78.9512 75.7022 74.4647C70.3935 71.3999 67.7404 69.8674 62.4317 66.8025C60.9796 71.289 60.2548 73.5328 58.8028 78.0181Z" fill="#FFDDE8"/>
<path d="M86.1443 94.9383C80.5408 91.7029 77.7378 90.084 72.1343 86.8485C71.9296 86.7304 71.8334 86.421 71.9186 86.1578C73.4937 81.2901 74.2806 78.8562 75.8557 73.9872C75.941 73.7229 76.1761 73.6059 76.3795 73.7241C81.983 76.9595 84.786 78.5785 90.3908 81.8139C90.5954 81.932 90.6917 82.2402 90.6064 82.5046C89.0313 87.3723 88.2432 89.8062 86.6681 94.6752C86.584 94.9383 86.3489 95.0565 86.1443 94.9383ZM72.8128 86.1079C78.1215 89.1728 80.7759 90.7052 86.0834 93.7701C87.5354 89.2836 88.2602 87.041 89.7123 82.5545C84.4035 79.4896 81.7491 77.9572 76.4416 74.8923C74.9896 79.3788 74.2648 81.6214 72.8128 86.1079Z" fill="#FFDDE8"/>
<path d="M100.155 103.029C94.5507 99.7927 91.749 98.175 86.1443 94.9395C85.9396 94.8214 85.8434 94.5132 85.9286 94.2488C87.5037 89.3811 88.2919 86.9472 89.867 82.0782C89.9522 81.8151 90.1861 81.6969 90.3908 81.8151C95.9943 85.0505 98.7972 86.6695 104.402 89.9049C104.607 90.0231 104.703 90.3325 104.618 90.5956C103.043 95.4633 102.256 97.8972 100.681 102.765C100.595 103.029 100.36 103.147 100.155 103.029ZM86.824 94.1977C92.1327 97.2626 94.7871 98.795 100.096 101.861C101.547 97.3746 102.273 95.132 103.725 90.6455C98.416 87.5806 95.7616 86.0482 90.4529 82.9821C89.0008 87.4686 88.2748 89.7112 86.824 94.1977Z" fill="#FFDDE8"/>
<path d="M114.167 111.119C108.562 107.884 105.76 106.265 100.155 103.029C99.9508 102.911 99.8546 102.602 99.9399 102.339C101.515 97.4708 102.303 95.037 103.878 90.168C103.963 89.9049 104.199 89.7867 104.402 89.9049C110.007 93.1415 112.809 94.7592 118.413 97.9947C118.618 98.1128 118.714 98.421 118.629 98.6853C117.054 103.553 116.267 105.987 114.692 110.856C114.605 111.119 114.371 111.237 114.167 111.119ZM100.834 102.289C106.143 105.354 108.797 106.886 114.106 109.952C115.557 105.466 116.283 103.223 117.735 98.7365C112.426 95.6716 109.772 94.1392 104.463 91.0731C103.012 95.5583 102.286 97.8022 100.834 102.289Z" fill="#FFDDE8"/>
<path d="M128.178 119.209C122.573 115.973 119.772 114.355 114.167 111.119C113.962 111.001 113.866 110.693 113.951 110.428C115.526 105.561 116.314 103.127 117.888 98.2578C117.974 97.9934 118.209 97.8765 118.412 97.9947C124.017 101.23 126.819 102.849 132.423 106.084C132.628 106.203 132.724 106.511 132.639 106.775C131.064 111.643 130.277 114.077 128.702 118.946C128.617 119.209 128.383 119.327 128.178 119.209ZM114.845 110.378C120.154 113.443 122.808 114.976 128.117 118.042C129.569 113.555 130.295 111.313 131.746 106.826C126.437 103.761 123.783 102.229 118.474 99.1629C117.023 103.648 116.297 105.892 114.845 110.378Z" fill="#FFDDE8"/>
<path d="M142.188 127.299C136.583 124.063 133.781 122.444 128.178 119.209C127.973 119.091 127.877 118.783 127.962 118.518C129.537 113.65 130.326 111.217 131.899 106.348C131.985 106.083 132.22 105.966 132.423 106.084C138.028 109.32 140.83 110.939 146.433 114.174C146.638 114.292 146.734 114.602 146.649 114.865C145.074 119.733 144.286 122.167 142.711 127.036C142.628 127.3 142.393 127.417 142.188 127.299ZM128.856 118.468C134.165 121.533 136.82 123.066 142.127 126.13C143.578 121.644 144.304 119.401 145.756 114.915C140.447 111.85 137.794 110.318 132.485 107.253C131.033 111.739 130.309 113.982 128.856 118.468Z" fill="#FFDDE8"/>
<path d="M156.198 135.388C150.595 132.153 147.793 130.535 142.188 127.299C141.983 127.18 141.887 126.871 141.972 126.608C143.547 121.74 144.334 119.306 145.911 114.437C145.996 114.173 146.23 114.056 146.435 114.173C152.038 117.408 154.841 119.027 160.445 122.263C160.649 122.381 160.745 122.69 160.66 122.953C159.085 127.821 158.298 130.255 156.723 135.124C156.638 135.388 156.403 135.507 156.198 135.388ZM142.868 126.558C148.176 129.623 150.83 131.155 156.138 134.22C157.59 129.734 158.315 127.491 159.767 123.005C154.46 119.94 151.805 118.407 146.497 115.342C145.045 119.829 144.319 122.072 142.868 126.558Z" fill="#FFDDE8"/>
<path d="M68.1959 99.0191C62.5924 95.7837 59.7894 94.1648 54.1859 90.9293C53.9812 90.8112 53.885 90.5018 53.9703 90.2386C55.5454 85.3709 56.3335 82.937 57.9086 78.0693C57.9939 77.8061 58.2289 77.688 58.4324 77.8061C64.0359 81.0416 66.8389 82.6593 72.4424 85.8959C72.6471 86.0141 72.7433 86.3223 72.658 86.5866C71.083 91.4544 70.2948 93.8882 68.7197 98.756C68.6357 99.0191 68.4006 99.1373 68.1959 99.0191ZM54.8644 90.1887C60.1719 93.2536 62.8263 94.786 68.135 97.8509C69.587 93.3644 70.3118 91.1218 71.7639 86.6353C66.4552 83.5705 63.802 82.038 58.4933 78.9731C57.0425 83.4596 56.3165 85.7022 54.8644 90.1887Z" fill="#FFDDE8"/>
<path d="M82.2072 107.109C76.6024 103.873 73.8007 102.255 68.1972 99.0191C67.9925 98.901 67.8963 98.5916 67.9816 98.3284C69.5566 93.4607 70.3448 91.0268 71.9199 86.159C72.0051 85.8947 72.239 85.7778 72.4437 85.8959C78.0484 89.1314 80.8502 90.7503 86.4537 93.9857C86.6584 94.1039 86.7546 94.4121 86.6693 94.6764C85.0942 99.5442 84.3073 101.978 82.7322 106.846C82.6457 107.109 82.4118 107.227 82.2072 107.109ZM68.8757 98.2773C74.1844 101.342 76.8376 102.875 82.1463 105.939C83.5983 101.453 84.3231 99.2104 85.7752 94.7239C80.4665 91.659 77.8121 90.1266 72.5046 87.0617C71.0525 91.5482 70.3265 93.792 68.8757 98.2773Z" fill="#FFDDE8"/>
<path d="M96.2185 115.199C90.6137 111.963 87.8119 110.344 82.2072 107.109C82.0025 106.991 81.9063 106.683 81.9916 106.418C83.5667 101.55 84.3536 99.1166 85.9299 94.2488C86.0152 93.9845 86.2503 93.8676 86.4537 93.9857C92.0585 97.2211 94.8602 98.8401 100.465 102.076C100.67 102.194 100.766 102.503 100.681 102.766C99.1055 107.634 98.3173 110.068 96.7423 114.937C96.657 115.199 96.4219 115.317 96.2185 115.199ZM82.8857 106.368C88.1944 109.433 90.8488 110.966 96.1575 114.032C97.6084 109.545 98.3356 107.303 99.7864 102.816C94.4777 99.7513 91.8233 98.2188 86.5146 95.1527C85.0626 99.6392 84.3378 101.882 82.8857 106.368Z" fill="#FFDDE8"/>
<path d="M110.23 123.29C104.625 120.053 101.823 118.435 96.2184 115.2C96.0138 115.082 95.9175 114.774 96.0028 114.509C97.5779 109.641 98.366 107.208 99.9399 102.339C100.025 102.074 100.26 101.957 100.464 102.076C106.068 105.312 108.87 106.93 114.475 110.165C114.68 110.283 114.776 110.592 114.691 110.856C113.115 115.724 112.327 118.158 110.753 123.025C110.668 123.29 110.433 123.407 110.23 123.29ZM96.8969 114.458C102.206 117.523 104.86 119.055 110.169 122.121C111.621 117.635 112.347 115.392 113.798 110.906C108.489 107.841 105.835 106.309 100.526 103.242C99.0738 107.729 98.3478 109.972 96.8969 114.458Z" fill="#FFDDE8"/>
<path d="M124.24 131.379C118.635 128.144 115.833 126.525 110.228 123.29C110.024 123.172 109.928 122.862 110.013 122.599C111.588 117.731 112.375 115.297 113.95 110.428C114.035 110.164 114.27 110.047 114.474 110.165C120.078 113.401 122.88 115.02 128.485 118.255C128.69 118.373 128.786 118.683 128.701 118.946C127.125 123.814 126.339 126.247 124.763 131.116C124.679 131.379 124.444 131.498 124.24 131.379ZM110.908 122.548C116.217 125.613 118.871 127.146 124.18 130.211C125.632 125.725 126.358 123.482 127.809 118.996C122.5 115.931 119.846 114.398 114.537 111.332C113.085 115.819 112.359 118.063 110.908 122.548Z" fill="#FFDDE8"/>
<path d="M138.251 139.469C132.646 136.234 129.844 134.615 124.24 131.38C124.035 131.261 123.939 130.952 124.024 130.689C125.599 125.821 126.386 123.387 127.961 118.518C128.046 118.254 128.282 118.137 128.485 118.254C134.09 121.49 136.891 123.108 142.495 126.344C142.7 126.462 142.796 126.771 142.711 127.034C141.135 131.902 140.347 134.336 138.773 139.205C138.689 139.469 138.456 139.587 138.251 139.469ZM124.919 130.639C130.228 133.704 132.882 135.236 138.19 138.301C139.641 133.815 140.367 131.572 141.819 127.085C136.51 124.021 133.856 122.488 128.548 119.423C127.096 123.909 126.37 126.152 124.919 130.639Z" fill="#FFDDE8"/>
<path d="M152.261 147.559C146.657 144.324 143.856 142.706 138.251 139.469C138.046 139.351 137.95 139.043 138.035 138.779C139.61 133.911 140.399 131.477 141.972 126.608C142.058 126.344 142.293 126.227 142.496 126.344C148.101 129.579 150.903 131.198 156.506 134.433C156.711 134.552 156.807 134.86 156.722 135.124C155.147 139.992 154.36 142.426 152.785 147.295C152.7 147.559 152.466 147.677 152.261 147.559ZM138.929 138.729C144.238 141.794 146.891 143.326 152.2 146.391C153.651 141.904 154.377 139.662 155.829 135.175C150.521 132.11 147.867 130.578 142.558 127.513C141.106 132 140.381 134.242 138.929 138.729Z" fill="#FFDDE8"/>
<path d="M64.2589 111.189C58.6541 107.953 55.8523 106.334 50.2488 103.099C50.0442 102.981 49.9479 102.672 50.0332 102.408C51.6083 97.5403 52.3952 95.1064 53.9703 90.2386C54.0556 89.9743 54.2906 89.8574 54.4941 89.9743C60.0976 93.2097 62.8994 94.8275 68.5041 98.0641C68.7088 98.1823 68.805 98.4917 68.7197 98.7548C67.1447 103.623 66.3565 106.056 64.7827 110.924C64.6974 111.189 64.4635 111.307 64.2589 111.189ZM50.9273 102.358C56.2349 105.423 58.8892 106.955 64.1979 110.02C65.6488 105.535 66.3748 103.291 67.8268 98.806C62.5181 95.7411 59.8649 94.2086 54.5562 91.1437C53.1042 95.629 52.3794 97.8716 50.9273 102.358Z" fill="#FFDDE8"/>
<path d="M78.2689 119.278C72.6641 116.042 69.8624 114.424 64.2589 111.189C64.0542 111.07 63.958 110.761 64.0433 110.498C65.6184 105.63 66.4053 103.196 67.9804 98.3285C68.0656 98.0641 68.3007 97.9472 68.5041 98.0653C74.1089 101.301 76.9107 102.92 82.5154 106.155C82.7201 106.273 82.8163 106.583 82.731 106.846C81.156 111.714 80.3678 114.147 78.7939 119.015C78.7086 119.278 78.4735 119.396 78.2689 119.278ZM64.9374 110.448C70.2461 113.513 72.8993 115.045 78.208 118.111C79.6588 113.625 80.3848 111.382 81.8369 106.896C76.5282 103.831 73.8738 102.298 68.5663 99.2335C67.1142 103.719 66.3894 105.961 64.9374 110.448Z" fill="#FFDDE8"/>
<path d="M92.2802 127.368C86.6754 124.131 83.8736 122.514 78.2689 119.278C78.0642 119.16 77.968 118.851 78.0533 118.588C79.6284 113.72 80.4153 111.286 81.9904 106.418C82.0757 106.155 82.3108 106.037 82.5142 106.155C88.1189 109.391 90.9207 111.009 96.5254 114.245C96.7301 114.363 96.8263 114.671 96.741 114.936C95.166 119.803 94.379 122.237 92.804 127.105C92.7199 127.368 92.4848 127.486 92.2802 127.368ZM78.9474 118.538C84.2562 121.603 86.9105 123.135 92.2193 126.201C93.6701 121.716 94.3961 119.472 95.8481 114.987C90.5394 111.922 87.885 110.389 82.5763 107.323C81.1255 111.809 80.3995 114.051 78.9474 118.538Z" fill="#FFDDE8"/>
<path d="M106.291 135.459C100.687 132.222 97.8848 130.605 92.2801 127.369C92.0754 127.251 91.9792 126.942 92.0645 126.679C93.6395 121.811 94.4265 119.377 96.0015 114.509C96.0868 114.245 96.3219 114.128 96.5253 114.246C102.13 117.482 104.932 119.1 110.537 122.336C110.741 122.454 110.837 122.763 110.752 123.027C109.177 127.894 108.389 130.328 106.815 135.196C106.731 135.459 106.496 135.577 106.291 135.459ZM92.9586 126.627C98.2673 129.692 100.922 131.226 106.23 134.291C107.681 129.804 108.407 127.562 109.859 123.075C104.551 120.01 101.896 118.478 96.5875 115.412C95.1367 119.898 94.4106 122.142 92.9586 126.627Z" fill="#FFDDE8"/>
<path d="M120.303 143.549C114.698 140.313 111.896 138.695 106.291 135.459C106.087 135.341 105.991 135.033 106.076 134.768C107.651 129.901 108.438 127.467 110.013 122.599C110.098 122.335 110.332 122.218 110.537 122.336C116.141 125.573 118.943 127.19 124.548 130.426C124.753 130.544 124.849 130.853 124.764 131.116C123.188 135.984 122.4 138.418 120.826 143.286C120.742 143.549 120.507 143.667 120.303 143.549ZM106.97 134.717C112.279 137.782 114.933 139.316 120.242 142.381C121.693 137.895 122.419 135.652 123.871 131.165C118.562 128.1 115.908 126.568 110.599 123.502C109.148 127.989 108.422 130.232 106.97 134.717Z" fill="#FFDDE8"/>
<path d="M131.629 96.1236C124.238 90.5566 117.168 95.121 115.834 103.893C114.114 119.507 129.955 125.929 134.6 109.512C134.864 108.579 135.868 109.088 135.671 109.966C132.414 128.081 113.627 121.595 112.33 106.828C112.165 103.601 113.084 99.2835 114.948 96.1857C118.763 89.7587 126.247 87.7987 132.524 94.3853C132.879 94.758 132.943 95.4268 132.667 95.8812C132.416 96.2905 131.974 96.3831 131.629 96.1236Z" fill="#06C971"/>
<path d="M136.609 101.976C136.443 101.564 136.056 101.397 135.744 101.604C131.249 104.582 129.001 106.071 124.506 109.049C124.481 108.883 123.062 99.7573 123.026 99.5978C122.712 98.1615 121.571 97.2991 120.477 97.6731C119.383 98.0471 118.751 99.5149 119.066 100.952C121.711 113.036 121.649 113.142 121.957 113.705C122.479 114.658 123.484 114.897 124.202 114.239C129.089 109.757 131.533 107.516 136.421 103.034C136.676 102.803 136.761 102.351 136.609 101.976Z" fill="#06C971"/>
<path d="M82.2133 26.5107C81.9039 27.4646 81.0549 27.8921 80.3154 27.4658C78.0143 26.1368 76.8632 25.4729 74.5621 24.1439C73.8226 23.7163 73.473 22.5968 73.7825 21.643C74.0906 20.6892 74.9409 20.2616 75.6803 20.688C77.9814 22.017 79.1314 22.6809 81.4337 24.0099C82.1731 24.4362 82.5227 25.5557 82.2133 26.5107Z" fill="#FF5289"/>
<path d="M101.628 37.7202C101.319 38.6741 100.47 39.1016 99.7304 38.6753C97.4293 37.3463 96.2781 36.6824 93.977 35.3534C93.2376 34.9258 92.888 33.8063 93.1962 32.8525C93.5044 31.8987 94.3547 31.4711 95.0953 31.8974C97.3964 33.2265 98.5476 33.8904 100.849 35.2194C101.588 35.6469 101.936 36.7664 101.628 37.7202Z" fill="#FF5289"/>
<path d="M121.043 48.9309C120.735 49.8847 119.885 50.3123 119.144 49.886C116.843 48.557 115.692 47.8931 113.391 46.564C112.651 46.1365 112.302 45.017 112.61 44.0632C112.919 43.1094 113.768 42.6818 114.509 43.1081C116.81 44.4371 117.961 45.101 120.262 46.43C121.003 46.8576 121.353 47.9771 121.043 48.9309Z" fill="#FF5289"/>
<path d="M140.459 60.1429C140.15 61.0967 139.301 61.5243 138.56 61.0979C136.259 59.7689 135.108 59.105 132.807 57.776C132.068 57.3484 131.718 56.2289 132.027 55.2751C132.337 54.3213 133.186 53.8937 133.925 54.3201C136.226 55.6491 137.378 56.313 139.679 57.642C140.419 58.0683 140.768 59.1878 140.459 60.1429Z" fill="#FF5289"/>
<path d="M159.874 71.3523C159.566 72.3062 158.716 72.7337 157.975 72.3074C155.674 70.9784 154.523 70.3145 152.222 68.9855C151.483 68.5591 151.133 67.4384 151.442 66.4846C151.752 65.5308 152.601 65.1032 153.341 65.5296C155.643 66.8586 156.793 67.5225 159.095 68.8515C159.834 69.279 160.183 70.3985 159.874 71.3523Z" fill="#FF5289"/>
<path d="M177.39 83.5181C175.089 82.1891 173.938 81.5252 171.637 80.1962C170.898 79.7686 170.548 78.6491 170.857 77.6953C171.167 76.7415 172.016 76.3139 172.755 76.7403C175.056 78.0693 176.208 78.7332 178.509 80.0622C179.248 80.4897 179.598 81.6092 179.288 82.5631C178.98 83.5181 178.13 83.9444 177.39 83.5181Z" fill="#FF5289"/>
<mask id="mask0_515_17787" style="mask-type:luminance" maskUnits="userSpaceOnUse" x="70" y="0" width="121" height="84">
<path d="M190.668 61.7959L187.892 73.6863L180.533 69.4313L175.753 78.4761C176.577 78.9524 177.41 79.4287 178.51 80.0634C179.243 80.4897 179.601 81.6105 179.293 82.563C179.224 82.7714 179.125 82.9602 179.006 83.1185L174.623 80.6189L170.745 78.3969L163.942 74.4988L171.083 63.9764L161.245 58.2937L156.465 67.3288C157.248 67.7856 158.052 68.2412 159.094 68.8466C159.838 69.2827 160.184 70.3937 159.877 71.356C159.798 71.6045 159.678 71.8116 159.539 71.9809L155.295 69.5507L151.349 67.2898L144.099 63.1347L151.289 52.5525L142.175 47.2864L137.395 56.3215C138.068 56.7186 138.793 57.1255 139.686 57.6408C140.419 58.0671 140.766 59.1878 140.459 60.1404C140.371 60.4182 140.241 60.6557 140.072 60.8348L136.185 58.6129L131.93 56.1826L124.413 51.8789L131.662 41.2176L122.023 35.6543L117.252 44.6893C118.165 45.2144 119.058 45.7308 120.267 46.4349C121.001 46.8613 121.359 47.982 121.041 48.9346C120.941 49.2513 120.783 49.4998 120.585 49.6886L115.994 47.0611L112.523 45.0779C112.523 45.0682 105.76 41.2005 105.76 41.2005L113.05 30.4698L103.023 24.6774L98.2491 33.7198C99.0226 34.1657 99.8156 34.6225 100.847 35.2169C101.592 35.6433 101.939 36.764 101.631 37.7166C101.521 38.0638 101.333 38.3512 101.104 38.5401L96.9493 36.1598L93.1219 33.9683L86.4171 30.1299L93.7565 19.3297L83.2341 13.2609L78.454 22.2959C79.3469 22.8112 80.2399 23.318 81.4288 24.0123C82.1731 24.4387 82.5202 25.5594 82.212 26.5108C82.0829 26.8981 81.8746 27.1954 81.6164 27.383L77.1238 24.8139L73.7227 22.8697L71.8882 21.8184L70.2814 16.7899L75.2698 8.65745L80.5651 0L88.0227 4.18559L99.6256 10.7015L107.936 15.3622L119.063 21.6101L127.066 26.1027L137.826 32.1325L147.346 37.4778L157.61 43.2397L166.545 48.2573L177.554 54.4358L185.964 59.1562L190.668 61.7959Z" fill="white"/>
</mask>
<g mask="url(#mask0_515_17787)">
<path d="M185.727 64.281C185.849 64.823 185.92 65.4175 185.92 66.0716C185.92 70.7615 182.616 76.4845 178.554 78.8294C177.987 79.1571 177.438 79.3922 176.907 79.5579C177.883 79.6846 179.023 79.43 180.248 78.7222C183.792 76.6769 186.674 71.6837 186.674 67.5919C186.675 66.1776 186.324 65.0618 185.727 64.281Z" fill="#FF6D9B"/>
<path d="M180.248 79.8076C178.218 80.9806 176.376 81.0891 175.042 80.3192C173.708 79.5493 172.882 77.8999 172.882 75.555C172.882 70.8651 176.186 65.1422 180.248 62.7972C182.279 61.6254 184.121 61.5157 185.455 62.2856C186.789 63.0555 187.614 64.7049 187.614 67.0498C187.614 71.7397 184.31 77.4626 180.248 79.8076ZM180.248 63.8814C176.705 65.9267 173.823 70.9199 173.823 75.0117C173.823 79.1035 176.706 80.7675 180.25 78.7222C183.793 76.6769 186.675 71.6837 186.675 67.5919C186.674 63.5001 183.792 61.8349 180.248 63.8814Z" fill="#E60F53"/>
<path d="M172.882 75.5538C172.882 70.8639 176.186 65.141 180.248 62.796C182.279 61.6241 184.121 61.5145 185.455 62.2844L183.76 61.3062C182.426 60.5363 180.584 60.6447 178.555 61.8178C174.494 64.1628 171.189 69.8857 171.189 74.5756C171.189 76.9205 172.015 78.5699 173.349 79.3398L175.043 80.318C173.709 79.5481 172.882 77.8987 172.882 75.5538Z" fill="#FF85AC"/>
<path d="M88.3029 8.024C88.4247 8.56608 88.4953 9.15933 88.4953 9.81348C88.4953 14.5034 85.1917 20.2263 81.1292 22.5712C80.5627 22.8989 80.0133 23.134 79.4822 23.2997C80.4567 23.4264 81.5981 23.1718 82.8224 22.4653C86.366 20.42 89.2481 15.4267 89.2481 11.335C89.2494 9.92189 88.8997 8.80606 88.3029 8.024Z" fill="#FF6D9B"/>
<path d="M82.8236 23.5506C80.7929 24.7225 78.9511 24.8321 77.6172 24.0623C76.2833 23.2924 75.4574 21.643 75.4574 19.2981C75.4574 14.6081 78.761 8.88524 82.8236 6.54029C84.8543 5.3672 86.6961 5.25878 88.03 6.02866C89.3639 6.79853 90.1898 8.44792 90.1898 10.7929C90.1898 15.4828 86.8849 21.2057 82.8236 23.5506ZM82.8236 7.62445C79.28 9.66974 76.3978 14.663 76.3978 18.7548C76.3978 22.8465 79.2812 24.5105 82.8236 22.4653C86.3672 20.42 89.2494 15.4267 89.2494 11.335C89.2494 7.24316 86.3672 5.57916 82.8236 7.62445Z" fill="#E60F53"/>
<path d="M75.4574 19.298C75.4574 14.6081 78.7611 8.88523 82.8236 6.54028C84.8543 5.36719 86.6961 5.25877 88.03 6.02865L86.3356 5.05047C85.0017 4.2806 83.1599 4.39023 81.1292 5.5621C77.0679 7.90705 73.763 13.63 73.763 18.3199C73.763 20.6648 74.5889 22.3142 75.9228 23.0841L77.6173 24.0622C76.2846 23.2924 75.4574 21.643 75.4574 19.298Z" fill="#FF85AC"/>
<path d="M107.787 19.2761C107.909 19.8182 107.98 20.4114 107.98 21.0656C107.98 25.7555 104.676 31.4784 100.615 33.8234C100.048 34.151 99.499 34.3861 98.9678 34.5518C99.9436 34.6785 101.085 34.4239 102.309 33.7162C105.853 31.6709 108.735 26.6776 108.735 22.5859C108.735 21.1728 108.384 20.057 107.787 19.2761Z" fill="#FF6D9B"/>
<path d="M102.308 34.8016C100.277 35.9747 98.4355 36.0831 97.1016 35.3132C95.7678 34.5433 94.9418 32.8939 94.9418 30.549C94.9418 25.8591 98.2455 20.1362 102.308 17.7912C104.339 16.6181 106.181 16.5097 107.514 17.2796C108.848 18.0495 109.674 19.6989 109.674 22.0438C109.674 26.7337 106.371 32.4566 102.308 34.8016ZM102.308 18.8766C98.7644 20.9219 95.8823 25.9151 95.8823 30.0069C95.8823 34.0987 98.7656 35.7627 102.308 33.7174C105.852 31.6721 108.734 26.6789 108.734 22.5871C108.735 18.4953 105.852 16.8301 102.308 18.8766Z" fill="#E60F53"/>
<path d="M94.9431 30.549C94.9431 25.8591 98.2467 20.1362 102.309 17.7912C104.34 16.6181 106.182 16.5097 107.516 17.2796L105.821 16.3014C104.487 15.5315 102.645 15.6399 100.615 16.813C96.5535 19.158 93.2486 24.8809 93.2486 29.5708C93.2486 31.9157 94.0745 33.5651 95.4084 34.335L97.1028 35.3132C95.769 34.5433 94.9431 32.8939 94.9431 30.549Z" fill="#FF85AC"/>
<path d="M127.273 30.527C127.395 31.0691 127.465 31.6623 127.465 32.3177C127.465 37.0076 124.162 42.7305 120.099 45.0755C119.533 45.4032 118.983 45.6383 118.452 45.8039C119.427 45.9306 120.568 45.676 121.792 44.9683C125.336 42.923 128.218 37.9298 128.218 33.838C128.219 32.4237 127.87 31.3079 127.273 30.527Z" fill="#FF6D9B"/>
<path d="M121.794 46.0537C119.763 47.2268 117.921 47.3352 116.587 46.5653C115.253 45.7954 114.427 44.146 114.427 41.8011C114.427 37.1112 117.731 31.3883 121.794 29.0433C123.824 27.8715 125.666 27.7618 127 28.5317C128.334 29.3016 129.16 30.951 129.16 33.2959C129.159 37.9858 125.855 43.7087 121.794 46.0537ZM121.794 30.1275C118.25 32.1728 115.368 37.166 115.368 41.2578C115.368 45.3496 118.251 47.0136 121.794 44.9683C125.337 42.923 128.219 37.9298 128.219 33.838C128.219 29.7462 125.337 28.0822 121.794 30.1275Z" fill="#E60F53"/>
<path d="M114.427 41.8011C114.427 37.1112 117.731 31.3883 121.794 29.0433C123.824 27.8702 125.666 27.7618 127 28.5317L125.306 27.5535C123.972 26.7836 122.13 26.8921 120.099 28.0651C116.038 30.4101 112.733 36.133 112.733 40.8229C112.733 43.1679 113.559 44.8172 114.893 45.5871L116.587 46.5653C115.253 45.7942 114.427 44.146 114.427 41.8011Z" fill="#FF85AC"/>
<path d="M146.757 41.7779C146.879 42.32 146.95 42.9132 146.95 43.5674C146.95 48.2573 143.646 53.9802 139.584 56.3252C139.017 56.6528 138.468 56.8879 137.937 57.0536C138.912 57.1803 140.054 56.9257 141.278 56.218C144.822 54.1727 147.704 49.1795 147.704 45.0877C147.705 43.6758 147.354 42.56 146.757 41.7779Z" fill="#FF6D9B"/>
<path d="M141.278 57.3046C139.247 58.4777 137.405 58.5861 136.072 57.8162C134.738 57.0463 133.912 55.3969 133.912 53.052C133.912 48.3621 137.215 42.6392 141.277 40.2942C143.307 39.1224 145.149 39.0127 146.483 39.7826C147.817 40.5525 148.643 42.2019 148.643 44.5468C148.644 49.2367 145.339 54.9596 141.278 57.3046ZM141.278 41.3784C137.734 43.4237 134.852 48.4169 134.852 52.5087C134.852 56.6005 137.736 58.2645 141.279 56.2192C144.823 54.1739 147.705 49.1807 147.705 45.0889C147.705 40.9971 144.822 39.3331 141.278 41.3784Z" fill="#E60F53"/>
<path d="M133.913 53.052C133.913 48.3621 137.217 42.6392 141.279 40.2942C143.31 39.1223 145.152 39.0127 146.486 39.7826L144.791 38.8044C143.457 38.0345 141.615 38.1442 139.586 39.316C135.525 41.661 132.22 47.3839 132.22 52.0738C132.22 54.4187 133.046 56.0681 134.38 56.838L136.074 57.8162C134.739 57.0463 133.913 55.3969 133.913 53.052Z" fill="#FF85AC"/>
<path d="M166.243 53.03C166.365 53.5721 166.436 54.1653 166.436 54.8195C166.436 59.5094 163.132 65.2323 159.069 67.5773C158.503 67.9049 157.953 68.14 157.422 68.3057C158.397 68.4324 159.538 68.1778 160.763 67.4701C164.306 65.4248 167.188 60.4315 167.188 56.3398C167.19 54.9267 166.839 53.8109 166.243 53.03Z" fill="#FF6D9B"/>
<path d="M160.764 68.5555C158.733 69.7285 156.891 69.837 155.557 69.0671C154.224 68.2972 153.398 66.6478 153.398 64.3029C153.398 59.613 156.701 53.8901 160.764 51.5451C162.794 50.3732 164.636 50.2636 165.97 51.0335C167.304 51.8034 168.13 53.4527 168.13 55.7977C168.129 60.4876 164.825 66.2105 160.764 68.5555ZM160.764 52.6293C157.22 54.6746 154.338 59.6678 154.338 63.7596C154.338 67.8514 157.221 69.5154 160.764 67.4701C164.307 65.4248 167.19 60.4316 167.19 56.3398C167.19 52.2492 164.306 50.584 160.764 52.6293Z" fill="#E60F53"/>
<path d="M153.398 64.3029C153.398 59.613 156.701 53.8901 160.764 51.5451C162.794 50.3732 164.636 50.2636 165.97 51.0335L164.276 50.0553C162.942 49.2854 161.1 49.3951 159.069 50.5669C155.008 52.9119 151.703 58.6348 151.704 63.3247C151.704 65.6696 152.53 67.319 153.864 68.0889L155.559 69.0671C154.223 68.2972 153.398 66.6478 153.398 64.3029Z" fill="#FF85AC"/>
</g>
<path d="M45.2945 131.782L45.1436 131.953C45.0906 132.009 45.0358 132.065 44.9827 132.12C44.5466 132.553 44.0558 132.913 43.5318 133.196C42.5153 133.745 41.348 134.014 40.1309 134.014C37.6784 134.014 35.0153 132.919 32.9044 130.809C30.5564 128.461 29.462 125.419 29.7422 122.753C29.8815 121.377 30.3922 120.1 31.2794 119.07C31.3805 118.954 31.485 118.84 31.5944 118.732C32.7684 117.558 34.3238 116.939 36.0019 116.848C37.3998 116.772 38.8822 117.062 40.3033 117.704C41.0163 118.019 41.7111 118.427 42.3761 118.924C42.8271 119.256 43.2599 119.631 43.6727 120.042C43.749 120.118 43.827 120.199 43.9 120.279C44.4588 120.866 44.938 121.491 45.3392 122.141C47.3705 125.421 47.4303 129.303 45.2945 131.782Z" fill="#BABABA"/>
<path d="M51.747 134.74L51.4659 134.76C51.3671 134.767 51.2651 134.773 51.1663 134.779C50.354 134.83 49.4398 134.872 48.4638 134.905C46.5705 134.969 44.3961 135 42.1291 135C37.5612 135 32.6009 134.873 28.6692 134.627C24.2958 134.353 22.2573 133.999 22.7793 133.689C23.0387 133.529 23.99 133.38 25.6424 133.26C25.8308 133.247 26.0254 133.233 26.2292 133.221C28.4159 133.084 31.313 133.012 34.4387 133.001C37.0423 132.992 39.8035 133.026 42.4504 133.101C43.7784 133.138 45.0726 133.185 46.3111 133.243C47.1512 133.282 47.9572 133.325 48.7263 133.373C48.8683 133.382 49.0136 133.391 49.1495 133.401C50.1903 133.469 51.0829 133.542 51.8303 133.618C55.6138 133.999 55.725 134.451 51.747 134.74Z" fill="#BABABA" fill-opacity="0.25"/>
<path d="M43.8567 129.27L43.7489 129.392C43.7108 129.432 43.671 129.474 43.6328 129.513C43.3194 129.825 42.9663 130.084 42.5898 130.288C41.8586 130.683 41.0195 130.877 40.1457 130.877C38.3813 130.877 36.4678 130.091 34.9505 128.573C33.2625 126.885 32.4765 124.698 32.6771 122.781C32.7716 121.844 33.1066 120.972 33.6836 120.252C33.7168 120.213 33.7483 120.173 33.7831 120.133C33.8561 120.05 33.9307 119.967 34.0087 119.889C34.8527 119.045 35.9703 118.601 37.1775 118.535C38.1823 118.48 39.2486 118.687 40.27 119.15C40.7824 119.375 41.2832 119.67 41.7591 120.027C42.0824 120.266 42.3942 120.534 42.691 120.831C42.7457 120.886 42.8021 120.944 42.8552 121.002C43.2564 121.425 43.6013 121.874 43.8899 122.342C45.3491 124.696 45.3922 127.487 43.8567 129.27Z" fill="#E5E5E5"/>
<path d="M59.3262 109.983L43.8569 129.27L33.6821 120.251L49.2593 100.842L59.3262 109.983Z" fill="#E5E5E5"/>
<path d="M41.9632 100.682C38.3201 100.682 33.6092 103.258 31.9758 106.461C33.5461 113.245 41.0379 124.74 50.2442 131.586C56.2834 132.089 59.7789 127.504 60.7954 125.681C58.1124 117.83 52.6404 107.529 41.9632 100.682Z" fill="#ACACAC"/>
<path d="M51.503 119.692L51.3952 119.815C51.367 119.845 51.3372 119.876 51.3073 119.906C50.9657 120.247 50.6142 120.506 50.2361 120.71C49.5049 121.105 48.6658 121.299 47.792 121.299C46.0276 121.299 44.1141 120.513 42.5968 118.994C40.9088 117.306 40.1228 115.12 40.3234 113.203C40.4179 112.265 40.7529 111.393 41.3299 110.675C41.3614 110.635 41.3946 110.595 41.4294 110.555C41.5024 110.472 41.577 110.389 41.655 110.312C42.499 109.468 43.6166 109.023 44.8238 108.957C45.8286 108.902 46.8932 109.109 47.9163 109.572C48.4287 109.798 48.9295 110.093 49.4054 110.449C49.7287 110.688 50.0405 110.957 50.3373 111.253C50.392 111.308 50.4484 111.366 50.5015 111.424C50.9027 111.847 51.2476 112.296 51.5362 112.764C52.9954 115.119 53.0385 117.911 51.503 119.692Z" fill="#848484"/>
<path d="M48.2545 116.745C48.0638 116.943 47.9394 117.034 47.8051 117.107C47.5448 117.246 47.248 117.316 46.9379 117.316C46.3111 117.316 45.6313 117.037 45.0923 116.498C44.4921 115.9 44.2135 115.122 44.2848 114.442C44.318 114.109 44.4373 113.799 44.6413 113.543C44.7027 113.472 44.7292 113.442 44.7574 113.414C44.832 113.339 44.9133 113.273 44.9995 113.215C45.2582 113.043 45.5616 112.95 45.8833 112.933C46.2398 112.913 46.6179 112.988 46.981 113.152C47.1634 113.232 47.3409 113.336 47.51 113.464C47.6244 113.548 47.7355 113.645 47.8416 113.749C47.8615 113.769 47.8814 113.789 47.8997 113.809C48.0423 113.958 48.165 114.119 48.2678 114.285C48.7852 115.122 48.8 116.112 48.2545 116.745Z" fill="#484848"/>
<path d="M59.7905 103.312L48.145 116.837L44.6777 113.5L56.3232 99.9776L59.7905 103.312Z" fill="#484848"/>
<path d="M62.0954 107.307L61.9876 107.43C61.9595 107.459 61.9296 107.491 61.8997 107.521C61.5582 107.862 61.2066 108.121 60.8285 108.323C60.0973 108.718 59.2582 108.912 58.3844 108.912C56.62 108.912 54.7065 108.126 53.1892 106.609C51.5012 104.921 50.7152 102.735 50.9158 100.817C51.0103 99.8798 51.3453 99.0076 51.9223 98.2879C51.9538 98.2481 51.987 98.2083 52.0218 98.1685C52.0948 98.0856 52.1694 98.0027 52.2474 97.9248C53.0914 97.0807 54.209 96.6363 55.4162 96.57C56.421 96.5153 57.4873 96.7226 58.5087 97.1852C59.0211 97.4107 59.5219 97.7059 59.9978 98.0624C60.3211 98.3012 60.6329 98.5698 60.9297 98.8666C60.9844 98.9213 61.0408 98.9794 61.0922 99.0374C61.4935 99.4602 61.8384 99.9096 62.127 100.377C63.5878 102.734 63.6309 105.526 62.0954 107.307Z" fill="#3886E0"/>
<path opacity="0.5" d="M76.0076 91.1659L68.088 100.356L66.7383 101.923L63.5711 105.596L62.7752 106.518C62.4983 106.761 62.2296 106.945 61.9461 107.096C61.2148 107.491 60.3724 107.688 59.4903 107.688C57.7193 107.688 55.7975 106.899 54.2769 105.378C52.5855 103.68 51.7946 101.488 51.9919 99.5597C52.0914 98.6377 52.4197 97.7689 52.9852 97.0525C53.0051 97.026 53.2156 96.7822 53.2156 96.7822C53.2422 96.7557 63.8729 84.4203 63.8729 84.4203L66.0186 81.9247C65.3935 82.6626 65.032 83.5697 64.9325 84.5513C64.7352 86.4666 65.5178 88.6521 67.2109 90.3434C68.7248 91.8574 70.6401 92.6467 72.4044 92.6467C73.2799 92.6467 74.1156 92.456 74.8469 92.0613C75.2217 91.8574 75.5781 91.5937 75.8932 91.2853C75.9297 91.2455 75.9678 91.2057 76.0076 91.1659Z" fill="#75ADFF"/>
<path d="M63.1749 106.048L63.0671 106.171C63.0389 106.201 63.009 106.232 62.9792 106.262C62.6376 106.604 62.2861 106.862 61.908 107.065C61.1767 107.459 60.3377 107.653 59.4638 107.653C57.6995 107.653 55.7859 106.867 54.2687 105.35C52.5806 103.662 51.793 101.477 51.9953 99.5597C52.0898 98.6229 52.4247 97.749 53.0018 97.031C53.035 96.9912 53.0665 96.9514 53.1013 96.9116C53.1742 96.8287 53.2489 96.7458 53.3268 96.6678C54.1709 95.8238 55.2884 95.3794 56.4956 95.3131C57.5005 95.2584 58.5667 95.4656 59.5882 95.9283C60.1006 96.1538 60.6013 96.449 61.0772 96.8055C61.4022 97.0443 61.7123 97.3129 62.0092 97.6097C62.0639 97.6644 62.1203 97.7225 62.1733 97.7805C62.5746 98.2033 62.9195 98.6527 63.208 99.1203C64.6672 101.475 64.7104 104.267 63.1749 106.048Z" fill="#F3F3F3"/>
<path d="M48.1533 103.961C48.2329 103.186 48.4733 102.468 48.8547 101.848L48.2727 102.525C48.2329 102.603 48.1881 102.695 48.1483 102.778C48.0272 103.146 47.9443 103.533 47.9045 103.934C47.7138 105.755 48.3589 107.733 49.6771 109.358L49.8728 109.201C48.5944 107.625 47.9692 105.717 48.1533 103.961ZM50.7036 100.855C50.6124 101.732 50.7251 102.682 51.0302 103.602L51.1496 103.563C50.8495 102.659 50.7384 101.727 50.8296 100.868C50.8943 100.225 51.0684 99.6244 51.347 99.0822C51.4183 98.9429 51.4995 98.8102 51.5841 98.6809L51.1762 99.1535C50.9258 99.6758 50.765 100.246 50.7036 100.855ZM49.3422 102.445C49.251 103.321 49.3621 104.267 49.6656 105.186L49.7849 105.146C49.4865 104.244 49.377 103.316 49.4666 102.458C49.5511 101.631 49.8198 100.875 50.2443 100.235L49.8181 100.729C49.5677 101.251 49.4035 101.828 49.3422 102.445ZM52.3236 98.5167C52.4148 98.1569 52.5426 97.812 52.7067 97.4936C52.773 97.3659 52.8476 97.2432 52.9256 97.1238L52.5193 97.5948C52.3867 97.8767 52.2789 98.1751 52.2009 98.4869C52.1363 98.7439 52.0899 99.0059 52.0633 99.2662C51.9705 100.147 52.0849 101.099 52.3917 102.021L52.511 101.981C52.2092 101.075 52.0981 100.142 52.1877 99.2795C52.2159 99.0241 52.2606 98.7671 52.3236 98.5167Z" fill="#343089"/>
<path d="M53.6153 97.623C53.6949 96.8486 53.9353 96.1306 54.3167 95.5104L53.7347 96.187C53.6949 96.2649 53.6501 96.3578 53.6103 96.4407C53.4893 96.8088 53.4064 97.1952 53.3649 97.5964C53.1742 99.4171 53.8193 101.395 55.1375 103.02L55.3332 102.863C54.0581 101.289 53.4312 99.3807 53.6153 97.623ZM56.1657 94.5188C56.0745 95.396 56.1872 96.3462 56.4923 97.2665L56.6117 97.2267C56.3115 96.3229 56.2005 95.391 56.2917 94.5321C56.3563 93.8887 56.5305 93.2868 56.809 92.7462C56.8803 92.6069 56.9616 92.4742 57.0461 92.3449L56.6382 92.8175C56.3895 93.3398 56.227 93.9103 56.1657 94.5188ZM54.8042 96.109C54.713 96.9846 54.8242 97.9314 55.1276 98.85L55.247 98.8102C54.9485 97.9082 54.8391 96.9796 54.9286 96.1223C55.0132 95.2948 55.2818 94.5387 55.7063 93.8986L55.2801 94.3928C55.0314 94.9135 54.8673 95.4922 54.8042 96.109ZM57.7857 92.1791C57.8769 91.8192 58.0062 91.4744 58.1704 91.156C58.2367 91.0283 58.3113 90.9056 58.3893 90.7862L57.983 91.2571C57.8504 91.539 57.7426 91.8375 57.6647 92.1492C57.6 92.4063 57.5535 92.6683 57.527 92.9286C57.4342 93.8091 57.5486 94.7609 57.8553 95.6829L57.9747 95.6431C57.6729 94.7377 57.5619 93.8041 57.6514 92.9419C57.6779 92.6882 57.7227 92.4311 57.7857 92.1791Z" fill="#343089"/>
<path d="M59.0776 91.287C59.1572 90.5126 59.3976 89.7946 59.779 89.1744L59.1969 89.851C59.1571 89.9289 59.1124 90.0218 59.0726 90.1047C58.9516 90.4728 58.8686 90.8591 58.8288 91.2604C58.6381 93.0828 59.2832 95.0594 60.6015 96.6844L60.7971 96.5269C59.5203 94.9533 58.8935 93.043 59.0776 91.287ZM61.6279 88.1828C61.5367 89.06 61.6495 90.0102 61.9546 90.9305L62.0739 90.8907C61.7738 89.9869 61.6627 89.055 61.7539 88.1961C61.8186 87.5527 61.9927 86.9524 62.2712 86.4102C62.3425 86.2709 62.4238 86.1382 62.5084 86.0089L62.1005 86.4815C61.8517 87.0038 61.6909 87.5726 61.6279 88.1828ZM60.2665 89.7714C60.1753 90.6469 60.2864 91.5937 60.5899 92.5124L60.7092 92.4726C60.4108 91.5705 60.3013 90.6419 60.3908 89.7846C60.4754 88.9572 60.7441 88.2011 61.1686 87.561L60.7424 88.0551C60.4937 88.5775 60.3295 89.1562 60.2665 89.7714ZM63.2496 85.8431C63.3408 85.4832 63.4702 85.1384 63.6343 84.82C63.7007 84.6923 63.7753 84.5696 63.8532 84.4502L63.4469 84.9211C63.3143 85.203 63.2065 85.5015 63.1285 85.8132C63.0639 86.0703 63.0175 86.3323 62.9909 86.5926C62.8981 87.4731 63.0125 88.4249 63.3193 89.3469L63.4386 89.3071C63.1368 88.4017 63.0257 87.4681 63.1153 86.6059C63.1401 86.3522 63.1866 86.0951 63.2496 85.8431Z" fill="#343089"/>
<path d="M76.0491 91.1178C76.0408 91.1261 75.933 91.2488 75.933 91.2488C75.8949 91.2886 75.8551 91.3284 75.8169 91.3699C75.5035 91.6816 75.152 91.9403 74.7739 92.1443C74.0427 92.5389 73.2036 92.7329 72.3297 92.7329C70.5654 92.7329 68.6519 91.9469 67.1346 90.4297C65.4465 88.7416 64.6606 86.5561 64.8612 84.6392C64.9607 83.6526 65.3255 82.7389 65.9606 81.9994C66.0402 81.9082 66.1148 81.8253 66.1927 81.7473C67.0368 80.9033 68.1544 80.4589 69.3615 80.3926C70.3664 80.3379 71.4327 80.5451 72.4541 81.0078C72.9665 81.2333 73.4672 81.5285 73.9432 81.885C74.2682 82.1237 74.5783 82.3924 74.8751 82.6892C74.9298 82.7439 74.9862 82.8019 75.0376 82.86C75.4389 83.2828 75.7837 83.7322 76.0723 84.1998C77.5315 86.5511 77.5763 89.3369 76.0491 91.1178Z" fill="#F4F4F4"/>
<path d="M74.0361 86.7584C73.988 86.8247 73.9349 86.8878 73.8752 86.9458C73.1174 87.7036 71.7362 87.5544 70.7943 86.6108C69.9237 85.7403 69.7297 84.4999 70.3002 83.7173C70.3482 83.6509 70.4013 83.5896 70.461 83.5299C71.2204 82.7721 72.6001 82.9213 73.5419 83.8649C74.4108 84.7354 74.6048 85.9757 74.0361 86.7584Z" fill="#DADADA"/>
<path d="M74.943 85.5147L74.036 86.7584L70.2984 83.7189L71.2054 82.4736L74.943 85.5147Z" fill="#DADADA"/>
<path d="M74.943 85.5147C74.9182 85.5479 74.8933 85.5811 74.8668 85.6126C74.8403 85.6441 74.8121 85.6739 74.7822 85.7038C74.0244 86.4632 72.6448 86.3123 71.7013 85.3688C70.8307 84.4983 70.6367 83.2579 71.2071 82.4753C71.232 82.4421 71.2569 82.4089 71.2834 82.3774C71.3099 82.3459 71.3381 82.3161 71.3663 82.2862C71.9799 81.6727 73.0013 81.6528 73.8686 82.1685C74.0725 82.2896 74.2682 82.4404 74.4489 82.6212C75.3178 83.4901 75.5118 84.7304 74.943 85.5147Z" fill="#7C7C7C"/>
<path d="M77.4718 82.5648L76.0756 84.1981L74.895 85.5827C74.8668 85.6109 74.2665 85.0704 74.2665 85.0704L73.1008 84.0174C73.0875 84.0041 72.0627 83.0805 72.0627 83.0805L71.2834 82.3774L72.4541 81.0077L73.8884 79.3297L74.4921 79.8752L74.9464 80.2848L76.9279 82.0756L77.0307 82.1685L77.4718 82.5648Z" fill="#7C7C7C"/>
<path d="M77.4719 82.5648C77.447 82.5947 77.4188 82.6245 77.389 82.6544C76.8119 83.2331 75.8717 83.2828 75.0393 82.8583C74.9896 82.8301 74.9365 82.8036 74.8867 82.7721C74.6828 82.651 74.4871 82.5001 74.3063 82.3194C74.1687 82.1818 74.0477 82.0359 73.9449 81.8816C73.3695 81.0277 73.3297 79.9847 73.8902 79.3263C73.9184 79.2965 73.9449 79.2666 73.9731 79.2351C74.25 78.9582 74.6082 78.8024 74.9979 78.7626C75.0824 78.7526 75.1687 78.7493 75.2565 78.7493C75.8717 78.7642 76.53 79.0428 77.0557 79.5684C77.1054 79.6182 77.1519 79.6696 77.1933 79.721C77.5731 80.1505 77.7969 80.6529 77.8566 81.1437C77.8616 81.1819 77.8665 81.2217 77.8682 81.2598C77.9013 81.7506 77.7737 82.2133 77.4719 82.5648Z" fill="#ADADAD"/>
<path d="M77.3823 81.7357C77.3558 81.7672 77.3293 81.7987 77.2994 81.8286C76.7439 82.3841 75.7357 82.2746 75.0459 81.5848C74.3926 80.9315 74.2599 79.9929 74.7192 79.4242C74.7458 79.3927 74.7723 79.3612 74.8021 79.3313C75.3576 78.7758 76.3658 78.8852 77.0556 79.5751C77.7073 80.2267 77.84 81.1653 77.3823 81.7357Z" fill="#7C7C7C"/>
<path d="M79.863 78.6581C79.8232 78.7062 77.8549 81.1487 77.8549 81.1487L77.3806 81.7374L74.9514 79.6265L74.7176 79.4225L74.9713 79.1091L75.2549 78.7543L77.1966 76.3449L79.863 78.6581Z" fill="#7C7C7C"/>
<path d="M79.8631 78.6581C79.2247 79.3031 78.2148 79.1954 77.5267 78.5056C76.8733 77.8522 76.7407 76.912 77.1984 76.3449C77.2265 76.3117 77.2531 76.2819 77.2812 76.252C77.7356 75.7977 78.4918 75.7894 79.1302 76.1791C79.2943 76.2803 79.4187 76.3797 79.5348 76.4958C79.6226 76.5837 79.7006 76.6765 79.7653 76.7727C80.213 77.4111 80.2561 78.1706 79.8631 78.6581Z" fill="#D5D5D5"/>
<path d="M79.7103 76.8805C79.5511 77.0413 79.2941 77.0132 79.12 76.8391C78.9525 76.6716 78.9193 76.4311 79.0387 76.2869C79.1979 76.126 79.4533 76.1526 79.6291 76.3283C79.7966 76.4958 79.8297 76.7362 79.7103 76.8805Z" fill="#E4E4E4"/>
<path d="M91.6993 60.9999L91.099 63.1274L88.6217 66.1171L85.3965 70.0122L84.1279 71.5477L83.7963 71.9473L79.7818 76.7943L79.7122 76.8788L79.0406 76.2868C79.0588 76.2669 79.1318 76.1791 79.1318 76.1791L80.5446 74.4728L81.4483 73.38L83.4183 71.0005L87.9086 65.5815L91.6993 60.9999Z" fill="#E4E4E4"/>
</svg>
