<svg width="209" height="186" viewBox="0 0 209 186" fill="none" xmlns="http://www.w3.org/2000/svg">
<path opacity="0.15" d="M207.709 142.669L82.5909 70.4241C78.5808 68.1084 73.6375 68.112 69.6309 70.4351L5.22698 107.761C3.58977 108.71 3.59102 111.074 5.23066 112.021L130.349 184.266C134.359 186.582 139.301 186.578 143.309 184.256L207.713 146.93C209.35 145.98 209.347 143.616 207.709 142.669Z" fill="#F0306D"/>
<path d="M171.867 78.4176L171.441 79.7357L159.331 117.184L158.974 118.275L137.761 183.827H136.71L158.092 117.759L158.439 116.668L170.796 78.4871L171.223 77.1678L171.857 78.4067L171.867 78.4176Z" fill="#FF85AC"/>
<path d="M41.3258 2.16345L6.81421 108.824L136.711 183.828L158.441 116.669L171.224 77.1678L41.3258 2.16345Z" fill="#F0306D"/>
<path d="M50.819 14.5448L19.7413 109.604L131.624 174.206L150.34 116.361L162.701 79.1473L50.819 14.5448Z" fill="#FF5289"/>
<path d="M50.0356 13.2231L18.958 108.281L130.84 172.883L149.555 115.038L161.917 77.8256L50.0356 13.2231Z" fill="#FF9DBC"/>
<path d="M49.2914 11.5701L18.2137 106.629L130.097 171.23L148.811 113.385L161.173 76.1726L49.2914 11.5701Z" fill="white"/>
<path d="M59.6079 43.8695C56.5211 42.0862 54.9765 41.1957 51.8897 39.4123C51.2514 39.0432 50.9505 38.0772 51.2161 37.2537C51.4828 36.4303 52.2162 36.0611 52.8545 36.4303C55.9413 38.2124 57.4859 39.1041 60.5727 40.8875C61.211 41.2566 61.5119 42.2226 61.2463 43.0461C60.9796 43.8695 60.2462 44.2374 59.6079 43.8695Z" fill="#FFDDE8"/>
<path d="M73.6192 51.9593C70.5312 50.1759 68.9878 49.2855 65.9009 47.5021C65.2626 47.1342 64.9617 46.167 65.2273 45.3435C65.4941 44.52 66.2274 44.1509 66.8657 44.52C69.9525 46.3022 71.4971 47.1939 74.584 48.9773C75.2223 49.3464 75.5232 50.3124 75.2576 51.1358C74.9908 51.9593 74.2575 52.3284 73.6192 51.9593Z" fill="#FFDDE8"/>
<path d="M87.6292 60.0503C84.5412 58.2669 82.9978 57.3765 79.911 55.5931C79.2727 55.224 78.9705 54.258 79.2373 53.4345C79.5041 52.611 80.2374 52.2419 80.8757 52.611C83.9638 54.3944 85.5072 55.2849 88.594 57.0683C89.2323 57.4374 89.5344 58.4034 89.2676 59.2269C89.0021 60.0491 88.2675 60.4182 87.6292 60.0503Z" fill="#FFDDE8"/>
<path d="M101.64 68.1401C98.5524 66.3567 97.009 65.4662 93.9209 63.6829C93.2826 63.3138 92.9818 62.3478 93.2473 61.5243C93.5141 60.7008 94.2474 60.3317 94.8857 60.7008C97.9738 62.483 99.5171 63.3747 102.605 65.1581C103.243 65.5272 103.544 66.4932 103.279 67.3166C103.012 68.1401 102.279 68.5092 101.64 68.1401Z" fill="#FFDDE8"/>
<path d="M115.652 76.2311C112.564 74.4489 111.02 73.5573 107.932 71.7739C107.294 71.4048 106.993 70.4388 107.259 69.6153C107.525 68.7918 108.259 68.4227 108.897 68.7918C111.985 70.5752 113.528 71.4657 116.616 73.2491C117.255 73.6182 117.556 74.5842 117.29 75.4076C117.023 76.2299 116.29 76.599 115.652 76.2311Z" fill="#FFDDE8"/>
<path d="M129.663 84.3209C126.575 82.5375 125.031 81.647 121.945 79.8637C121.306 79.4946 121.004 78.5286 121.271 77.7051C121.538 76.8816 122.271 76.5125 122.909 76.8816C125.997 78.665 127.541 79.5555 130.628 81.3388C131.266 81.7079 131.567 82.6739 131.301 83.4974C131.035 84.3209 130.301 84.6888 129.663 84.3209Z" fill="#FFDDE8"/>
<path d="M143.673 92.4107C140.586 90.6285 139.041 89.7368 135.955 87.9534C135.316 87.5843 135.015 86.6183 135.281 85.7949C135.548 84.9714 136.281 84.6023 136.919 84.9714C140.006 86.7548 141.551 87.6452 144.638 89.4286C145.276 89.7977 145.577 90.7637 145.311 91.5872C145.045 92.4107 144.311 92.7798 143.673 92.4107Z" fill="#FFDDE8"/>
<path d="M99.343 86.7791C93.7383 83.5437 90.9365 81.9248 85.3318 78.6893C85.1271 78.5712 85.0309 78.2618 85.1161 77.9986C86.6912 73.1309 87.4794 70.697 89.0545 65.8292C89.1397 65.5649 89.3748 65.448 89.5783 65.5661C95.183 68.8028 97.9848 70.4205 103.59 73.6571C103.794 73.7753 103.89 74.0847 103.805 74.3478C102.23 79.2156 101.442 81.6495 99.8668 86.5172C99.7816 86.7791 99.5477 86.8973 99.343 86.7791ZM86.0103 77.9487C91.319 81.0136 93.9734 82.546 99.2821 85.6121C100.733 81.1257 101.459 78.883 102.911 74.3978C97.6023 71.3329 94.9479 69.7992 89.6392 66.7343C88.1884 71.2196 87.4623 73.4622 86.0103 77.9487Z" fill="#FFDDE8"/>
<path d="M113.354 94.8701C107.749 91.6347 104.948 90.0158 99.343 86.7803C99.1383 86.6622 99.0421 86.354 99.1274 86.0896C100.702 81.2219 101.491 78.788 103.066 73.9202C103.151 73.6571 103.386 73.539 103.589 73.6571C109.194 76.8938 111.996 78.5115 117.601 81.7469C117.805 81.8651 117.902 82.1745 117.816 82.4376C116.241 87.3054 115.453 89.7392 113.878 94.607C113.793 94.8701 113.559 94.987 113.354 94.8701ZM100.021 86.0385C105.33 89.1033 107.985 90.637 113.293 93.7019C114.744 89.2166 115.47 86.9728 116.922 82.4875C111.613 79.4227 108.959 77.8902 103.65 74.8241C102.2 79.3094 101.474 81.5532 100.021 86.0385Z" fill="#FFDDE8"/>
<path d="M127.364 102.96C121.761 99.7233 118.958 98.1056 113.354 94.8701C113.15 94.752 113.053 94.4426 113.139 94.1794C114.714 89.3117 115.502 86.8778 117.077 82.0101C117.162 81.7457 117.396 81.6288 117.601 81.7469C123.205 84.9836 126.007 86.6013 131.611 89.8367C131.815 89.9549 131.912 90.2643 131.826 90.5274C130.251 95.3952 129.463 97.829 127.888 102.697C127.804 102.96 127.569 103.078 127.364 102.96ZM114.033 94.1283C119.341 97.1932 121.996 98.7256 127.303 101.79C128.755 97.3052 129.481 95.0614 130.932 90.5761C125.623 87.5113 122.97 85.9788 117.662 82.9127C116.21 87.4004 115.484 89.643 114.033 94.1283Z" fill="#FFDDE8"/>
<path d="M141.374 111.05C135.771 107.814 132.969 106.197 127.364 102.96C127.16 102.842 127.063 102.532 127.149 102.269C128.724 97.4014 129.512 94.9676 131.087 90.0998C131.172 89.8367 131.407 89.7185 131.612 89.8367C137.215 93.0721 140.018 94.691 145.622 97.9265C145.827 98.0446 145.923 98.354 145.838 98.6172C144.263 103.485 143.474 105.919 141.899 110.787C141.813 111.05 141.579 111.168 141.374 111.05ZM128.043 102.219C133.351 105.284 136.005 106.817 141.313 109.881C142.764 105.396 143.491 103.154 144.942 98.6671C139.635 95.6022 136.98 94.0698 131.672 91.0049C130.221 95.4902 129.495 97.7328 128.043 102.219Z" fill="#FFDDE8"/>
<path d="M53.3721 74.6792C47.7686 71.4437 44.9656 69.8248 39.362 66.5894C39.1574 66.4712 39.0612 66.1618 39.1464 65.8987C40.7215 61.0309 41.5097 58.5971 43.0847 53.7281C43.17 53.465 43.4051 53.3468 43.6085 53.4649C49.212 56.7004 52.0138 58.3181 57.6186 61.5547C57.8232 61.6729 57.9194 61.9823 57.8342 62.2454C56.2591 67.1132 55.471 69.5471 53.8959 74.416C53.8118 74.6792 53.5767 74.7973 53.3721 74.6792ZM40.0418 65.8487C45.3493 68.9136 48.0036 70.4461 53.3124 73.5109C54.7644 69.0245 55.4904 66.7818 56.9413 62.2954C51.6338 59.2305 48.9794 57.698 43.6707 54.6332C42.2186 59.1196 41.4926 61.3623 40.0418 65.8487Z" fill="#FFDDE8"/>
<path d="M67.3834 82.769C61.7787 79.5323 58.9769 77.9146 53.3722 74.6792C53.1675 74.561 53.0713 74.2516 53.1566 73.9885C54.7316 69.1207 55.5198 66.6868 57.0949 61.8179C57.1801 61.5535 57.4152 61.4366 57.6187 61.5547C63.2222 64.7902 66.0252 66.4091 71.6287 69.6445C71.8333 69.7627 71.9296 70.0721 71.8443 70.3352C70.2692 75.203 69.4823 77.6368 67.906 82.5046C67.822 82.7689 67.588 82.8871 67.3834 82.769ZM54.0519 73.9385C59.3606 77.0034 62.0138 78.5359 67.3225 81.6007C68.7745 77.1143 69.4994 74.8716 70.9514 70.3852C65.6427 67.3203 62.9883 65.7878 57.6808 62.7229C56.2287 67.2082 55.5027 69.4521 54.0519 73.9385Z" fill="#FFDDE8"/>
<path d="M81.3946 90.8587C75.7899 87.6221 72.9881 86.0044 67.3834 82.769C67.1787 82.6508 67.0825 82.3414 67.1678 82.0783C68.7429 77.2105 69.5298 74.7766 71.1049 69.9089C71.1901 69.6445 71.424 69.5276 71.6287 69.6445C77.2322 72.8812 80.0352 74.4989 85.6399 77.7343C85.8445 77.8525 85.9408 78.1619 85.8555 78.425C84.2804 83.2928 83.4935 85.7266 81.9184 90.5944C81.8332 90.8587 81.5993 90.9769 81.3946 90.8587ZM68.0619 82.0283C73.3706 85.0932 76.025 86.6256 81.3337 89.6917C82.7846 85.2053 83.5118 82.9626 84.9626 78.4762C79.6539 75.4113 76.9995 73.8788 71.6908 70.8127C70.2387 75.298 69.5139 77.5418 68.0619 82.0283Z" fill="#FFDDE8"/>
<path d="M95.4059 98.9497C89.8012 95.7131 86.9994 94.0954 81.3946 90.86C81.19 90.7418 81.0937 90.4324 81.179 90.1693C82.7541 85.3015 83.5422 82.8676 85.1161 77.9999C85.2014 77.7367 85.4365 77.6186 85.6399 77.7367C91.2446 80.9734 94.0464 82.5911 99.6512 85.8265C99.8558 85.9447 99.952 86.2541 99.8668 86.5172C98.2917 91.385 97.5048 93.8189 95.9285 98.6866C95.8444 98.9497 95.6093 99.0667 95.4059 98.9497ZM82.0732 90.1181C87.3819 93.183 90.0362 94.7154 95.345 97.7815C96.7958 93.295 97.5218 91.0524 98.9739 86.5659C93.6651 83.5011 91.0108 81.9674 85.702 78.9025C84.25 83.389 83.5252 85.6316 82.0732 90.1181Z" fill="#FFDDE8"/>
<path d="M109.416 107.04C103.812 103.804 101.009 102.185 95.4046 98.9497C95.2 98.8316 95.1038 98.5222 95.189 98.259C96.7641 93.3913 97.5522 90.9574 99.1261 86.0897C99.2114 85.8253 99.4465 85.7084 99.6499 85.8265C105.255 89.0632 108.056 90.6809 113.661 93.9163C113.866 94.0345 113.962 94.3427 113.877 94.607C112.302 99.4748 111.515 101.909 109.94 106.776C109.856 107.04 109.621 107.158 109.416 107.04ZM96.0844 98.2079C101.393 101.273 104.047 102.805 109.356 105.871C110.808 101.385 111.533 99.1422 112.985 94.6569C107.676 91.5921 105.022 90.0584 99.7132 86.9935C98.2612 91.4788 97.5352 93.7226 96.0844 98.2079Z" fill="#FFDDE8"/>
<path d="M123.427 115.129C117.824 111.894 115.021 110.275 109.416 107.04C109.211 106.921 109.115 106.613 109.2 106.349C110.775 101.481 111.564 99.0472 113.137 94.1794C113.223 93.9151 113.458 93.7982 113.661 93.9163C119.266 97.1517 122.068 98.7707 127.671 102.006C127.876 102.124 127.972 102.434 127.887 102.697C126.312 107.565 125.525 109.998 123.95 114.866C123.866 115.129 123.632 115.247 123.427 115.129ZM110.096 106.298C115.404 109.363 118.058 110.895 123.366 113.96C124.817 109.473 125.543 107.231 126.995 102.746C121.686 99.6806 119.032 98.1482 113.725 95.0833C112.273 99.5686 111.547 101.812 110.096 106.298Z" fill="#FFDDE8"/>
<path d="M137.437 123.219C131.834 119.984 129.031 118.366 123.427 115.129C123.222 115.011 123.126 114.703 123.211 114.439C124.787 109.571 125.573 107.137 127.149 102.269C127.234 102.006 127.469 101.888 127.672 102.006C133.276 105.242 136.079 106.86 141.682 110.096C141.887 110.214 141.983 110.522 141.898 110.787C140.323 115.654 139.536 118.088 137.961 122.956C137.876 123.219 137.642 123.336 137.437 123.219ZM124.106 114.389C129.414 117.454 132.067 118.986 137.376 122.051C138.827 117.564 139.553 115.322 141.005 110.837C135.698 107.772 133.043 106.239 127.736 103.174C126.282 107.66 125.556 109.902 124.106 114.389Z" fill="#FFDDE8"/>
<path d="M49.4351 86.8486C43.8315 83.6131 41.0286 81.9942 35.425 78.7588C35.2204 78.6406 35.1241 78.3312 35.2094 78.0681C36.7845 73.2003 37.5726 70.7664 39.1477 65.8975C39.233 65.6343 39.4681 65.5162 39.6715 65.6344C45.275 68.8698 48.078 70.4875 53.6816 73.7241C53.8862 73.8423 53.9824 74.1517 53.8972 74.4148C52.3221 79.2826 51.5352 81.7165 49.9601 86.5854C49.8736 86.8486 49.6397 86.9667 49.4351 86.8486ZM36.1035 78.0181C41.4111 81.083 44.0654 82.6155 49.3741 85.6804C50.8262 81.1939 51.551 78.9512 53.003 74.4648C47.6943 71.3999 45.0412 69.8675 39.7324 66.8026C38.2804 71.289 37.5556 73.5329 36.1035 78.0181Z" fill="#FFDDE8"/>
<path d="M63.4451 94.9383C57.8415 91.7029 55.0386 90.084 49.435 86.8486C49.2304 86.7304 49.1341 86.421 49.2194 86.1579C50.7945 81.2901 51.5814 78.8562 53.1565 73.9873C53.2418 73.7229 53.4769 73.606 53.6803 73.7241C59.2838 76.9596 62.0868 78.5785 67.6916 81.8139C67.8962 81.9321 67.9924 82.2403 67.9072 82.5046C66.3321 87.3724 65.5439 89.8063 63.9689 94.6752C63.8848 94.9384 63.6497 95.0565 63.4451 94.9383ZM50.1136 86.1079C55.4223 89.1728 58.0766 90.7052 63.3841 93.7701C64.8362 89.2837 65.561 87.041 67.013 82.5546C61.7043 79.4897 59.0499 77.9572 53.7424 74.8924C52.2904 79.3788 51.5656 81.6215 50.1136 86.1079Z" fill="#FFDDE8"/>
<path d="M77.4563 103.029C71.8515 99.7927 69.0498 98.175 63.445 94.9396C63.2404 94.8214 63.1442 94.5132 63.2294 94.2489C64.8045 89.3811 65.5927 86.9472 67.1677 82.0783C67.253 81.8151 67.4869 81.697 67.6915 81.8151C73.2951 85.0506 76.098 86.6695 81.7028 89.9049C81.9074 90.0231 82.0036 90.3325 81.9184 90.5956C80.3433 95.4634 79.5564 97.8972 77.9813 102.765C77.896 103.029 77.6609 103.148 77.4563 103.029ZM64.1248 94.1977C69.4335 97.2626 72.0878 98.795 77.3966 101.861C78.8474 97.3747 79.5734 95.132 81.0255 90.6456C75.7167 87.5807 73.0624 86.0482 67.7537 82.9821C66.3016 87.4686 65.5756 89.7112 64.1248 94.1977Z" fill="#FFDDE8"/>
<path d="M91.4677 111.119C85.8629 107.884 83.0611 106.265 77.4564 103.029C77.2517 102.911 77.1555 102.602 77.2408 102.339C78.8159 97.4709 79.604 95.037 81.1791 90.168C81.2644 89.9049 81.4995 89.7868 81.7029 89.9049C87.3076 93.1416 90.1094 94.7593 95.7142 97.9947C95.9188 98.1129 96.015 98.4211 95.9298 98.6854C94.3547 103.553 93.5678 105.987 91.9927 110.856C91.9062 111.119 91.6723 111.237 91.4677 111.119ZM78.1349 102.289C83.4437 105.354 86.098 106.886 91.4067 109.952C92.8576 105.466 93.5836 103.223 95.0356 98.7366C89.7269 95.6717 87.0725 94.1392 81.7638 91.0731C80.313 95.5584 79.587 97.8022 78.1349 102.289Z" fill="#FFDDE8"/>
<path d="M105.479 119.209C99.8741 115.973 97.0724 114.355 91.4676 111.119C91.263 111.001 91.1667 110.693 91.252 110.428C92.8271 105.561 93.6152 103.127 95.1891 98.2578C95.2744 97.9935 95.5095 97.8765 95.7129 97.9947C101.318 101.23 104.119 102.849 109.724 106.084C109.929 106.203 110.025 106.511 109.94 106.775C108.365 111.643 107.578 114.077 106.003 118.946C105.917 119.209 105.684 119.327 105.479 119.209ZM92.1461 110.378C97.4548 113.443 100.109 114.976 105.418 118.042C106.87 113.555 107.596 111.313 109.047 106.826C103.738 103.761 101.084 102.229 95.775 99.1629C94.3242 103.648 93.5982 105.892 92.1461 110.378Z" fill="#FFDDE8"/>
<path d="M119.489 127.299C113.884 124.063 111.082 122.444 105.479 119.209C105.274 119.091 105.178 118.783 105.263 118.518C106.838 113.65 107.626 111.217 109.2 106.348C109.286 106.083 109.521 105.966 109.724 106.084C115.329 109.32 118.131 110.939 123.734 114.174C123.939 114.292 124.035 114.602 123.95 114.865C122.375 119.733 121.587 122.167 120.011 127.036C119.929 127.3 119.694 127.417 119.489 127.299ZM106.157 118.468C111.466 121.533 114.12 123.066 119.428 126.13C120.879 121.644 121.605 119.401 123.057 114.915C117.748 111.85 115.095 110.318 109.786 107.253C108.334 111.739 107.609 113.982 106.157 118.468Z" fill="#FFDDE8"/>
<path d="M133.499 135.388C127.895 132.153 125.094 130.535 119.489 127.299C119.284 127.181 119.188 126.871 119.273 126.608C120.848 121.74 121.635 119.306 123.212 114.437C123.297 114.173 123.531 114.056 123.735 114.173C129.339 117.408 132.142 119.027 137.745 122.263C137.95 122.381 138.046 122.69 137.961 122.954C136.386 127.821 135.599 130.255 134.024 135.124C133.939 135.388 133.704 135.507 133.499 135.388ZM120.169 126.558C125.477 129.623 128.13 131.155 133.439 134.22C134.891 129.734 135.616 127.491 137.068 123.005C131.761 119.94 129.106 118.407 123.797 115.342C122.345 119.829 121.619 122.072 120.169 126.558Z" fill="#FFDDE8"/>
<path d="M45.4968 99.0192C39.8933 95.7837 37.0903 94.1648 31.4868 90.9294C31.2821 90.8112 31.1859 90.5018 31.2712 90.2387C32.8463 85.3709 33.6344 82.937 35.2095 78.0693C35.2948 77.8062 35.5298 77.688 35.7333 77.8062C41.3368 81.0416 44.1398 82.6593 49.7433 85.896C49.948 86.0141 50.0442 86.3223 49.9589 86.5866C48.3839 91.4544 47.5957 93.8883 46.0206 98.756C45.9366 99.0192 45.7015 99.1373 45.4968 99.0192ZM32.1653 90.1887C37.4728 93.2536 40.1272 94.7861 45.4359 97.8509C46.8879 93.3645 47.6128 91.1218 49.0648 86.6354C43.7561 83.5705 41.1029 82.038 35.7942 78.9732C34.3434 83.4596 33.6174 85.7023 32.1653 90.1887Z" fill="#FFDDE8"/>
<path d="M59.508 107.109C53.9033 103.874 51.1015 102.255 45.498 99.0192C45.2934 98.901 45.1971 98.5916 45.2824 98.3285C46.8575 93.4607 47.6456 91.0269 49.2207 86.1591C49.306 85.8948 49.5399 85.7778 49.7445 85.896C55.3493 89.1314 58.151 90.7503 63.7545 93.9858C63.9592 94.1039 64.0554 94.4121 63.9702 94.6765C62.3951 99.5442 61.6081 101.978 60.033 106.846C59.9466 107.109 59.7127 107.227 59.508 107.109ZM46.1765 98.2773C51.4852 101.342 54.1384 102.875 59.4471 105.94C60.8992 101.453 61.624 99.2104 63.076 94.724C57.7673 91.6591 55.1129 90.1266 49.8054 87.0618C48.3534 91.5482 47.6273 93.7921 46.1765 98.2773Z" fill="#FFDDE8"/>
<path d="M73.5193 115.199C67.9146 111.963 65.1128 110.344 59.508 107.109C59.3034 106.991 59.2071 106.683 59.2924 106.418C60.8675 101.551 61.6544 99.1166 63.2307 94.2489C63.316 93.9845 63.5511 93.8676 63.7546 93.9857C69.3593 97.2212 72.161 98.8401 77.7658 102.076C77.9704 102.194 78.0667 102.503 77.9814 102.766C76.4063 107.634 75.6182 110.068 74.0431 114.937C73.9578 115.199 73.7227 115.317 73.5193 115.199ZM60.1866 106.368C65.4953 109.433 68.1496 110.966 73.4584 114.032C74.9092 109.545 75.6364 107.303 77.0873 102.816C71.7785 99.7513 69.1242 98.2188 63.8155 95.1527C62.3634 99.6392 61.6386 101.882 60.1866 106.368Z" fill="#FFDDE8"/>
<path d="M87.5305 123.29C81.9257 120.053 79.124 118.435 73.5193 115.2C73.3146 115.082 73.2184 114.774 73.3036 114.509C74.8787 109.641 75.6669 107.208 77.2407 102.339C77.326 102.074 77.5611 101.957 77.7645 102.076C83.3693 105.312 86.171 106.93 91.7758 110.165C91.9804 110.283 92.0767 110.592 91.9914 110.856C90.4163 115.724 89.6282 118.158 88.0543 123.025C87.9691 123.29 87.7339 123.407 87.5305 123.29ZM74.1978 114.458C79.5065 117.523 82.1609 119.055 87.4696 122.122C88.9216 117.635 89.6477 115.392 91.0985 110.906C85.7898 107.841 83.1354 106.309 77.8267 103.243C76.3746 107.729 75.6486 109.972 74.1978 114.458Z" fill="#FFDDE8"/>
<path d="M101.541 131.38C95.9358 128.144 93.134 126.525 87.5293 123.29C87.3246 123.172 87.2284 122.862 87.3137 122.599C88.8887 117.731 89.6757 115.297 91.2507 110.428C91.336 110.164 91.5711 110.047 91.7745 110.165C97.3793 113.401 100.181 115.02 105.786 118.255C105.99 118.373 106.087 118.683 106.001 118.946C104.426 123.814 103.639 126.247 102.064 131.116C101.98 131.38 101.745 131.498 101.541 131.38ZM88.209 122.548C93.5177 125.613 96.1721 127.146 101.481 130.211C102.933 125.725 103.659 123.482 105.11 118.996C99.801 115.931 97.1466 114.398 91.8379 111.332C90.3858 115.819 89.6598 118.063 88.209 122.548Z" fill="#FFDDE8"/>
<path d="M115.552 139.469C109.947 136.234 107.145 134.615 101.541 131.38C101.336 131.261 101.24 130.952 101.325 130.689C102.9 125.821 103.687 123.387 105.262 118.518C105.347 118.254 105.582 118.137 105.786 118.254C111.391 121.491 114.192 123.108 119.796 126.344C120 126.462 120.097 126.771 120.011 127.034C118.436 131.902 117.648 134.336 116.074 139.205C115.99 139.469 115.756 139.587 115.552 139.469ZM102.22 130.639C107.529 133.704 110.183 135.236 115.491 138.301C116.942 133.815 117.668 131.572 119.12 127.086C113.811 124.021 111.157 122.488 105.849 119.423C104.397 123.909 103.671 126.152 102.22 130.639Z" fill="#FFDDE8"/>
<path d="M129.562 147.559C123.958 144.324 121.157 142.706 115.552 139.469C115.347 139.351 115.251 139.043 115.336 138.779C116.911 133.911 117.699 131.477 119.273 126.608C119.359 126.344 119.594 126.227 119.797 126.344C125.402 129.579 128.204 131.198 133.807 134.433C134.012 134.552 134.108 134.86 134.023 135.124C132.448 139.992 131.661 142.426 130.086 147.295C130 147.559 129.767 147.677 129.562 147.559ZM116.23 138.729C121.539 141.794 124.192 143.326 129.501 146.391C130.952 141.904 131.678 139.662 133.13 135.175C127.822 132.11 125.168 130.578 119.859 127.513C118.407 132 117.682 134.242 116.23 138.729Z" fill="#FFDDE8"/>
<path d="M41.5597 111.189C35.955 107.953 33.1532 106.334 27.5497 103.099C27.345 102.981 27.2488 102.672 27.334 102.408C28.9091 97.5403 29.696 95.1064 31.2711 90.2387C31.3564 89.9743 31.5915 89.8574 31.7949 89.9743C37.3984 93.2098 40.2002 94.8275 45.805 98.0641C46.0096 98.1823 46.1058 98.4917 46.0206 98.7548C44.4455 103.623 43.6574 106.056 42.0835 110.924C41.9982 111.189 41.7643 111.307 41.5597 111.189ZM28.2282 102.358C33.5357 105.423 36.19 106.955 41.4988 110.02C42.9496 105.535 43.6756 103.291 45.1277 98.806C39.8189 95.7411 37.1658 94.2086 31.857 91.1438C30.405 95.629 29.6802 97.8716 28.2282 102.358Z" fill="#FFDDE8"/>
<path d="M55.5698 119.278C49.9651 116.042 47.1633 114.424 41.5598 111.189C41.3551 111.07 41.2589 110.761 41.3442 110.498C42.9193 105.63 43.7062 103.196 45.2813 98.3285C45.3665 98.0641 45.6016 97.9472 45.8051 98.0654C51.4098 101.301 54.2116 102.92 59.8163 106.155C60.021 106.273 60.1172 106.583 60.0319 106.846C58.4569 111.714 57.6687 114.147 56.0948 119.015C56.0095 119.278 55.7744 119.397 55.5698 119.278ZM42.2383 110.448C47.547 113.513 50.2002 115.045 55.5089 118.111C56.9597 113.625 57.6858 111.382 59.1378 106.896C53.8291 103.831 51.1747 102.298 45.8672 99.2336C44.4151 103.719 43.6903 105.961 42.2383 110.448Z" fill="#FFDDE8"/>
<path d="M69.5809 127.368C63.9762 124.131 61.1744 122.514 55.5697 119.278C55.365 119.16 55.2688 118.851 55.3541 118.588C56.9291 113.72 57.7161 111.286 59.2912 106.418C59.3765 106.155 59.6115 106.037 59.815 106.155C65.4197 109.391 68.2215 111.009 73.8262 114.245C74.0309 114.363 74.1271 114.671 74.0418 114.936C72.4667 119.803 71.6798 122.237 70.1047 127.105C70.0207 127.368 69.7856 127.486 69.5809 127.368ZM56.2482 118.538C61.5569 121.603 64.2113 123.135 69.5201 126.201C70.9709 121.716 71.6969 119.472 73.1489 114.987C67.8402 111.922 65.1858 110.389 59.8771 107.323C58.4263 111.809 57.7002 114.051 56.2482 118.538Z" fill="#FFDDE8"/>
<path d="M83.5921 135.459C77.9874 132.222 75.1857 130.605 69.5809 127.369C69.3763 127.251 69.28 126.942 69.3653 126.679C70.9404 121.811 71.7273 119.377 73.3024 114.509C73.3876 114.245 73.6227 114.128 73.8262 114.246C79.4309 117.482 82.2327 119.1 87.8374 122.336C88.0421 122.454 88.1383 122.763 88.0531 123.027C86.478 127.894 85.6898 130.328 84.116 135.196C84.0319 135.459 83.7968 135.577 83.5921 135.459ZM70.2594 126.627C75.5682 129.692 78.2225 131.226 83.5312 134.291C84.9821 129.804 85.7081 127.562 87.1601 123.075C81.8514 120.01 79.1971 118.478 73.8883 115.412C72.4375 119.898 71.7115 122.142 70.2594 126.627Z" fill="#FFDDE8"/>
<path d="M97.6035 143.549C91.9988 140.313 89.197 138.695 83.5922 135.459C83.3876 135.341 83.2914 135.033 83.3767 134.768C84.9517 129.901 85.7387 127.467 87.3137 122.599C87.399 122.335 87.6329 122.218 87.8375 122.336C93.4423 125.573 96.244 127.19 101.849 130.426C102.053 130.544 102.15 130.853 102.064 131.116C100.489 135.984 99.7012 138.418 98.1273 143.286C98.0432 143.549 97.8081 143.667 97.6035 143.549ZM84.2708 134.717C89.5795 137.782 92.2339 139.316 97.5426 142.381C98.9934 137.895 99.7194 135.652 101.171 131.165C95.8627 128.1 93.2084 126.568 87.8996 123.502C86.4488 127.989 85.7228 130.232 84.2708 134.717Z" fill="#FFDDE8"/>
<path d="M108.93 96.1236C101.539 90.5566 94.4691 95.1211 93.1353 103.893C91.4152 119.507 107.256 125.929 111.901 109.512C112.165 108.579 113.169 109.088 112.972 109.966C109.714 128.081 90.9279 121.595 89.6306 106.828C89.4662 103.601 90.3847 99.2835 92.2484 96.1857C96.0637 89.7587 103.548 87.7987 109.825 94.3853C110.18 94.7581 110.244 95.4268 109.968 95.8812C109.717 96.2905 109.275 96.3831 108.93 96.1236Z" fill="#06C971"/>
<path d="M113.91 101.976C113.744 101.564 113.357 101.397 113.045 101.604C108.55 104.583 106.302 106.071 101.807 109.049C101.782 108.883 100.363 99.7574 100.327 99.5978C100.013 98.1616 98.8715 97.2992 97.7776 97.6731C96.6837 98.0471 96.0514 99.515 96.3669 100.952C99.0116 113.037 98.9495 113.143 99.2576 113.705C99.7802 114.658 100.785 114.897 101.503 114.239C106.39 109.757 108.834 107.516 113.722 103.034C113.977 102.803 114.062 102.351 113.91 101.976Z" fill="#06C971"/>
<path d="M205.734 143.97L205.11 144.902L204.158 143.058L171.441 79.7357L171.867 78.4177L205.734 143.97Z" fill="#FF6D9B"/>
<path d="M205.109 144.902L158.974 118.275L159.331 117.184L171.441 79.7357L204.158 143.058L205.109 144.902Z" fill="#E60F53"/>
<path d="M59.5142 26.5108C59.2047 27.4646 58.3557 27.8922 57.6163 27.4658C55.3152 26.1368 54.164 25.4729 51.8629 24.1439C51.1235 23.7163 50.7739 22.5968 51.0833 21.643C51.3915 20.6892 52.2417 20.2616 52.9812 20.688C55.2823 22.017 56.4322 22.6809 58.7345 24.0099C59.474 24.4363 59.8236 25.5557 59.5142 26.5108Z" fill="#FF5289"/>
<path d="M78.9291 37.7203C78.6197 38.6741 77.7707 39.1016 77.0312 38.6753C74.7301 37.3463 73.579 36.6824 71.2779 35.3534C70.5385 34.9258 70.1888 33.8063 70.497 32.8525C70.8052 31.8987 71.6555 31.4711 72.3962 31.8975C74.6973 33.2265 75.8484 33.8904 78.1495 35.2194C78.8889 35.647 79.2373 36.7664 78.9291 37.7203Z" fill="#FF5289"/>
<path d="M98.3442 48.9309C98.036 49.8848 97.1857 50.3123 96.4451 49.886C94.144 48.557 92.9928 47.8931 90.6917 46.5641C89.9523 46.1365 89.6027 45.017 89.9108 44.0632C90.2203 43.1094 91.0693 42.6818 91.8099 43.1082C94.111 44.4372 95.2622 45.1011 97.5633 46.4301C98.304 46.8576 98.6536 47.9771 98.3442 48.9309Z" fill="#FF5289"/>
<path d="M117.76 60.1429C117.451 61.0967 116.602 61.5243 115.861 61.0979C113.56 59.7689 112.409 59.105 110.108 57.776C109.369 57.3484 109.019 56.2289 109.328 55.2751C109.638 54.3213 110.487 53.8937 111.226 54.3201C113.527 55.6491 114.678 56.313 116.98 57.642C117.72 58.0684 118.069 59.1879 117.76 60.1429Z" fill="#FF5289"/>
<path d="M137.175 71.3524C136.867 72.3062 136.017 72.7338 135.276 72.3074C132.975 70.9784 131.824 70.3145 129.523 68.9855C128.783 68.5592 128.434 67.4385 128.743 66.4846C129.053 65.5308 129.902 65.1032 130.642 65.5296C132.943 66.8586 134.093 67.5225 136.396 68.8515C137.135 69.2791 137.483 70.3986 137.175 71.3524Z" fill="#FF5289"/>
<path d="M154.691 83.5181C152.39 82.1891 151.239 81.5252 148.938 80.1962C148.198 79.7686 147.849 78.6491 148.158 77.6953C148.468 76.7415 149.317 76.3139 150.056 76.7403C152.357 78.0693 153.508 78.7332 155.81 80.0622C156.549 80.4898 156.899 81.6093 156.589 82.5631C156.281 83.5181 155.431 83.9445 154.691 83.5181Z" fill="#FF5289"/>
<mask id="mask0_515_17790" style="mask-type:luminance" maskUnits="userSpaceOnUse" x="47" y="0" width="121" height="84">
<path d="M167.969 61.7959L165.193 73.6863L157.834 69.4313L153.054 78.4761C153.877 78.9524 154.711 79.4287 155.811 80.0634C156.544 80.4897 156.902 81.6104 156.594 82.563C156.525 82.7714 156.426 82.9602 156.306 83.1185L151.924 80.6189L148.046 78.397L141.243 74.4988L148.384 63.9764L138.546 58.2937L133.766 67.3288C134.549 67.7856 135.353 68.2412 136.394 68.8466C137.139 69.2827 137.485 70.3937 137.178 71.356C137.099 71.6045 136.979 71.8116 136.84 71.9809L132.596 69.5507L128.649 67.2898L121.4 63.1347L128.59 52.5525L119.475 47.2864L114.695 56.3215C115.369 56.7186 116.094 57.1255 116.987 57.6408C117.72 58.0671 118.067 59.1878 117.76 60.1404C117.671 60.4182 117.542 60.6557 117.373 60.8348L113.486 58.6129L109.231 56.1826L101.714 51.8789L108.963 41.2176L99.3235 35.6543L94.5532 44.6893C95.4656 45.2143 96.3585 45.7308 97.5681 46.4349C98.3015 46.8613 98.6596 47.982 98.3416 48.9346C98.2418 49.2513 98.0834 49.4998 97.8861 49.6886L93.2949 47.0611L89.8243 45.0779C89.8243 45.0682 83.0611 41.2005 83.0611 41.2005L90.3505 30.4698L80.3239 24.6774L75.5499 33.7198C76.3235 34.1657 77.1165 34.6225 78.1483 35.2169C78.8926 35.6433 79.2397 36.764 78.9315 37.7166C78.8219 38.0638 78.6343 38.3512 78.4053 38.5401L74.2502 36.1598L70.4227 33.9683L63.718 30.1299L71.0574 19.3297L60.5349 13.2609L55.7549 22.2959C56.6478 22.8112 57.5407 23.318 58.7296 24.0123C59.4739 24.4387 59.8211 25.5594 59.5129 26.5108C59.3838 26.8981 59.1755 27.1954 58.9172 27.383L54.4246 24.8139L51.0235 22.8697L49.189 21.8184L47.5823 16.7899L52.5706 8.65745L57.8659 0L65.3235 4.18559L76.9265 10.7015L85.2367 15.3622L96.3634 21.6101L104.367 26.1027L115.127 32.1326L124.647 37.4778L134.911 43.2397L143.846 48.2573L154.854 54.4358L163.265 59.1562L167.969 61.7959Z" fill="white"/>
</mask>
<g mask="url(#mask0_515_17790)">
<path d="M163.028 64.2809C163.15 64.823 163.221 65.4175 163.221 66.0716C163.221 70.7615 159.917 76.4844 155.855 78.8294C155.288 79.1571 154.739 79.3922 154.208 79.5578C155.183 79.6845 156.324 79.4299 157.549 78.7222C161.093 76.6769 163.975 71.6837 163.975 67.5919C163.976 66.1776 163.625 65.0618 163.028 64.2809Z" fill="#FF6D9B"/>
<path d="M157.549 79.8076C155.518 80.9806 153.677 81.0891 152.343 80.3192C151.009 79.5493 150.183 77.8999 150.183 75.555C150.183 70.8651 153.487 65.1422 157.549 62.7972C159.58 61.6254 161.422 61.5157 162.755 62.2856C164.089 63.0555 164.915 64.7049 164.915 67.0498C164.915 71.7397 161.61 77.4626 157.549 79.8076ZM157.549 63.8814C154.005 65.9267 151.123 70.9199 151.123 75.0117C151.123 79.1035 154.007 80.7675 157.55 78.7222C161.094 76.6769 163.976 71.6837 163.976 67.5919C163.975 63.5001 161.093 61.8349 157.549 63.8814Z" fill="#E60F53"/>
<path d="M150.183 75.5538C150.183 70.8639 153.486 65.141 157.549 62.796C159.58 61.6241 161.422 61.5145 162.755 62.2844L161.061 61.3062C159.727 60.5363 157.885 60.6447 155.856 61.8178C151.794 64.1628 148.49 69.8857 148.49 74.5756C148.49 76.9205 149.316 78.5699 150.649 79.3398L152.344 80.318C151.01 79.5481 150.183 77.8987 150.183 75.5538Z" fill="#FF85AC"/>
<path d="M65.6036 8.02399C65.7254 8.56607 65.7961 9.15931 65.7961 9.81346C65.7961 14.5034 62.4925 20.2263 58.4299 22.5712C57.8635 22.8989 57.3141 23.134 56.783 23.2997C57.7575 23.4264 58.8989 23.1718 60.1232 22.4652C63.6668 20.42 66.5489 15.4267 66.5489 11.3349C66.5501 9.92188 66.2005 8.80604 65.6036 8.02399Z" fill="#FF6D9B"/>
<path d="M60.1245 23.5506C58.0938 24.7225 56.252 24.8321 54.9181 24.0622C53.5842 23.2923 52.7583 21.643 52.7583 19.298C52.7583 14.6081 56.0619 8.8852 60.1245 6.54024C62.1552 5.36716 63.997 5.25874 65.3309 6.02861C66.6648 6.79849 67.4907 8.44788 67.4907 10.7928C67.4907 15.4827 64.1858 21.2056 60.1245 23.5506ZM60.1245 7.6244C56.5809 9.66969 53.6987 14.6629 53.6987 18.7547C53.6987 22.8465 56.5821 24.5105 60.1245 22.4652C63.6681 20.4199 66.5503 15.4267 66.5503 11.3349C66.5503 7.24312 63.6681 5.57912 60.1245 7.6244Z" fill="#E60F53"/>
<path d="M52.7583 19.298C52.7583 14.6081 56.0619 8.88522 60.1245 6.54026C62.1552 5.36718 63.997 5.25876 65.3309 6.02863L63.6364 5.05046C62.3025 4.28058 60.4607 4.39021 58.43 5.56208C54.3687 7.90703 51.0638 13.6299 51.0638 18.3198C51.0638 20.6648 51.8897 22.3142 53.2236 23.0841L54.9181 24.0622C53.5854 23.2924 52.7583 21.643 52.7583 19.298Z" fill="#FF85AC"/>
<path d="M85.0882 19.2761C85.21 19.8182 85.2806 20.4114 85.2806 21.0656C85.2806 25.7555 81.977 31.4784 77.9157 33.8234C77.3492 34.151 76.7998 34.3861 76.2687 34.5518C77.2444 34.6785 78.3858 34.4239 79.6101 33.7162C83.1537 31.6709 86.0359 26.6777 86.0359 22.5859C86.0359 21.1728 85.6851 20.057 85.0882 19.2761Z" fill="#FF6D9B"/>
<path d="M79.6089 34.8016C77.5782 35.9747 75.7364 36.0831 74.4025 35.3132C73.0686 34.5433 72.2427 32.8939 72.2427 30.549C72.2427 25.8591 75.5463 20.1362 79.6089 17.7912C81.6395 16.6181 83.4814 16.5097 84.8153 17.2796C86.1492 18.0495 86.9751 19.6989 86.9751 22.0438C86.9751 26.7337 83.6714 32.4566 79.6089 34.8016ZM79.6089 18.8766C76.0652 20.9219 73.1831 25.9151 73.1831 30.0069C73.1831 34.0987 76.0665 35.7627 79.6089 33.7174C83.1525 31.6721 86.0346 26.6789 86.0346 22.5871C86.0359 18.4953 83.1525 16.8301 79.6089 18.8766Z" fill="#E60F53"/>
<path d="M72.2439 30.5489C72.2439 25.859 75.5476 20.1361 79.6101 17.7912C81.6408 16.6181 83.4826 16.5097 84.8165 17.2796L83.1221 16.3014C81.7882 15.5315 79.9463 15.6399 77.9157 16.813C73.8543 19.158 70.5494 24.8809 70.5494 29.5708C70.5494 31.9157 71.3754 33.5651 72.7092 34.335L74.4037 35.3132C73.0698 34.5433 72.2439 32.8939 72.2439 30.5489Z" fill="#FF85AC"/>
<path d="M104.574 30.527C104.695 31.0691 104.766 31.6624 104.766 32.3177C104.766 37.0076 101.462 42.7305 97.3999 45.0755C96.8335 45.4032 96.284 45.6383 95.7529 45.8039C96.7275 45.9306 97.8689 45.676 99.0931 44.9683C102.637 42.923 105.519 37.9298 105.519 33.838C105.52 32.4237 105.171 31.3079 104.574 30.527Z" fill="#FF6D9B"/>
<path d="M99.0945 46.0537C97.0638 47.2268 95.222 47.3352 93.8881 46.5653C92.5542 45.7954 91.7283 44.1461 91.7283 41.8011C91.7283 37.1112 95.0319 31.3883 99.0945 29.0433C101.125 27.8715 102.967 27.7618 104.301 28.5317C105.635 29.3016 106.461 30.951 106.461 33.2959C106.459 37.9858 103.156 43.7087 99.0945 46.0537ZM99.0945 30.1275C95.5508 32.1728 92.6687 37.166 92.6687 41.2578C92.6687 45.3496 95.5521 47.0136 99.0945 44.9683C102.638 42.923 105.52 37.9298 105.52 33.838C105.52 29.7462 102.638 28.0822 99.0945 30.1275Z" fill="#E60F53"/>
<path d="M91.7283 41.8011C91.7283 37.1112 95.0319 31.3883 99.0945 29.0433C101.125 27.8702 102.967 27.7618 104.301 28.5317L102.606 27.5535C101.273 26.7836 99.4307 26.8921 97.4 28.0651C93.3387 30.4101 90.0338 36.133 90.0338 40.8229C90.0338 43.1679 90.8597 44.8172 92.1936 45.5871L93.8881 46.5653C92.5542 45.7942 91.7283 44.146 91.7283 41.8011Z" fill="#FF85AC"/>
<path d="M124.058 41.7779C124.18 42.32 124.251 42.9132 124.251 43.5674C124.251 48.2573 120.947 53.9802 116.884 56.3251C116.318 56.6528 115.769 56.8879 115.238 57.0536C116.213 57.1803 117.355 56.9257 118.579 56.2179C122.123 54.1726 125.005 49.1794 125.005 45.0876C125.006 43.6758 124.655 42.56 124.058 41.7779Z" fill="#FF6D9B"/>
<path d="M118.579 57.3045C116.548 58.4776 114.706 58.586 113.373 57.8162C112.039 57.0463 111.213 55.3969 111.213 53.052C111.213 48.3621 114.516 42.6392 118.578 40.2942C120.608 39.1223 122.45 39.0127 123.784 39.7826C125.118 40.5525 125.944 42.2018 125.944 44.5468C125.945 49.2367 122.64 54.9596 118.579 57.3045ZM118.579 41.3784C115.035 43.4236 112.153 48.4169 112.153 52.5087C112.153 56.6005 115.037 58.2645 118.58 56.2192C122.124 54.1739 125.006 49.1807 125.006 45.0889C125.006 40.9971 122.123 39.3331 118.579 41.3784Z" fill="#E60F53"/>
<path d="M111.214 53.0519C111.214 48.362 114.518 42.6391 118.58 40.2942C120.611 39.1223 122.453 39.0127 123.787 39.7825L122.092 38.8044C120.758 38.0345 118.916 38.1441 116.887 39.316C112.826 41.6609 109.521 47.3838 109.521 52.0737C109.521 54.4187 110.347 56.0681 111.681 56.838L113.375 57.8161C112.04 57.0463 111.214 55.3969 111.214 53.0519Z" fill="#FF85AC"/>
<path d="M143.544 53.03C143.666 53.5721 143.736 54.1653 143.736 54.8195C143.736 59.5094 140.433 65.2323 136.37 67.5773C135.804 67.9049 135.254 68.14 134.723 68.3057C135.698 68.4324 136.839 68.1778 138.063 67.4701C141.607 65.4248 144.489 60.4315 144.489 56.3398C144.49 54.9267 144.14 53.8109 143.544 53.03Z" fill="#FF6D9B"/>
<path d="M138.065 68.5554C136.034 69.7285 134.192 69.8369 132.858 69.0671C131.524 68.2972 130.698 66.6478 130.698 64.3028C130.698 59.6129 134.002 53.89 138.065 51.5451C140.095 50.3732 141.937 50.2636 143.271 51.0335C144.605 51.8033 145.431 53.4527 145.431 55.7977C145.43 60.4876 142.126 66.2105 138.065 68.5554ZM138.065 52.6292C134.521 54.6745 131.639 59.6678 131.639 63.7595C131.639 67.8513 134.522 69.5153 138.065 67.4701C141.608 65.4248 144.49 60.4315 144.49 56.3397C144.49 52.2492 141.607 50.584 138.065 52.6292Z" fill="#E60F53"/>
<path d="M130.698 64.3028C130.698 59.6129 134.002 53.89 138.065 51.5451C140.095 50.3732 141.937 50.2636 143.271 51.0335L141.577 50.0553C140.243 49.2854 138.401 49.395 136.37 50.5669C132.309 52.9119 129.004 58.6348 129.005 63.3247C129.005 65.6696 129.831 67.319 131.165 68.0889L132.859 69.0671C131.524 68.2972 130.698 66.6478 130.698 64.3028Z" fill="#FF85AC"/>
</g>
<path d="M22.5953 131.782L22.4444 131.953C22.3913 132.009 22.3366 132.065 22.2835 132.12C21.8474 132.553 21.3566 132.913 20.8326 133.196C19.8161 133.745 18.6488 134.014 17.4316 134.014C14.9792 134.014 12.3161 132.919 10.2052 130.809C7.85717 128.461 6.76274 125.419 7.04298 122.753C7.18226 121.377 7.69299 120.1 8.58013 119.07C8.68128 118.954 8.78575 118.84 8.89519 118.732C10.0692 117.558 11.6246 116.939 13.3027 116.848C14.7006 116.772 16.183 117.062 17.6041 117.704C18.3171 118.019 19.0119 118.427 19.6768 118.924C20.1279 119.256 20.5606 119.631 20.9735 120.042C21.0498 120.118 21.1278 120.199 21.2007 120.279C21.7596 120.866 22.2387 121.491 22.64 122.141C24.6713 125.421 24.7311 129.303 22.5953 131.782Z" fill="#BABABA"/>
<path d="M29.0477 134.74L28.7667 134.76C28.6678 134.767 28.5659 134.773 28.467 134.779C27.6547 134.83 26.7405 134.872 25.7645 134.905C23.8713 134.969 21.6969 135 19.4299 135C14.8619 135 9.90171 134.873 5.96997 134.627C1.59657 134.353 -0.441921 133.999 0.0800454 133.689C0.339485 133.529 1.29077 133.38 2.94315 133.26C3.13155 133.247 3.32614 133.233 3.52998 133.221C5.71668 133.084 8.61382 133.012 11.7394 133.001C14.3431 132.992 17.1043 133.026 19.7511 133.101C21.0792 133.138 22.3733 133.185 23.6118 133.243C24.4519 133.282 25.258 133.325 26.0271 133.373C26.1691 133.382 26.3144 133.392 26.4503 133.401C27.4911 133.469 28.3836 133.542 29.1311 133.618C32.9146 133.999 33.0258 134.451 29.0477 134.74Z" fill="#BABABA" fill-opacity="0.25"/>
<path d="M21.1576 129.27L21.0498 129.392C21.0116 129.432 20.9718 129.474 20.9337 129.513C20.6203 129.825 20.2671 130.084 19.8907 130.288C19.1594 130.683 18.3204 130.877 17.4465 130.877C15.6822 130.877 13.7686 130.091 12.2514 128.573C10.5633 126.885 9.77732 124.698 9.97796 122.781C10.0725 121.844 10.4074 120.972 10.9845 120.252C11.0176 120.213 11.0491 120.173 11.084 120.133C11.1569 120.05 11.2316 119.967 11.3095 119.889C12.1535 119.045 13.2711 118.601 14.4783 118.535C15.4832 118.48 16.5494 118.687 17.5709 119.15C18.0833 119.375 18.584 119.67 19.0599 120.027C19.3833 120.266 19.695 120.534 19.9918 120.831C20.0466 120.886 20.1029 120.944 20.156 121.002C20.5573 121.425 20.9022 121.874 21.1907 122.342C22.6499 124.696 22.6931 127.487 21.1576 129.27Z" fill="#E5E5E5"/>
<path d="M36.6271 109.983L21.1578 129.27L10.983 120.251L26.5602 100.842L36.6271 109.983Z" fill="#E5E5E5"/>
<path d="M19.264 100.682C15.6209 100.682 10.9099 103.258 9.27661 106.461C10.8469 113.245 18.3387 124.74 27.545 131.586C33.5842 132.089 37.0797 127.504 38.0962 125.681C35.4132 117.83 29.9411 107.529 19.264 100.682Z" fill="#ACACAC"/>
<path d="M28.8037 119.692L28.6959 119.815C28.6677 119.845 28.6378 119.876 28.608 119.906C28.2664 120.248 27.9149 120.506 27.5368 120.71C26.8055 121.105 25.9665 121.299 25.0926 121.299C23.3283 121.299 21.4147 120.513 19.8975 118.994C18.2094 117.306 17.4234 115.12 17.6241 113.203C17.7186 112.265 18.0535 111.393 18.6306 110.675C18.6621 110.635 18.6953 110.595 18.7301 110.555C18.803 110.472 18.8777 110.39 18.9556 110.312C19.7997 109.468 20.9172 109.023 22.1244 108.957C23.1293 108.902 24.1939 109.109 25.217 109.572C25.7294 109.798 26.2301 110.093 26.706 110.449C27.0294 110.688 27.3411 110.957 27.638 111.253C27.6927 111.308 27.7491 111.366 27.8021 111.424C28.2034 111.847 28.5483 112.296 28.8368 112.764C30.296 115.119 30.3392 117.911 28.8037 119.692Z" fill="#848484"/>
<path d="M25.5552 116.745C25.3645 116.943 25.2402 117.034 25.1059 117.107C24.8455 117.246 24.5487 117.316 24.2386 117.316C23.6118 117.316 22.932 117.037 22.3931 116.498C21.7928 115.9 21.5142 115.122 21.5855 114.442C21.6187 114.109 21.7381 113.799 21.942 113.543C22.0034 113.472 22.0299 113.442 22.0581 113.414C22.1327 113.339 22.214 113.273 22.3002 113.215C22.5589 113.043 22.8623 112.95 23.184 112.933C23.5405 112.913 23.9186 112.988 24.2818 113.152C24.4642 113.232 24.6416 113.336 24.8107 113.464C24.9251 113.548 25.0362 113.645 25.1423 113.749C25.1622 113.769 25.1821 113.789 25.2004 113.809C25.343 113.958 25.4657 114.119 25.5685 114.285C26.0859 115.122 26.1008 116.112 25.5552 116.745Z" fill="#484848"/>
<path d="M37.0912 103.312L25.4457 116.837L21.9784 113.5L33.624 99.9776L37.0912 103.312Z" fill="#484848"/>
<path d="M39.3961 107.307L39.2883 107.43C39.2601 107.459 39.2302 107.491 39.2004 107.521C38.8588 107.862 38.5073 108.121 38.1292 108.323C37.3979 108.718 36.5589 108.912 35.685 108.912C33.9207 108.912 32.0071 108.126 30.4899 106.609C28.8018 104.921 28.0158 102.735 28.2165 100.817C28.311 99.8798 28.6459 99.0076 29.223 98.2879C29.2545 98.2481 29.2877 98.2083 29.3225 98.1685C29.3955 98.0856 29.4701 98.0027 29.548 97.9248C30.3921 97.0807 31.5097 96.6363 32.7168 96.57C33.7217 96.5153 34.788 96.7226 35.8094 97.1852C36.3218 97.4107 36.8225 97.7059 37.2984 98.0624C37.6218 98.3012 37.9335 98.5698 38.2304 98.8666C38.2851 98.9213 38.3415 98.9794 38.3929 99.0374C38.7941 99.4602 39.1391 99.9096 39.4276 100.377C40.8885 102.734 40.9316 105.526 39.3961 107.307Z" fill="#3886E0"/>
<path opacity="0.5" d="M53.3084 91.1659L45.3888 100.356L44.039 101.923L40.8719 105.596L40.076 106.518C39.7991 106.761 39.5304 106.945 39.2469 107.096C38.5156 107.491 37.6732 107.688 36.791 107.688C35.0201 107.688 33.0983 106.899 31.5777 105.378C29.8863 103.68 29.0954 101.488 29.2927 99.5597C29.3922 98.6377 29.7205 97.7689 30.286 97.0525C30.3059 97.026 30.5164 96.7822 30.5164 96.7822C30.5429 96.7557 41.1737 84.4203 41.1737 84.4203L43.3194 81.9247C42.6943 82.6626 42.3328 83.5697 42.2333 84.5513C42.036 86.4666 42.8186 88.6521 44.5116 90.3434C46.0256 91.8574 47.9408 92.6467 49.7052 92.6467C50.5807 92.6467 51.4164 92.456 52.1477 92.0613C52.5224 91.8574 52.8789 91.5937 53.194 91.2853C53.2305 91.2455 53.2686 91.2057 53.3084 91.1659Z" fill="#75ADFF"/>
<path d="M40.4756 106.048L40.3678 106.171C40.3396 106.201 40.3098 106.232 40.2799 106.262C39.9383 106.604 39.5868 106.862 39.2087 107.065C38.4775 107.459 37.6384 107.653 36.7645 107.653C35.0002 107.653 33.0866 106.867 31.5694 105.35C29.8813 103.662 29.0937 101.477 29.296 99.5598C29.3905 98.6229 29.7255 97.749 30.3025 97.031C30.3357 96.9912 30.3672 96.9514 30.402 96.9116C30.475 96.8287 30.5496 96.7458 30.6275 96.6679C31.4716 95.8238 32.5892 95.3794 33.7963 95.3131C34.8012 95.2584 35.8675 95.4657 36.8889 95.9283C37.4013 96.1538 37.902 96.449 38.3779 96.8055C38.703 97.0443 39.0131 97.3129 39.3099 97.6097C39.3646 97.6645 39.421 97.7225 39.474 97.7805C39.8753 98.2034 40.2202 98.6527 40.5087 99.1204C41.968 101.475 42.0111 104.267 40.4756 106.048Z" fill="#F3F3F3"/>
<path d="M25.454 103.961C25.5336 103.186 25.774 102.468 26.1554 101.848L25.5734 102.525C25.5336 102.603 25.4888 102.695 25.449 102.778C25.328 103.146 25.245 103.533 25.2052 103.934C25.0145 105.755 25.6596 107.733 26.9779 109.358L27.1735 109.201C25.8951 107.625 25.27 105.717 25.454 103.961ZM28.0043 100.855C27.9131 101.732 28.0259 102.682 28.331 103.602L28.4503 103.563C28.1502 102.659 28.0391 101.727 28.1303 100.868C28.195 100.225 28.3691 99.6244 28.6477 99.0822C28.719 98.9429 28.8003 98.8103 28.8848 98.6809L28.4769 99.1535C28.2265 99.6758 28.0657 100.246 28.0043 100.855ZM26.6429 102.445C26.5517 103.321 26.6628 104.267 26.9663 105.186L27.0856 105.146C26.7872 104.244 26.6778 103.316 26.7673 102.458C26.8519 101.631 27.1205 100.875 27.545 100.235L27.1188 100.729C26.8685 101.251 26.7043 101.828 26.6429 102.445ZM29.6244 98.5168C29.7156 98.1569 29.8433 97.812 30.0074 97.4936C30.0738 97.366 30.1484 97.2433 30.2263 97.1239L29.8201 97.5948C29.6874 97.8767 29.5796 98.1752 29.5016 98.4869C29.437 98.7439 29.3906 99.0059 29.3641 99.2663C29.2712 100.147 29.3856 101.099 29.6924 102.021L29.8118 101.981C29.51 101.075 29.3988 100.142 29.4884 99.2795C29.5166 99.0242 29.5614 98.7671 29.6244 98.5168Z" fill="#343089"/>
<path d="M30.916 97.623C30.9956 96.8486 31.236 96.1306 31.6174 95.5104L31.0354 96.187C30.9956 96.2649 30.9508 96.3578 30.911 96.4407C30.79 96.8088 30.707 97.1952 30.6656 97.5965C30.4749 99.4172 31.1199 101.395 32.4382 103.02L32.6339 102.863C31.3587 101.289 30.7319 99.3807 30.916 97.623ZM33.4663 94.5188C33.3751 95.396 33.4879 96.3462 33.793 97.2665L33.9123 97.2267C33.6122 96.323 33.5011 95.3911 33.5923 94.5321C33.657 93.8887 33.8311 93.2868 34.1097 92.7462C34.181 92.6069 34.2622 92.4743 34.3468 92.3449L33.9389 92.8175C33.6901 93.3399 33.5277 93.9103 33.4663 94.5188ZM32.1049 96.1091C32.0137 96.9846 32.1248 97.9314 32.4283 98.8501L32.5476 98.8103C32.2492 97.9082 32.1398 96.9796 32.2293 96.1223C32.3139 95.2949 32.5825 94.5387 33.007 93.8987L32.5808 94.3928C32.3321 94.9135 32.1679 95.4922 32.1049 96.1091ZM35.0864 92.1791C35.1776 91.8193 35.3069 91.4744 35.4711 91.156C35.5374 91.0283 35.612 90.9056 35.6899 90.7862L35.2837 91.2571C35.151 91.539 35.0433 91.8375 34.9653 92.1493C34.9006 92.4063 34.8542 92.6683 34.8277 92.9286C34.7348 93.8091 34.8492 94.7609 35.156 95.6829L35.2754 95.6431C34.9736 94.7377 34.8625 93.8042 34.9521 92.9419C34.9786 92.6882 35.0233 92.4312 35.0864 92.1791Z" fill="#343089"/>
<path d="M36.3783 91.287C36.4579 90.5126 36.6983 89.7946 37.0797 89.1744L36.4977 89.851C36.4579 89.9289 36.4131 90.0218 36.3733 90.1047C36.2523 90.4728 36.1694 90.8592 36.1296 91.2605C35.9389 93.0828 36.5839 95.0594 37.9022 96.6844L38.0979 96.5269C36.821 94.9533 36.1942 93.043 36.3783 91.287ZM38.9286 88.1828C38.8374 89.06 38.9502 90.0102 39.2553 90.9305L39.3747 90.8907C39.0745 89.987 38.9634 89.0551 39.0546 88.1961C39.1193 87.5527 39.2934 86.9525 39.572 86.4102C39.6433 86.2709 39.7245 86.1383 39.8091 86.0089L39.4012 86.4815C39.1524 87.0039 38.9916 87.5726 38.9286 88.1828ZM37.5672 89.7714C37.476 90.6469 37.5871 91.5938 37.8906 92.5124L38.01 92.4726C37.7115 91.5705 37.602 90.6419 37.6916 89.7847C37.7761 88.9572 38.0448 88.2011 38.4693 87.561L38.0431 88.0551C37.7944 88.5775 37.6302 89.1562 37.5672 89.7714ZM40.5503 85.8431C40.6415 85.4833 40.7709 85.1384 40.935 84.82C41.0014 84.6923 41.076 84.5696 41.1539 84.4502L40.7477 84.9211C40.615 85.203 40.5072 85.5015 40.4293 85.8133C40.3646 86.0703 40.3182 86.3323 40.2917 86.5926C40.1988 87.4731 40.3132 88.4249 40.62 89.3469L40.7394 89.3071C40.4376 88.4017 40.3265 87.4682 40.416 86.6059C40.4409 86.3522 40.4873 86.0952 40.5503 85.8431Z" fill="#343089"/>
<path d="M53.3499 91.1178C53.3417 91.1261 53.2339 91.2489 53.2339 91.2489C53.1957 91.2887 53.1559 91.3284 53.1178 91.3699C52.8044 91.6816 52.4528 91.9403 52.0748 92.1443C51.3435 92.5389 50.5044 92.7329 49.6306 92.7329C47.8663 92.7329 45.9527 91.947 44.4354 90.4297C42.7474 88.7416 41.9614 86.5561 42.162 84.6392C42.2615 83.6526 42.6263 82.739 43.2614 81.9994C43.341 81.9082 43.4157 81.8253 43.4936 81.7473C44.3376 80.9033 45.4552 80.4589 46.6624 80.3926C47.6673 80.3379 48.7335 80.5451 49.755 81.0078C50.2673 81.2333 50.7681 81.5285 51.244 81.885C51.569 82.1238 51.8791 82.3924 52.1759 82.6892C52.2306 82.7439 52.287 82.802 52.3384 82.86C52.7397 83.2828 53.0846 83.7322 53.3731 84.1998C54.8323 86.5512 54.8771 89.3369 53.3499 91.1178Z" fill="#F4F4F4"/>
<path d="M51.3368 86.7584C51.2888 86.8248 51.2357 86.8878 51.176 86.9458C50.4182 87.7036 49.0369 87.5544 48.0951 86.6109C47.2245 85.7403 47.0305 84.5 47.6009 83.7173C47.649 83.651 47.7021 83.5896 47.7618 83.5299C48.5212 82.7721 49.9008 82.9214 50.8427 83.8649C51.7116 84.7354 51.9056 85.9758 51.3368 86.7584Z" fill="#DADADA"/>
<path d="M52.2437 85.5147L51.3367 86.7584L47.5991 83.7189L48.5062 82.4736L52.2437 85.5147Z" fill="#DADADA"/>
<path d="M52.2438 85.5147C52.219 85.5479 52.1941 85.5811 52.1676 85.6126C52.141 85.6441 52.1129 85.6739 52.083 85.7038C51.3252 86.4632 49.9456 86.3123 49.0021 85.3688C48.1315 84.4983 47.9375 83.2579 48.5079 82.4753C48.5328 82.4421 48.5576 82.4089 48.5842 82.3774C48.6107 82.3459 48.6389 82.3161 48.6671 82.2862C49.2806 81.6727 50.3021 81.6528 51.1693 82.1685C51.3733 82.2896 51.569 82.4404 51.7497 82.6212C52.6186 83.4901 52.8126 84.7304 52.2438 85.5147Z" fill="#7C7C7C"/>
<path d="M54.7727 82.5648L53.3765 84.1981L52.1958 85.5827C52.1676 85.6109 51.5674 85.0704 51.5674 85.0704L50.4016 84.0174C50.3884 84.0041 49.3636 83.0805 49.3636 83.0805L48.5842 82.3774L49.755 81.0077L51.1893 79.3297L51.7929 79.8752L52.2472 80.2848L54.2288 82.0756L54.3316 82.1685L54.7727 82.5648Z" fill="#7C7C7C"/>
<path d="M54.7727 82.5648C54.7478 82.5947 54.7196 82.6245 54.6897 82.6544C54.1127 83.2331 53.1725 83.2828 52.3401 82.8583C52.2903 82.8302 52.2373 82.8036 52.1875 82.7721C51.9836 82.6511 51.7879 82.5002 51.6071 82.3194C51.4695 82.1818 51.3485 82.0359 51.2457 81.8817C50.6703 81.0277 50.6305 79.9847 51.191 79.3264C51.2192 79.2965 51.2457 79.2667 51.2739 79.2351C51.5508 78.9582 51.909 78.8024 52.2986 78.7626C52.3832 78.7526 52.4694 78.7493 52.5573 78.7493C53.1725 78.7642 53.8308 79.0428 54.3565 79.5685C54.4062 79.6182 54.4527 79.6696 54.4941 79.721C54.8738 80.1505 55.0977 80.6529 55.1574 81.1437C55.1624 81.1819 55.1673 81.2217 55.169 81.2598C55.2021 81.7507 55.0745 82.2133 54.7727 82.5648Z" fill="#ADADAD"/>
<path d="M54.6831 81.7357C54.6565 81.7672 54.63 81.7987 54.6002 81.8286C54.0447 82.3841 53.0365 82.2746 52.3467 81.5848C51.6933 80.9315 51.5607 79.9929 52.02 79.4242C52.0466 79.3927 52.0731 79.3612 52.1029 79.3313C52.6584 78.7758 53.6666 78.8852 54.3564 79.5751C55.0081 80.2267 55.1407 81.1653 54.6831 81.7357Z" fill="#7C7C7C"/>
<path d="M57.1638 78.6581C57.124 78.7062 55.1557 81.1488 55.1557 81.1488L54.6815 81.7374L52.2522 79.6265L52.0184 79.4226L52.2721 79.1092L52.5557 78.7543L54.4974 76.3449L57.1638 78.6581Z" fill="#7C7C7C"/>
<path d="M57.1639 78.6581C56.5255 79.3032 55.5157 79.1954 54.8275 78.5056C54.1742 77.8522 54.0415 76.912 54.4992 76.3449C54.5274 76.3118 54.5539 76.2819 54.5821 76.2521C55.0364 75.7977 55.7926 75.7894 56.431 76.1791C56.5952 76.2803 56.7195 76.3797 56.8356 76.4958C56.9235 76.5837 57.0014 76.6766 57.0661 76.7727C57.5138 77.4111 57.5569 78.1706 57.1639 78.6581Z" fill="#D5D5D5"/>
<path d="M57.0111 76.8805C56.8519 77.0413 56.5949 77.0132 56.4208 76.8391C56.2533 76.6716 56.2201 76.4311 56.3395 76.2869C56.4987 76.126 56.7541 76.1526 56.9299 76.3283C57.0973 76.4958 57.1305 76.7362 57.0111 76.8805Z" fill="#E4E4E4"/>
<path d="M69 60.9999L68.3998 63.1274L65.9224 66.1171L62.6972 70.0122L61.4287 71.5477L61.0971 71.9474L57.0825 76.7943L57.0129 76.8789L56.3413 76.2869C56.3596 76.267 56.4325 76.1791 56.4325 76.1791L57.8453 74.4728L58.749 73.38L60.719 71.0005L65.2094 65.5815L69 60.9999Z" fill="#E4E4E4"/>
</svg>
