<svg width="166" height="186" viewBox="0 0 166 186" fill="none" xmlns="http://www.w3.org/2000/svg">
<path opacity="0.25" d="M52.5994 54.019C52.5397 54.3975 52.4643 54.7739 52.3638 55.1454C51.9918 56.4943 51.297 57.7786 50.2731 58.7732C49.7668 59.267 49.167 59.6925 48.5383 59.9992L46.696 60.9573L43.0109 62.8745L35.6058 66.6398C33.1226 67.8659 30.6474 69.1073 28.1459 70.298L28.0842 70.3274L28.0584 70.2681L28.0476 70.244L28.0474 70.2436C27.9532 70.2896 27.8585 70.3344 27.7628 70.3757L27.6564 70.4203C27.573 70.455 27.4889 70.4873 27.4045 70.5185L27.2998 70.5562C27.2862 70.561 27.2723 70.5651 27.2587 70.5697C27.1678 70.6006 27.0769 70.6304 26.9848 70.6571L26.9346 70.6725C26.8186 70.7054 26.7011 70.7347 26.5832 70.7611L26.4574 70.7877C26.4571 70.7877 26.4569 70.7877 26.4569 70.7877C26.4364 70.7918 26.4159 70.7952 26.3954 70.7993C26.3357 70.811 26.2759 70.8228 26.2157 70.8329L26.0756 70.8553C25.9894 70.8682 25.903 70.8788 25.8163 70.8882L25.7043 70.9011C25.6685 70.9047 25.6323 70.9057 25.5964 70.9084C25.5686 70.9106 25.5408 70.9122 25.5129 70.9141C25.4614 70.9174 25.4101 70.9222 25.3585 70.9246L25.1971 70.9287C25.1277 70.9305 25.0584 70.9317 24.9887 70.9311C24.9294 70.9311 24.8698 70.9299 24.81 70.9281C24.7776 70.9273 24.7451 70.9253 24.7127 70.9239C24.683 70.9227 24.6536 70.9215 24.6239 70.9199C24.6195 70.9197 24.6152 70.9196 24.6107 70.9193C24.5258 70.9146 24.4406 70.9087 24.3553 70.9017C24.2722 70.8941 24.1887 70.8864 24.1053 70.8765C24.0353 70.8683 23.9651 70.8577 23.8951 70.8477L23.8733 70.8443L20.7617 72.2018C20.6332 72.2635 20.5034 72.3199 20.3723 72.3717L20.3429 72.3834C18.0298 73.2795 15.2941 72.6492 12.9385 70.8943C12.5606 71.7049 12.822 72.5552 13.5464 73.3307C13.7546 73.469 13.9165 73.6163 14.0167 73.7712C14.467 74.1433 15.0191 74.4918 15.6638 74.7988C15.7985 74.8629 15.9361 74.9266 16.0747 74.9897C16.2082 74.9841 16.3432 74.9804 16.4799 74.9804V74.9801H16.4917C16.5467 74.9801 16.601 74.9807 16.6557 74.9813V74.9841C18.0827 75.0087 19.3366 75.3454 20.1141 75.8539C20.4823 75.7874 20.8394 75.6641 21.1773 75.4625C22.0928 74.9175 22.7618 73.8612 23.821 73.7448C24.4954 73.6708 25.1402 74.0117 25.8116 74.11C26.7376 74.2454 27.6622 73.9142 28.5362 73.5786C36.3372 70.5925 43.8765 66.9251 51.0424 62.6327C52.2445 61.9131 53.5054 61.0973 54.0641 59.8129C54.6485 58.468 54.3227 56.8888 53.6922 55.5651C53.4203 54.9957 53.065 54.4329 52.5994 54.019ZM21.8799 72.3847L21.8793 72.3835L21.9087 72.3724L21.8799 72.3847Z" fill="#BABABA"/>
<path opacity="0.25" d="M20.8731 79.1606C20.8385 79.2536 20.794 79.3451 20.7339 79.4335C20.7275 79.4429 20.7188 79.4518 20.7122 79.4611C20.654 79.5425 20.5839 79.6212 20.5055 79.6977C20.487 79.7158 20.4694 79.7338 20.4498 79.7516C20.3604 79.8328 20.2615 79.911 20.1509 79.9855C20.1327 79.9977 20.1125 80.0092 20.0936 80.0212C19.9912 80.0871 19.8807 80.1498 19.7628 80.2097C19.7377 80.2224 19.7141 80.2354 19.6885 80.2478C19.5534 80.313 19.4094 80.3739 19.2571 80.4302C19.2282 80.4411 19.1978 80.4509 19.1682 80.4612C19.0257 80.5115 18.8772 80.558 18.7221 80.6001C18.6995 80.6062 18.6782 80.6131 18.6552 80.6189C18.482 80.664 18.3008 80.703 18.1143 80.7371C18.0988 80.74 18.085 80.7441 18.0695 80.7469V80.7447C17.5779 80.8318 17.047 80.8817 16.4899 80.8815C14.8306 80.8811 13.3862 80.4562 12.6203 79.8276C12.2511 80.0766 12.0381 80.3554 12.0381 80.6511C12.0381 81.6926 14.6081 82.5373 17.7779 82.5373C20.948 82.5373 23.5178 81.6926 23.5178 80.6511C23.5178 79.9886 22.4757 79.407 20.9028 79.0707C20.9005 79.0789 20.8972 79.0869 20.8948 79.0952C20.8879 79.1172 20.8812 79.1389 20.8731 79.1606Z" fill="#BABABA"/>
<path opacity="0.25" d="M8.90673 79.563V79.5683C8.90673 79.6674 8.8867 79.7639 8.85811 79.8592C8.85136 79.8816 8.84448 79.9038 8.83628 79.926C8.80177 80.0187 8.7575 80.1097 8.69778 80.1977C8.69078 80.2081 8.68137 80.2177 8.67401 80.228C8.61647 80.3083 8.54734 80.3859 8.47001 80.4614C8.45083 80.4802 8.43261 80.4989 8.41234 80.5174C8.32343 80.5979 8.22511 80.6758 8.1152 80.7498C8.09602 80.7627 8.07467 80.7747 8.05488 80.7874C7.95367 80.8524 7.84461 80.9144 7.72831 80.9734C7.70213 80.9867 7.6774 81.0004 7.6505 81.0133C7.51658 81.0779 7.37387 81.1382 7.22295 81.1942C7.19134 81.2059 7.15864 81.2166 7.12631 81.2279C6.98866 81.2761 6.84546 81.321 6.69611 81.3618C6.66824 81.3692 6.64182 81.3778 6.61359 81.3852C6.44517 81.4288 6.26916 81.4667 6.0882 81.5C6.06913 81.5035 6.052 81.5087 6.0327 81.5121V81.5094C5.54121 81.5965 5.01015 81.6462 4.45315 81.6461C2.63775 81.6456 1.07882 81.1375 0.385622 80.41C0.328317 80.5168 0.292969 80.6262 0.292969 80.7385C0.292969 81.78 2.86262 82.6241 6.03282 82.6241C9.20266 82.6241 11.7724 81.7801 11.7724 80.7385C11.7724 80.0416 10.6186 79.4343 8.90721 79.1077L8.90709 79.5629L8.90673 79.563Z" fill="#BABABA"/>
<path opacity="0.25" d="M13.5465 73.3307C13.1707 73.081 12.6348 72.8624 11.9781 72.6902C11.975 72.7771 11.9585 72.8624 11.9331 72.9464C11.9265 72.9683 11.9197 72.9901 11.9117 73.0119C11.877 73.105 11.8325 73.1963 11.7723 73.2847C11.7659 73.2942 11.7572 73.3031 11.7506 73.3124C11.6925 73.3938 11.6222 73.4726 11.5438 73.5491C11.5254 73.5671 11.5078 73.5852 11.4882 73.6029C11.3988 73.684 11.2998 73.7624 11.189 73.8369C11.171 73.849 11.1509 73.8603 11.1323 73.8723C11.0297 73.9384 10.9188 74.0012 10.8006 74.0612C10.7758 74.0737 10.7524 74.0867 10.727 74.099C10.5917 74.1641 10.4477 74.2249 10.2953 74.2815C10.2664 74.2922 10.236 74.3021 10.2064 74.3125C10.0639 74.3628 9.91566 74.4092 9.76064 74.4512C9.73783 74.4574 9.71636 74.4643 9.69332 74.4703C9.5202 74.5153 9.33924 74.5543 9.15285 74.5884C9.13728 74.5912 9.12329 74.5954 9.10761 74.5982V74.596C8.61612 74.6831 8.08506 74.7329 7.52794 74.7328C5.5557 74.7323 3.88591 74.1326 3.30068 73.3033C2.89605 73.5616 2.66357 73.8539 2.66357 74.1643C2.66357 74.8887 3.90811 75.517 5.73159 75.8331C5.79505 75.8419 5.8567 75.8525 5.91907 75.8627C6.67175 75.9818 7.51213 76.0506 8.40355 76.0506C11.5736 76.0506 14.1434 75.206 14.1434 74.1643C14.1434 74.0295 14.0985 73.8982 14.0166 73.7713C13.9167 73.6164 13.7548 73.4691 13.5465 73.3307Z" fill="#BABABA"/>
<path d="M50.3926 44.1353C50.4549 44.236 50.5142 44.3401 50.5746 44.4428C50.5141 44.34 50.4548 44.236 50.3926 44.1353Z" fill="#FEC14D"/>
<path d="M49.8374 43.2955C49.8907 43.3701 49.9401 43.4499 49.9922 43.526C49.9401 43.4498 49.8907 43.3703 49.8374 43.2955Z" fill="#FEC14D"/>
<path d="M14.708 51.6648C14.8096 51.5063 14.9192 51.3552 15.0313 51.2062C14.9191 51.3553 14.8096 51.5061 14.708 51.6648Z" fill="#FEC14D"/>
<path d="M15.2349 50.9381C15.3653 50.7804 15.5062 50.6333 15.649 50.4883C15.5062 50.6333 15.3654 50.7803 15.2349 50.9381Z" fill="#FEC14D"/>
<path d="M49.0059 42.24C49.0965 42.346 49.1886 42.4495 49.2771 42.5589C49.1886 42.4493 49.0965 42.3462 49.0059 42.24Z" fill="#FEC14D"/>
<path d="M34.5496 53.1318L30.2207 55.1614C30.0265 54.8184 29.8196 54.4893 29.6055 54.1692C29.8196 54.4895 30.0265 54.8187 30.2209 55.1618C30.3191 55.3351 30.4148 55.5109 30.5077 55.6896C31.4367 57.4823 31.9749 59.3426 32.1503 61.1224C33.6577 60.3802 35.2009 59.6201 36.7542 58.8547C36.3891 57.139 35.7308 55.1595 34.5496 53.1318Z" fill="#FEC14D"/>
<path d="M27.7459 51.8932L32.1155 49.8236C30.4096 47.9578 28.6953 46.8099 27.6718 46.2015C32.4217 43.7558 38.2133 40.7984 38.4309 40.7198C39.4667 41.3689 41.2535 42.6225 42.9997 44.6681L48.7475 41.9456C45.9173 38.8081 42.125 37.329 38.9374 38.2901C38.5511 38.4065 38.1731 38.5569 37.8072 38.746C37.5953 38.8556 22.9523 46.3749 18.0825 48.9048C21.1548 47.7801 24.8676 49.0181 27.7459 51.8932Z" fill="#FEC14D"/>
<path d="M45.3374 48.0733C46.4154 50.0593 47.0184 51.9767 47.3508 53.6285C47.3514 53.6283 47.3519 53.6279 47.3525 53.6278C49.2277 52.7022 51.019 51.8177 52.6698 51.0026C52.5411 49.17 52.0213 47.2418 51.0852 45.3785L45.3397 48.0726L45.3374 48.0733Z" fill="#FEC14D"/>
<path d="M14.5218 51.9764C14.5066 52.0028 14.4901 52.0279 14.4751 52.0545L14.4814 52.0519C14.4954 52.027 14.5077 52.001 14.5218 51.9764Z" fill="#FEC14D"/>
<path d="M16.5251 49.725H16.5248C16.283 49.8974 16.0562 50.0876 15.8403 50.2897C16.0562 50.0878 16.2831 49.8978 16.5248 49.7254L16.5251 49.725Z" fill="#FEC14D"/>
<path d="M27.2588 70.5697C27.2725 70.5651 27.2863 70.5609 27.2999 70.5562L27.2921 70.5591C27.2811 70.5628 27.2698 70.566 27.2588 70.5697Z" fill="#FEC14D"/>
<path d="M24.7128 70.9239C24.6833 70.9226 24.6536 70.9217 24.624 70.92C24.6537 70.9215 24.6831 70.9226 24.7128 70.9239Z" fill="#FEC14D"/>
<path d="M26.4565 70.7878C26.436 70.7919 26.4155 70.7954 26.395 70.7994C26.4155 70.7953 26.436 70.792 26.4565 70.7878Z" fill="#FEC14D"/>
<path d="M25.5962 70.9085C25.5684 70.9105 25.5406 70.9122 25.5127 70.9142C25.5406 70.9124 25.5683 70.9107 25.5962 70.9085Z" fill="#FEC14D"/>
<path d="M29.7697 69.0194C30.9004 67.9068 31.6471 66.3886 31.9919 64.6591C31.647 66.3885 30.9 67.9065 29.7694 69.0191C29.7679 69.0208 29.7662 69.0222 29.7646 69.0237C29.7662 69.0222 29.7681 69.021 29.7697 69.0194Z" fill="#FEC14D"/>
<path d="M42.9998 44.6681C41.2536 42.6225 39.4668 41.3689 38.431 40.7198C38.2132 40.7984 32.4216 43.7558 27.6719 46.2015C28.6955 46.8098 30.4097 47.9577 32.1156 49.8236L32.1177 49.8226L42.9998 44.6681Z" fill="white"/>
<path d="M34.5498 53.1318C35.7309 55.1595 36.3892 57.139 36.7543 58.8547C36.7552 58.8543 36.7562 58.8538 36.7572 58.8533C40.3444 57.0855 43.9834 55.2904 47.3508 53.6286C47.0184 51.9769 46.4156 50.0595 45.3374 48.0734L34.5508 53.1313L34.5498 53.1318Z" fill="white"/>
<path d="M47.7457 57.7644C47.4561 58.0025 47.1432 58.215 46.803 58.3911C46.7932 58.3957 41.7772 60.972 37.1868 63.3292C37.2056 62.3917 37.1704 60.7927 36.7573 58.8533C36.7564 58.8539 36.7554 58.8543 36.7544 58.8548C35.2012 59.6201 33.6579 60.3804 32.1505 61.1224C32.2721 62.3574 32.213 63.5508 31.992 64.6591C31.6472 66.3886 30.9005 67.9068 29.7698 69.0195C29.7682 69.0209 29.7663 69.0222 29.7647 69.0238C29.5563 69.2437 29.3306 69.4484 29.0928 69.6388C31.1898 68.4952 33.2996 67.3768 35.4065 66.2526L42.7807 62.4285L46.4855 60.5512L48.3378 59.6119C48.9564 59.3168 49.515 58.9566 50.0149 58.498C51.0159 57.5906 51.7186 56.3756 52.1365 55.0766C52.569 53.7773 52.7117 52.3877 52.6725 51.0068C52.6724 51.0049 52.6725 51.0032 52.6724 51.0013C52.6717 51.0017 52.6707 51.002 52.67 51.0025C51.0193 51.8176 49.228 52.7021 47.3526 53.6276C47.7081 55.3931 47.7553 56.8533 47.7457 57.7644Z" fill="#F49C40"/>
<path d="M37.1868 63.3292C41.7772 60.972 46.7931 58.3957 46.803 58.3911C47.1432 58.215 47.4562 58.0025 47.7457 57.7644C47.7553 56.8533 47.7081 55.3931 47.3526 53.6277C47.352 53.628 47.3515 53.6283 47.3509 53.6285C43.9836 55.2904 40.3446 57.0854 36.7573 58.8532C37.1704 60.7927 37.2056 62.3917 37.1868 63.3292Z" fill="#F5B588"/>
<path d="M52.1365 55.0766C51.7186 56.3756 51.0158 57.5906 50.0149 58.498C49.5149 58.9565 48.9562 59.3168 48.3377 59.6119L46.4854 60.5512L42.7806 62.4285L35.4065 66.2526C33.2996 67.3768 31.1898 68.4952 29.0927 69.6389C29.3305 69.4485 29.5563 69.2438 29.7647 69.0238C29.7661 69.0223 29.7678 69.0208 29.7694 69.0192C29.3001 69.4813 28.7678 69.8762 28.1704 70.186L28.1052 70.2165L28.1033 70.2177C28.0849 70.227 28.0659 70.2346 28.0474 70.2437L28.0475 70.2441L28.0583 70.2682L28.0842 70.3276L28.1458 70.2982C30.6474 69.1073 33.1225 67.866 35.6058 66.64L43.0108 62.8746L46.6959 60.9574L48.5382 59.9994C49.1669 59.6926 49.7666 59.267 50.273 58.7733C51.2969 57.7788 51.9917 56.4945 52.3637 55.1455C52.4642 54.7741 52.5396 54.3976 52.5994 54.0191C52.7573 53.0186 52.7798 52.0012 52.6723 51.0024C52.6725 51.0039 52.6723 51.0054 52.6723 51.0071C52.7118 52.3877 52.569 53.7773 52.1365 55.0766Z" fill="#C46208"/>
<path d="M45.2812 47.9653C45.3009 48.001 45.3204 48.0369 45.3398 48.0726L51.0853 45.3784L51.0886 45.377C51.0622 45.3255 51.0381 45.2741 51.0119 45.2227C51.0072 45.2136 51.0026 45.2046 50.9979 45.1955C50.9888 45.1779 50.9796 45.1603 50.9705 45.1427C50.9633 45.1289 50.9559 45.1151 50.9487 45.1012C50.9467 45.0973 50.9448 45.0937 50.9428 45.09C50.9355 45.0761 50.9282 45.0623 50.9208 45.0485C50.9187 45.0446 50.9167 45.0407 50.9145 45.0367C50.9078 45.024 50.9006 45.0107 50.8938 44.9979C50.891 44.9927 50.8881 44.9875 50.8853 44.9822C50.8791 44.9704 50.8729 44.9591 50.8665 44.9472C50.8629 44.9405 50.8591 44.9336 50.8554 44.9267C50.8503 44.9172 50.8447 44.9068 50.8395 44.8974C50.8343 44.8879 50.8291 44.8783 50.8239 44.8689C50.8198 44.8613 50.816 44.8542 50.8117 44.8466C50.8045 44.8335 50.7973 44.8202 50.7899 44.8072C50.7877 44.8033 50.7862 44.8003 50.784 44.7966C50.717 44.6757 50.6442 44.5611 50.5746 44.4428C50.5141 44.3402 50.4549 44.2359 50.3925 44.1353C50.2634 43.927 50.129 43.7251 49.9923 43.5261C49.9402 43.45 49.8908 43.3702 49.8376 43.2955C49.6566 43.0417 49.4694 42.7967 49.2772 42.5589C49.1888 42.4495 49.0966 42.346 49.006 42.2401C48.9217 42.1414 48.8396 42.0388 48.7534 41.9432L48.7478 41.9458L43 44.6683C43.7935 45.5979 44.5787 46.691 45.2812 47.9653Z" fill="#FDAE4E"/>
<path d="M34.5499 53.1317L34.551 53.1313C34.5419 53.1156 34.5325 53.0997 34.5235 53.084C33.7775 51.8116 32.9486 50.7315 32.1179 49.8226L32.1157 49.8235L27.7461 51.8931C28.4184 52.565 29.0433 53.328 29.6058 54.169C29.8199 54.4892 30.0268 54.8183 30.221 55.1613L34.5499 53.1317Z" fill="#FDAE4E"/>
<path d="M34.5233 53.0841C34.5324 53.0997 34.5417 53.1157 34.5508 53.1313L45.3374 48.0735L45.3394 48.0725C45.32 48.0368 45.3005 48.0011 45.2808 47.9653C44.5783 46.691 43.7932 45.5978 42.9997 44.6683L32.1177 49.8226C32.9484 50.7315 33.7772 51.8117 34.5233 53.0841Z" fill="#FEC795"/>
<path d="M15.0606 51.7986L15.0703 51.8062C15.1599 51.7532 15.2493 51.7004 15.3422 51.6521C16.324 51.0779 17.4925 50.8405 18.6402 50.8851C19.7919 50.9434 20.9198 51.2807 21.9535 51.7886C24.035 52.8137 25.6849 54.5522 26.8895 56.5019C28.056 58.4815 28.7835 60.7468 28.8162 63.0532C28.8232 64.2017 28.6789 65.3613 28.2917 66.4446C27.8965 67.5197 27.2905 68.5294 26.4484 69.2924C26.0297 69.7045 25.5551 70.0565 25.0222 70.3328C24.8611 70.4163 24.6968 70.4885 24.5312 70.5561V70.5573L23.8733 70.8443L23.8952 70.8477C23.9651 70.8577 24.0354 70.8683 24.1053 70.8765C24.1888 70.8865 24.2723 70.8941 24.3554 70.9017C24.4406 70.9087 24.5259 70.9146 24.6108 70.9193C24.6152 70.9196 24.6195 70.9197 24.624 70.9199C24.6535 70.9215 24.6832 70.9225 24.7128 70.9239C24.7452 70.9254 24.7777 70.9273 24.8101 70.9281C24.8697 70.9299 24.9294 70.9312 24.9888 70.9312C25.0585 70.9318 25.1279 70.9306 25.1971 70.9287L25.3585 70.9246C25.4103 70.9223 25.4615 70.9174 25.513 70.9141C25.5408 70.9122 25.5686 70.9106 25.5965 70.9085C25.6324 70.9057 25.6686 70.9046 25.7044 70.9011L25.8164 70.8882C25.9031 70.8788 25.9895 70.8682 26.0756 70.8553L26.2158 70.8329C26.2759 70.8228 26.3356 70.811 26.3955 70.7993C26.416 70.7953 26.4365 70.7919 26.457 70.7877C26.4571 70.7877 26.4572 70.7877 26.4575 70.7877L26.5833 70.7612C26.7012 70.7347 26.8187 70.7054 26.9347 70.6725L26.9849 70.6572C27.077 70.6304 27.1679 70.6006 27.2588 70.5697C27.2697 70.566 27.2811 70.5628 27.2921 70.5591L27.2999 70.5562L27.4046 70.5186C27.4889 70.4874 27.573 70.4551 27.6565 70.4204L27.7629 70.3757C27.8587 70.3345 27.9534 70.2896 28.0475 70.2436C28.0661 70.2346 28.085 70.2269 28.1035 70.2176L28.1053 70.2164L28.1706 70.1858C28.768 69.876 29.3002 69.4811 29.7695 69.0191C30.9002 67.9066 31.6472 66.3885 31.9921 64.6592C32.2131 63.5508 32.2722 62.3576 32.1506 61.1224C31.9752 59.3426 31.437 57.4823 30.5081 55.6896C30.4152 55.511 30.3194 55.3352 30.2212 55.1618C30.0269 54.8187 29.82 54.4894 29.6058 54.1692C29.0434 53.3281 28.4185 52.565 27.7462 51.8933H27.746C24.8678 49.0181 21.1549 47.7802 18.0828 48.9049C18.0827 48.9049 18.0827 48.905 18.0825 48.905C17.8224 49.0003 17.5667 49.1107 17.3169 49.24C17.0392 49.384 16.7754 49.5468 16.5251 49.725L16.5247 49.7256C16.283 49.898 16.0561 50.088 15.8402 50.29C15.7731 50.3527 15.7135 50.423 15.649 50.4884C15.5062 50.6334 15.3653 50.7805 15.2348 50.9382C15.1635 51.0244 15.0988 51.1164 15.0313 51.2062C14.9194 51.3552 14.8096 51.5063 14.708 51.6648C14.643 51.7663 14.5827 51.8713 14.5219 51.9765C14.5077 52.001 14.4953 52.0272 14.4814 52.0519L15.0606 51.7986Z" fill="#DD7936"/>
<path d="M21.88 72.3847L21.9088 72.3724L21.8794 72.3835L21.88 72.3847Z" fill="#E0760C"/>
<path d="M23.0089 59.1964C25.3094 63.6359 24.9365 68.5396 22.3502 71.0841C21.9314 71.4961 21.4568 71.8488 20.924 72.1244L20.7615 72.202L23.873 70.8444L24.5309 70.5574V70.5562C24.6966 70.4886 24.8608 70.4164 25.0219 70.3329C25.5548 70.0566 26.0294 69.7046 26.4481 69.2925C27.9807 67.5979 28.5421 65.2704 28.4238 63.065C28.3098 60.8439 27.6145 58.6591 26.4504 56.7652C25.3181 54.8603 23.7314 53.1916 21.7718 52.1383C20.7997 51.6087 19.7293 51.2413 18.6223 51.1361C17.5173 51.0109 16.3752 51.1832 15.3419 51.6522C15.249 51.7005 15.1597 51.7533 15.07 51.8063L15.0603 51.7987L14.4814 52.0518L14.4751 52.0545L12.1675 53.0635L12.1681 53.0647C15.8783 51.8845 20.5449 54.4413 23.0089 59.1964Z" fill="#FEC14D"/>
<path d="M20.3428 72.3835L20.3722 72.3718C20.5033 72.3202 20.6331 72.2637 20.7616 72.202L20.9241 72.1244C21.457 71.8487 21.9316 71.4961 22.3503 71.0841C24.9365 68.5396 25.3094 63.6359 23.009 59.1964C20.545 54.4414 15.8784 51.8845 12.1682 53.0648C11.8529 53.1647 11.5437 53.2887 11.2442 53.4439C10.9965 53.5726 10.7614 53.7177 10.538 53.8771C7.31459 56.1741 6.65987 61.5481 9.15931 66.3725C10.1373 68.2597 11.4639 69.7959 12.9384 70.8945C15.294 72.6493 18.0297 73.2797 20.3428 72.3835ZM9.78917 66.0463C7.5169 61.661 8.11202 56.7754 11.0424 54.6871C11.2454 54.542 11.4591 54.4102 11.6844 54.2933C11.9566 54.1523 12.2376 54.0394 12.5241 53.9483C13.0303 53.7872 13.5573 53.7118 14.0928 53.6992C14.0946 53.6968 14.0961 53.694 14.0977 53.6914C14.1663 53.6899 14.2356 53.6957 14.3045 53.6964C14.4002 53.6975 14.4957 53.6977 14.5919 53.7033C14.7129 53.7103 14.8343 53.7243 14.9557 53.7381C15.0444 53.7483 15.1325 53.7548 15.2214 53.7686C15.4227 53.8 15.6247 53.8398 15.8264 53.8898C15.9022 53.9085 15.9777 53.9344 16.0533 53.9556C16.1891 53.9938 16.3248 54.0323 16.4601 54.0786C16.5516 54.11 16.6424 54.1467 16.7335 54.1816C16.8533 54.2274 16.9727 54.2744 17.0918 54.3264C17.1851 54.3672 17.2776 54.4111 17.3704 54.4556C17.4879 54.512 17.6047 54.5713 17.7212 54.6335C17.8114 54.6819 17.9012 54.7306 17.9907 54.7825C18.1118 54.8526 18.2316 54.9275 18.3511 55.004C18.4333 55.0565 18.5157 55.1073 18.597 55.1627C18.7389 55.2594 18.8784 55.3629 19.0174 55.4685C19.0737 55.5112 19.1311 55.5503 19.187 55.5944C19.3777 55.7454 19.5652 55.905 19.7493 56.072C19.8074 56.1249 19.8634 56.1822 19.9208 56.2367C20.0491 56.3581 20.1762 56.4811 20.3004 56.6101C20.3688 56.6812 20.4351 56.7555 20.5022 56.8288C20.6127 56.9497 20.7218 57.0725 20.8285 57.1994C20.896 57.2797 20.9622 57.3612 21.0281 57.4439C21.132 57.574 21.2333 57.7076 21.3331 57.8437C21.3943 57.9273 21.4556 58.0103 21.5153 58.096C21.6203 58.247 21.7212 58.4027 21.8208 58.5604C21.8575 58.6184 21.8974 58.6726 21.9335 58.7316H21.9339C21.9347 58.7329 21.9353 58.7345 21.9361 58.7358C21.9468 58.7532 21.9559 58.7721 21.9664 58.7895C22.1099 59.0274 22.2486 59.2708 22.379 59.5227C22.5038 59.7634 22.6186 60.0058 22.7261 60.2489C22.7617 60.3294 22.7921 60.4104 22.8259 60.4911C22.8937 60.6534 22.9609 60.8157 23.0211 60.9785C23.0581 61.0785 23.0903 61.1784 23.1246 61.2784C23.1736 61.4217 23.2219 61.5648 23.2651 61.7082C23.2984 61.8187 23.3279 61.9287 23.3578 62.0391C23.3932 62.1705 23.4277 62.3015 23.4584 62.4324C23.4864 62.5513 23.5115 62.6697 23.5355 62.7884C23.5597 62.908 23.582 63.0275 23.6022 63.1467C23.6239 63.2741 23.6438 63.401 23.6609 63.5278C23.6751 63.6333 23.6868 63.7381 23.6977 63.8428C23.7123 63.9807 23.7262 64.118 23.7354 64.2545C23.7412 64.3401 23.7438 64.4246 23.7474 64.5098C23.7542 64.6631 23.7605 64.816 23.7604 64.9674C23.7604 65.0149 23.7577 65.0616 23.7569 65.1089C23.7353 66.5984 23.3838 67.9732 22.7267 69.094C22.7255 69.0961 22.7243 69.0981 22.7231 69.1001C22.4565 69.5535 22.1458 69.97 21.7804 70.3295C21.3998 70.7039 20.9684 71.0242 20.4837 71.2752L20.3362 71.3458C20.2195 71.4016 20.1014 71.4533 19.9821 71.5004L19.9553 71.5109C16.5365 72.8356 12.0981 70.5027 9.78917 66.0463Z" fill="#FDA24E"/>
<path d="M19.9823 71.5002C20.1016 71.4531 20.2198 71.4014 20.3364 71.3455L20.484 71.275C20.9686 71.024 21.4 70.7036 21.7806 70.3292C22.1459 69.9697 22.4567 69.5533 22.7233 69.0998C22.6273 69.263 22.5248 69.4209 22.416 69.5727C21.0043 69.6029 19.5261 69.1298 18.1561 68.2508C18.0912 68.2708 18.0241 68.2891 17.9569 68.3073C17.9343 68.3133 17.913 68.3203 17.8901 68.3262C17.7168 68.3714 17.5356 68.4103 17.3491 68.4445C17.3337 68.4472 17.3198 68.4515 17.3043 68.4542V68.4522C16.8127 68.5392 16.2818 68.5891 15.7247 68.5889C13.2652 68.5883 11.2717 67.6567 11.2721 66.5088L11.273 66.473L11.2735 64.8067H11.2747L11.2735 64.7649C11.2737 63.9488 12.2841 63.2445 13.7505 62.905C12.2898 59.5157 12.4817 55.9579 14.093 53.6991C13.5574 53.7118 13.0305 53.7873 12.5243 53.9483C12.2378 54.0393 11.9568 54.1521 11.6847 54.2933C11.4593 54.4102 11.2456 54.5419 11.0426 54.6871C8.11223 56.7754 7.51711 61.661 9.78938 66.0462C12.0985 70.5027 16.5367 72.8356 19.9558 71.5108L19.9823 71.5002Z" fill="#EE8438"/>
<path d="M21.9668 58.7893C21.9563 58.7718 21.9471 58.7529 21.9365 58.7356C21.947 58.7528 21.9561 58.7716 21.9666 58.789L21.9668 58.7893Z" fill="#EE8438"/>
<path d="M21.9335 58.7313C21.8975 58.6723 21.8576 58.6183 21.8208 58.5601C21.8569 58.617 21.894 58.6729 21.9293 58.7307C21.9307 58.7309 21.9322 58.731 21.9335 58.7313Z" fill="#EE8438"/>
<path d="M23.0215 60.9783C23.0584 61.0782 23.0907 61.1782 23.125 61.2782C23.0907 61.1782 23.0585 61.0782 23.0215 60.9783Z" fill="#EE8438"/>
<path d="M23.6978 63.8426C23.7122 63.9803 23.7263 64.1178 23.7354 64.2543C23.7262 64.1178 23.7125 63.9805 23.6978 63.8426Z" fill="#EE8438"/>
<path d="M23.6025 63.1467C23.624 63.2739 23.6443 63.4011 23.6613 63.5278C23.644 63.401 23.6241 63.274 23.6025 63.1467Z" fill="#EE8438"/>
<path d="M23.4585 62.4323C23.4864 62.5512 23.5117 62.6698 23.5356 62.7883C23.5116 62.6696 23.4865 62.5512 23.4585 62.4323Z" fill="#EE8438"/>
<path d="M23.7476 64.5096C23.7541 64.6628 23.7607 64.8159 23.7605 64.9672C23.7606 64.8158 23.7543 64.6629 23.7476 64.5096Z" fill="#EE8438"/>
<path d="M14.9561 53.7381C15.0446 53.7482 15.1329 53.7547 15.2217 53.7686C15.1328 53.7547 15.0447 53.7483 14.9561 53.7381Z" fill="#EE8438"/>
<path d="M23.2651 61.7079C23.2983 61.8183 23.3279 61.9286 23.3578 62.0388C23.3279 61.9285 23.2984 61.8184 23.2651 61.7079Z" fill="#EE8438"/>
<path d="M19.0176 55.4682C19.0738 55.5109 19.1313 55.5501 19.1872 55.5941C19.1315 55.5501 19.0739 55.511 19.0176 55.4682Z" fill="#EE8438"/>
<path d="M20.8286 57.1993C20.8961 57.2794 20.9624 57.361 21.0282 57.4437C20.9623 57.361 20.8961 57.2795 20.8286 57.1993Z" fill="#EE8438"/>
<path d="M21.3335 57.8434C21.3947 57.9269 21.4562 58.0102 21.5158 58.0958C21.4561 58.01 21.3947 57.927 21.3335 57.8434Z" fill="#EE8438"/>
<path d="M22.7261 60.2487C22.7618 60.3292 22.7921 60.4102 22.8258 60.491C22.7921 60.4102 22.7617 60.3293 22.7261 60.2487Z" fill="#EE8438"/>
<path d="M18.3511 55.0037C18.4332 55.0562 18.5159 55.107 18.5971 55.1623C18.5157 55.107 18.4332 55.0563 18.3511 55.0037Z" fill="#EE8438"/>
<path d="M17.7212 54.6333C17.8113 54.6816 17.9013 54.7306 17.9907 54.7823C17.9012 54.7305 17.8114 54.6816 17.7212 54.6333Z" fill="#EE8438"/>
<path d="M22.7271 69.0937C23.3842 67.9728 23.7356 66.5982 23.7572 65.1086C23.734 66.5964 23.3844 67.9735 22.7271 69.0937Z" fill="#EE8438"/>
<path d="M13.7502 62.9048C14.3431 62.7675 15.0085 62.6884 15.7149 62.6879V62.6877H15.7264C15.7814 62.6877 15.8361 62.6883 15.8904 62.6889V62.6915C15.9028 62.6918 15.915 62.6921 15.9274 62.6925C15.9009 62.6007 15.8824 62.5078 15.8824 62.4126L15.8836 62.3768L15.884 60.7104H15.8851L15.884 60.6686C15.8843 59.5225 17.8718 58.5938 20.3257 58.5914L20.3372 58.5908C20.3922 58.5914 20.4468 58.592 20.5011 58.5926V58.5949C21.0029 58.6037 21.4829 58.6507 21.9292 58.7306C21.8939 58.6728 21.8568 58.617 21.8207 58.5601C21.7211 58.4024 21.6202 58.2466 21.5152 58.0957C21.4556 58.0101 21.3942 57.9268 21.333 57.8433C21.2332 57.7072 21.1318 57.5737 21.028 57.4435C20.9622 57.361 20.8958 57.2793 20.8284 57.1991C20.7217 57.0721 20.6126 56.9494 20.5021 56.8285C20.435 56.7551 20.3687 56.6808 20.3003 56.6098C20.176 56.4807 20.0488 56.3578 19.9207 56.2364C19.8633 56.182 19.8073 56.1246 19.7492 56.0717C19.5651 55.9046 19.3776 55.745 19.1869 55.5941C19.131 55.5501 19.0736 55.5109 19.0173 55.4681C18.8783 55.3626 18.7388 55.2591 18.5969 55.1623C18.5157 55.1069 18.4331 55.0562 18.351 55.0037C18.2314 54.9272 18.1116 54.8523 17.9906 54.7822C17.9012 54.7304 17.8112 54.6814 17.7211 54.6332C17.6047 54.5709 17.4878 54.5116 17.3703 54.4552C17.2776 54.4107 17.1848 54.3668 17.0917 54.326C16.9726 54.274 16.8532 54.2271 16.7334 54.1813C16.6423 54.1464 16.5513 54.1096 16.46 54.0782C16.3247 54.0319 16.1889 53.9934 16.0532 53.9553C15.9776 53.9341 15.9021 53.9081 15.8263 53.8894C15.6245 53.8395 15.4226 53.7998 15.2213 53.7683C15.1325 53.7544 15.0443 53.7479 14.9556 53.7378C14.8341 53.7238 14.7127 53.7099 14.5918 53.7029C14.4956 53.6974 14.4001 53.6971 14.3044 53.6961C14.2355 53.6953 14.1662 53.6895 14.0976 53.6911C14.0959 53.6936 14.0944 53.6964 14.0927 53.6988C12.4814 55.9577 12.2895 59.5155 13.7502 62.9048Z" fill="#C46208"/>
<path d="M23.3942 62.1799L23.3945 62.1805C23.533 62.7177 23.6317 63.252 23.6908 63.7792C23.6347 63.8092 23.5776 63.8391 23.5177 63.8674L23.4237 63.9103C23.3605 63.9392 23.2956 63.9662 23.2288 63.9932L23.1251 64.0337C23.0459 64.0632 22.9643 64.0919 22.8808 64.1189L22.8132 64.1418C22.708 64.1748 22.5992 64.2053 22.4879 64.2335L22.3782 64.2601C22.2982 64.2795 22.2171 64.2977 22.1343 64.3147L22.0029 64.3411L21.9151 64.3583V64.3559C21.4237 64.4428 20.8926 64.4928 20.3354 64.4928C20.2675 64.4928 20.2014 64.4894 20.1342 64.488C20.1606 64.5798 20.1792 64.6727 20.179 64.7678L20.1779 64.809H20.179L20.1787 66.5052H20.1784V66.5111C20.1784 66.6103 20.1584 66.7069 20.1296 66.8025C20.1229 66.8244 20.1162 66.8462 20.1081 66.868C20.0735 66.961 20.0291 67.0524 19.9689 67.1409C19.9625 67.1503 19.9538 67.1592 19.9472 67.1685C19.889 67.2499 19.8189 67.3286 19.7405 67.4051C19.7221 67.4232 19.7044 67.4411 19.6848 67.4591C19.5954 67.5402 19.4965 67.6185 19.3858 67.6929C19.3676 67.7052 19.3473 67.7166 19.3285 67.7286C19.2261 67.7945 19.1156 67.8573 18.9977 67.917C18.9726 67.9297 18.949 67.9429 18.9234 67.9552C18.7883 68.0203 18.6442 68.0811 18.492 68.1376C18.4629 68.1483 18.4326 68.1582 18.4031 68.1686C18.3224 68.1972 18.2412 68.2251 18.1562 68.2509C19.5262 69.1299 21.0045 69.6029 22.4162 69.5727C22.525 69.4208 22.6274 69.263 22.7235 69.0998C22.7247 69.0979 22.7259 69.0958 22.7271 69.0938C23.3845 67.9735 23.7341 66.5965 23.7572 65.1087C23.7581 65.0614 23.7607 65.0147 23.7607 64.9671C23.761 64.816 23.7545 64.6628 23.7478 64.5095C23.7442 64.4245 23.7416 64.3398 23.7358 64.2543C23.7267 64.1177 23.7126 63.9803 23.6981 63.8425C23.6872 63.7377 23.6755 63.633 23.6613 63.5275C23.6443 63.4009 23.6242 63.2737 23.6026 63.1464C23.5823 63.0271 23.56 62.9078 23.5359 62.7881C23.5119 62.6697 23.4866 62.5511 23.4588 62.4321C23.4281 62.3011 23.3936 62.1701 23.3582 62.0388C23.3284 61.9286 23.2988 61.8183 23.2655 61.7079C23.2223 61.5646 23.1739 61.4214 23.125 61.2782C23.0908 61.1782 23.0585 61.0782 23.0215 60.9783C22.9613 60.8154 22.8939 60.6532 22.8263 60.4909C22.7925 60.4102 22.7622 60.3292 22.7265 60.2486C22.619 60.0054 22.5043 59.7632 22.3794 59.5225C22.8329 60.3972 23.165 61.2917 23.3942 62.1799Z" fill="#C46208"/>
<path d="M22.3791 59.5226C22.2486 59.2707 22.11 59.0273 21.9665 58.7894C21.9665 58.7894 21.9664 58.7891 21.9663 58.7889C22.1098 59.027 22.2486 59.2707 22.3791 59.5226Z" fill="#C46208"/>
<path d="M28.8163 63.0533C28.7837 60.7469 28.056 58.4816 26.8896 56.502C25.685 54.5524 24.0351 52.8138 21.9535 51.7887C20.9199 51.2808 19.792 50.9435 18.6402 50.8852C17.4926 50.8406 16.3241 51.078 15.3423 51.6522C16.3756 51.1832 17.5177 51.011 18.6226 51.1361C19.7296 51.2413 20.8001 51.6087 21.7722 52.1383C23.7319 53.1916 25.3186 54.8603 26.4508 56.7652C27.6148 58.6591 28.3102 60.8437 28.4242 63.065C28.5423 65.2703 27.9811 67.5979 26.4485 69.2925C27.2906 68.5295 27.8965 67.5198 28.2918 66.4447C28.679 65.3615 28.8233 64.2018 28.8163 63.0533Z" fill="#C46208"/>
<path d="M11.8984 71.3029C11.9072 71.2814 11.9147 71.2598 11.9222 71.2382C11.9147 71.2598 11.9071 71.2814 11.8984 71.3029Z" fill="#E5E5E5"/>
<path d="M11.1113 72.1429C11.1283 72.1321 11.1467 72.1221 11.1633 72.1113C11.1468 72.1221 11.1283 72.1321 11.1113 72.1429Z" fill="#E5E5E5"/>
<path d="M10.7036 72.3669C10.7297 72.3545 10.7539 72.3414 10.7794 72.3288C10.754 72.3413 10.7297 72.3545 10.7036 72.3669Z" fill="#E5E5E5"/>
<path d="M11.7324 71.595C11.7386 71.5866 11.7467 71.5787 11.7526 71.5704C11.7465 71.5787 11.7386 71.5866 11.7324 71.595Z" fill="#E5E5E5"/>
<path d="M11.5211 71.8282C11.5022 71.8461 11.4838 71.864 11.4639 71.8817C11.4839 71.8641 11.5021 71.8461 11.5211 71.8282Z" fill="#E5E5E5"/>
<path d="M11.7507 73.3125C11.6926 73.394 11.6224 73.4728 11.5439 73.5492C11.6224 73.4726 11.6925 73.3939 11.7507 73.3125Z" fill="#E5E5E5"/>
<path d="M9.68066 72.7303C9.70588 72.7238 9.72952 72.7164 9.75425 72.7098C9.72952 72.7164 9.70576 72.7238 9.68066 72.7303Z" fill="#E5E5E5"/>
<path d="M10.7271 74.0992C10.5918 74.1642 10.4478 74.2252 10.2954 74.2817C10.4478 74.2251 10.5918 74.1643 10.7271 74.0992Z" fill="#E5E5E5"/>
<path d="M11.9118 73.0119C11.8772 73.105 11.8327 73.1965 11.7725 73.2848C11.8328 73.1963 11.8772 73.105 11.9118 73.0119Z" fill="#E5E5E5"/>
<path d="M11.1325 73.8724C11.0299 73.9385 10.919 74.0013 10.8008 74.0613C10.919 74.0015 11.0299 73.9385 11.1325 73.8724Z" fill="#E5E5E5"/>
<path d="M7.52818 74.7328C8.08518 74.7329 8.61624 74.6831 9.10785 74.596L9.10821 72.8548C9.12148 72.8524 9.1333 72.8489 9.14645 72.8465C8.6932 72.9291 8.20413 72.9771 7.69285 72.9857V72.9878C7.63844 72.989 7.58415 72.9896 7.52914 72.9896C5.09955 72.9884 3.12503 72.0797 3.07798 70.9506H3.07713L3.07653 72.6169L3.07568 72.6527C3.07556 72.8801 3.15651 73.0985 3.30116 73.3035C3.88615 74.1326 5.55594 74.7323 7.52818 74.7328Z" fill="#E5E5E5"/>
<path d="M11.9331 72.9464C11.9584 72.8625 11.975 72.7772 11.9781 72.6903C11.9786 72.6785 11.982 72.667 11.982 72.6551C11.9818 72.7542 11.9619 72.8511 11.9331 72.9464Z" fill="#E5E5E5"/>
<path d="M11.8985 71.3029C11.8611 71.3941 11.8145 71.4839 11.7525 71.5704C11.7466 71.5787 11.7385 71.5867 11.7323 71.595C11.6725 71.6753 11.6007 71.7527 11.521 71.8282C11.502 71.8461 11.4838 71.864 11.4638 71.8817C11.3737 71.9612 11.2744 72.0381 11.1637 72.1111C11.1472 72.1219 11.1288 72.1321 11.1118 72.1427C11.0088 72.2078 10.8979 72.2697 10.7798 72.3287C10.7543 72.3414 10.73 72.3545 10.704 72.3668C10.5694 72.4308 10.4264 72.4907 10.275 72.5461C10.2489 72.5558 10.2214 72.5643 10.1949 72.5737C10.0542 72.6228 9.90752 72.6683 9.75467 72.7097C9.72981 72.7163 9.70617 72.7237 9.68107 72.7302C9.50964 72.7745 9.33085 72.8131 9.14651 72.8465C9.13336 72.849 9.12142 72.8525 9.10827 72.8548L9.10791 74.596V74.5982C9.12359 74.5954 9.13759 74.5912 9.15315 74.5884C9.33942 74.5543 9.5205 74.5153 9.69362 74.4703C9.71666 74.4644 9.73814 74.4574 9.76094 74.4513C9.91584 74.4093 10.0644 74.3627 10.2067 74.3125C10.2364 74.3022 10.2667 74.2923 10.2956 74.2815C10.448 74.2251 10.5922 74.1641 10.7273 74.099C10.7527 74.0867 10.7761 74.0737 10.8009 74.0612C10.9191 74.0013 11.0301 73.9384 11.1326 73.8723C11.1512 73.8604 11.1714 73.849 11.1893 73.837C11.3001 73.7625 11.3991 73.684 11.4885 73.6029C11.5081 73.5852 11.5257 73.5671 11.5441 73.5491C11.6227 73.4725 11.6928 73.3937 11.7509 73.3124C11.7575 73.3031 11.7662 73.2942 11.7726 73.2848C11.8328 73.1964 11.8773 73.1049 11.912 73.0119C11.92 72.9902 11.9268 72.9684 11.9334 72.9464C11.9622 72.851 11.9822 72.7541 11.9823 72.655L11.9819 72.6491H11.9823L11.9829 70.9528H11.9815C11.9774 71.0499 11.9541 71.1447 11.9223 71.2381C11.9147 71.2598 11.9071 71.2814 11.8985 71.3029Z" fill="#D8D8D6"/>
<path d="M7.52916 72.9896L7.51746 72.989L7.51866 68.8321C5.06483 68.8338 3.07751 69.7628 3.07715 70.9095L3.07799 70.9506C3.12504 72.0797 5.09957 72.9884 7.52916 72.9896Z" fill="white"/>
<path d="M7.69287 72.9857C8.20427 72.9772 8.69323 72.9291 9.14647 72.8465C9.33081 72.813 9.50948 72.7744 9.68103 72.7302C9.70613 72.7236 9.72989 72.7163 9.75462 72.7096C9.90748 72.6684 10.0542 72.6229 10.1948 72.5737C10.2214 72.5644 10.2489 72.5557 10.2749 72.5461C10.4264 72.4907 10.5693 72.4307 10.7039 72.3668C10.73 72.3543 10.7544 72.3412 10.7797 72.3287C10.8978 72.2698 11.0088 72.2078 11.1117 72.1426C11.1286 72.1319 11.1472 72.1219 11.1637 72.111C11.2745 72.038 11.3736 71.9612 11.4637 71.8817C11.4838 71.8641 11.5021 71.8461 11.5209 71.8281C11.6005 71.7526 11.6723 71.6751 11.7323 71.5949C11.7384 71.5866 11.7465 71.5786 11.7524 71.5703C11.8144 71.4838 11.861 71.3941 11.8984 71.3028C11.9071 71.2814 11.9148 71.2598 11.9222 71.2382C11.9538 71.1448 11.9772 71.05 11.9813 70.9529L11.9825 70.9117C11.9829 69.7892 10.0769 68.8766 7.69408 68.8355L7.69287 72.9857Z" fill="white"/>
<path d="M7.51709 72.989L7.52879 72.9896C7.5838 72.9896 7.63809 72.989 7.6925 72.9878V72.9857L7.69371 68.8356V68.8329C7.6393 68.8323 7.58465 68.8318 7.53 68.8318H7.5183V68.8321L7.51709 72.989Z" fill="#EFEFEF"/>
<path d="M8.44549 78.7421C8.42667 78.76 8.40846 78.7778 8.38867 78.7954C8.40858 78.7779 8.42667 78.7601 8.44549 78.7421Z" fill="#E5E5E5"/>
<path d="M8.65771 78.5086C8.66375 78.5004 8.67159 78.4926 8.6775 78.4844C8.67159 78.4925 8.66375 78.5004 8.65771 78.5086Z" fill="#E5E5E5"/>
<path d="M8.82324 78.2167C8.83205 78.1952 8.83953 78.1737 8.84677 78.1521C8.83953 78.1737 8.83205 78.1953 8.82324 78.2167Z" fill="#E5E5E5"/>
<path d="M8.67373 80.2281C8.61619 80.3084 8.54706 80.386 8.46973 80.4615C8.54718 80.386 8.61619 80.3084 8.67373 80.2281Z" fill="#E5E5E5"/>
<path d="M6.69629 81.3619C6.84564 81.3211 6.98884 81.2762 7.12649 81.228C6.98884 81.2762 6.84552 81.3211 6.69629 81.3619Z" fill="#E5E5E5"/>
<path d="M7.22266 81.1942C7.37346 81.1382 7.51617 81.078 7.65021 81.0134C7.5163 81.0779 7.37334 81.1382 7.22266 81.1942Z" fill="#E5E5E5"/>
<path d="M8.85791 79.8593C8.8865 79.7641 8.90653 79.6675 8.90653 79.5684C8.90653 79.6675 8.88662 79.7641 8.85791 79.8593Z" fill="#E5E5E5"/>
<path d="M6.03253 81.5095L6.03289 79.7687C6.04954 79.7658 6.06438 79.7614 6.0809 79.7584C5.625 79.8418 5.13243 79.8903 4.61753 79.899V79.9016C4.56312 79.9022 4.50859 79.9028 4.45394 79.9028H4.44212V79.9024C2.01796 79.8989 0.0497035 78.991 0.00277422 77.8643H0.00156847L0.00120582 79.53L7.81375e-08 79.5658C-0.000120563 79.8667 0.139462 80.1516 0.385449 80.4099C1.07865 81.1374 2.63757 81.6455 4.45298 81.646C5.00997 81.6463 5.54104 81.5966 6.03253 81.5095Z" fill="#E5E5E5"/>
<path d="M7.62842 79.2807C7.65484 79.2683 7.67933 79.255 7.70502 79.2422C7.67933 79.255 7.65472 79.2682 7.62842 79.2807Z" fill="#E5E5E5"/>
<path d="M7.11475 79.4889C7.1437 79.4788 7.17338 79.4695 7.20161 79.459C7.17338 79.4694 7.14358 79.4789 7.11475 79.4889Z" fill="#E5E5E5"/>
<path d="M6.60156 79.6449C6.63088 79.6373 6.65863 79.6287 6.68758 79.6209C6.65863 79.6289 6.63088 79.6374 6.60156 79.6449Z" fill="#E5E5E5"/>
<path d="M8.69775 80.1977C8.75759 80.1098 8.80187 80.0187 8.83625 79.9261C8.80175 80.0187 8.75759 80.1098 8.69775 80.1977Z" fill="#E5E5E5"/>
<path d="M6.08838 81.5C6.26934 81.4667 6.44523 81.4288 6.61377 81.3852C6.44535 81.4288 6.26922 81.4666 6.08838 81.5Z" fill="#E5E5E5"/>
<path d="M8.82338 78.2167C8.7861 78.308 8.73929 78.3978 8.67728 78.4844C8.67137 78.4926 8.66353 78.5004 8.6575 78.5086C8.59742 78.589 8.52552 78.6666 8.44565 78.7422C8.42683 78.7601 8.40874 78.778 8.38883 78.7956C8.29859 78.8752 8.19931 78.952 8.08844 79.025C8.07203 79.0358 8.05381 79.0458 8.03692 79.0564C7.93414 79.1215 7.82303 79.1833 7.70504 79.2423C7.67934 79.2551 7.65485 79.2684 7.62843 79.2808C7.4944 79.3444 7.35229 79.404 7.20185 79.4592C7.1735 79.4696 7.14382 79.4789 7.11499 79.4891C6.9783 79.5368 6.83594 79.5808 6.68767 79.6211C6.65872 79.629 6.63109 79.6375 6.60166 79.6451C6.43457 79.6882 6.26048 79.7257 6.08109 79.7586C6.06456 79.7617 6.04973 79.7661 6.03308 79.769L6.03271 81.5097V81.5124C6.0519 81.509 6.06903 81.5038 6.08821 81.5003C6.26905 81.4669 6.44519 81.4292 6.6136 81.3855C6.64183 81.3783 6.66825 81.3697 6.69612 81.3621C6.84535 81.3213 6.98879 81.2764 7.12632 81.2282C7.15854 81.2168 7.19135 81.2062 7.22296 81.1945C7.37364 81.1385 7.5166 81.0782 7.65051 81.0137C7.67741 81.0008 7.70214 80.987 7.72832 80.9737C7.84462 80.9147 7.95368 80.8529 8.0549 80.7877C8.07468 80.775 8.09604 80.7631 8.11522 80.7501C8.225 80.6761 8.32345 80.5982 8.41236 80.5177C8.43263 80.4992 8.45096 80.4806 8.47002 80.4617C8.54735 80.3862 8.61648 80.3085 8.67403 80.2283C8.68139 80.218 8.6908 80.2084 8.69779 80.198C8.75763 80.1101 8.80191 80.019 8.83629 79.9263C8.84449 79.9041 8.85137 79.8819 8.85813 79.8595C8.88672 79.7643 8.90674 79.6677 8.90674 79.5686V79.5633H8.9071L8.90723 79.1081L8.90771 77.8671H8.90614C8.90204 77.9642 8.87875 78.0589 8.84703 78.1524C8.83967 78.1738 8.83219 78.1952 8.82338 78.2167Z" fill="#D8D8D6"/>
<path d="M4.44202 79.9026L4.44322 75.7453C1.98939 75.7477 0.00170613 76.6766 0.00146484 77.8227L0.00267243 77.8645C0.0496017 78.9911 2.01798 79.8991 4.44202 79.9026Z" fill="white"/>
<path d="M4.61888 75.7488L4.61768 79.899C5.13269 79.8904 5.62515 79.8418 6.08105 79.7583C6.26044 79.7254 6.43453 79.6879 6.60162 79.6448C6.63093 79.6372 6.65868 79.6286 6.68763 79.6208C6.83578 79.5806 6.97826 79.5366 7.11494 79.4888C7.14378 79.4788 7.17358 79.4693 7.20181 79.4589C7.35224 79.4036 7.49448 79.3442 7.62839 79.2805C7.65469 79.268 7.6793 79.2548 7.705 79.242C7.82311 79.183 7.9341 79.1212 8.03688 79.0561C8.05365 79.0455 8.07199 79.0354 8.0884 79.0247C8.19926 78.9516 8.29855 78.8747 8.38879 78.7952C8.4087 78.7778 8.42679 78.7598 8.44561 78.7419C8.52548 78.6663 8.59738 78.5887 8.65746 78.5083C8.66349 78.5 8.67133 78.4922 8.67724 78.4841C8.73925 78.3975 8.78606 78.3077 8.82334 78.2164C8.83214 78.1951 8.83962 78.1735 8.84686 78.1519C8.87859 78.0584 8.90188 77.9637 8.90598 77.8666L8.90718 77.8248C8.90743 76.9168 7.65771 76.146 5.91903 75.8625C5.85678 75.8522 5.79513 75.8416 5.73155 75.8328C5.37735 75.7835 5.00409 75.7556 4.61888 75.7488Z" fill="white"/>
<path d="M4.44238 79.9026V79.9029H4.4542C4.50885 79.9029 4.56351 79.9023 4.61779 79.9017V79.8992L4.619 75.749V75.7469C4.56459 75.7456 4.50994 75.745 4.45529 75.745H4.44359V75.7454L4.44238 79.9026Z" fill="#EFEFEF"/>
<path d="M20.0718 78.2923C20.0894 78.2811 20.1083 78.2707 20.1256 78.2594C20.1085 78.2707 20.0893 78.2811 20.0718 78.2923Z" fill="#E5E5E5"/>
<path d="M19.6646 78.5159C19.6915 78.5032 19.7162 78.4898 19.7422 78.4767C19.7163 78.4898 19.6913 78.5033 19.6646 78.5159Z" fill="#E5E5E5"/>
<path d="M20.8599 77.4517C20.8685 77.4302 20.8762 77.4086 20.8835 77.387C20.8762 77.4086 20.8687 77.4302 20.8599 77.4517Z" fill="#E5E5E5"/>
<path d="M20.4827 77.9765C20.4635 77.9947 20.4451 78.0129 20.4248 78.0307C20.4451 78.0128 20.4635 77.9947 20.4827 77.9765Z" fill="#E5E5E5"/>
<path d="M18.0694 80.7448L18.07 79.0036C18.0836 79.0013 18.0956 78.9976 18.1092 78.995C17.6557 79.0777 17.1664 79.1258 16.6548 79.1343V79.1363C16.6004 79.1369 16.5457 79.1381 16.4907 79.1381C14.0615 79.1369 12.0868 78.2282 12.0398 77.0992H12.0386L12.0381 78.7656L12.0371 78.8014C12.037 79.1749 12.2508 79.5246 12.6202 79.8277C13.3861 80.4561 14.8304 80.8811 16.4897 80.8816C17.0467 80.8817 17.5778 80.8319 18.0694 80.7448Z" fill="#E5E5E5"/>
<path d="M20.712 79.4611C20.6539 79.5425 20.5838 79.6212 20.5054 79.6977C20.5838 79.6212 20.6538 79.5425 20.712 79.4611Z" fill="#E5E5E5"/>
<path d="M20.8945 79.0952C20.8969 79.087 20.9002 79.0789 20.9025 79.0707C20.9266 78.9832 20.9433 78.8945 20.9433 78.8038C20.9434 78.9028 20.9232 78.9997 20.8945 79.0952Z" fill="#E5E5E5"/>
<path d="M20.1509 79.9857C20.2615 79.9111 20.3604 79.8329 20.4497 79.7518C20.3604 79.8327 20.2615 79.9113 20.1509 79.9857Z" fill="#E5E5E5"/>
<path d="M18.6416 78.8792C18.6678 78.8724 18.6924 78.8647 18.7183 78.8577C18.6925 78.8647 18.6678 78.8724 18.6416 78.8792Z" fill="#E5E5E5"/>
<path d="M19.7627 80.2097C19.8806 80.15 19.9911 80.0873 20.0935 80.0213C19.9912 80.0872 19.8806 80.15 19.7627 80.2097Z" fill="#E5E5E5"/>
<path d="M18.7217 80.6001C18.8768 80.558 19.0252 80.5115 19.1678 80.4612C19.0253 80.5115 18.8768 80.558 18.7217 80.6001Z" fill="#E5E5E5"/>
<path d="M20.7339 79.4335C20.7941 79.345 20.8386 79.2536 20.8731 79.1606C20.8385 79.2537 20.7941 79.3451 20.7339 79.4335Z" fill="#E5E5E5"/>
<path d="M19.2568 80.4303C19.4091 80.3738 19.5533 80.313 19.6883 80.2478C19.5533 80.313 19.4092 80.3739 19.2568 80.4303Z" fill="#E5E5E5"/>
<path d="M20.8599 77.4516C20.8226 77.5429 20.7759 77.6324 20.714 77.719C20.7079 77.7276 20.6997 77.7357 20.6934 77.7441C20.6337 77.8241 20.5621 77.9013 20.4828 77.9766C20.4636 77.9948 20.4451 78.0129 20.4248 78.0308C20.3348 78.1102 20.236 78.1867 20.1255 78.2595C20.1084 78.2707 20.0893 78.2812 20.0717 78.2923C19.9695 78.3569 19.8594 78.4183 19.7423 78.4768C19.7161 78.4898 19.6913 78.5032 19.6646 78.516C19.5304 78.5797 19.3879 78.6394 19.2373 78.6947C19.2102 78.7046 19.1818 78.7135 19.1543 78.7233C19.0148 78.7719 18.8695 78.8169 18.718 78.8578C18.6922 78.8648 18.6675 78.8725 18.6413 78.8793C18.4705 78.9233 18.2923 78.9616 18.1087 78.9952C18.0951 78.9977 18.0831 79.0013 18.0695 79.0038L18.0688 80.745V80.7471C18.0844 80.7444 18.0982 80.7403 18.1136 80.7374C18.3002 80.7033 18.4813 80.6643 18.6546 80.6191C18.6775 80.6132 18.6988 80.6063 18.7214 80.6003C18.8765 80.5583 19.025 80.5118 19.1675 80.4615C19.1972 80.4511 19.2275 80.4413 19.2564 80.4305C19.4087 80.374 19.5528 80.3132 19.6878 80.248C19.7134 80.2356 19.7372 80.2226 19.7622 80.2099C19.88 80.1502 19.9907 80.0874 20.093 80.0215C20.1118 80.0094 20.132 79.998 20.1503 79.9858C20.2608 79.9113 20.3598 79.8329 20.4491 79.7519C20.4688 79.734 20.4864 79.7159 20.5048 79.6979C20.5832 79.6213 20.6533 79.5428 20.7115 79.4613C20.7181 79.4521 20.7268 79.4431 20.7332 79.4337C20.7934 79.3454 20.8378 79.2538 20.8724 79.1608C20.8805 79.1391 20.8873 79.1173 20.8939 79.0953C20.9226 78.9999 20.9428 78.903 20.9428 78.8039L20.9425 78.7981H20.9431L20.9435 77.1017H20.9423C20.9382 77.1988 20.9149 77.2937 20.8832 77.387C20.8762 77.4085 20.8687 77.4301 20.8599 77.4516Z" fill="#D8D8D6"/>
<path d="M16.4902 79.1382L16.4788 79.1376L16.4796 74.9805C16.3429 74.9805 16.208 74.9841 16.0744 74.9898C13.8108 75.087 12.0383 75.9751 12.0381 77.0573L12.0393 77.0991C12.0863 78.2283 14.061 79.137 16.4902 79.1382Z" fill="white"/>
<path d="M16.6543 79.1343C17.1659 79.1259 17.6553 79.0778 18.1087 78.9951C18.2925 78.9616 18.4705 78.9232 18.6414 78.8792C18.6676 78.8724 18.6923 78.8647 18.7181 78.8577C18.8695 78.8168 19.0149 78.7718 19.1543 78.7232C19.1818 78.7135 19.2103 78.7045 19.2373 78.6946C19.388 78.6394 19.5305 78.5798 19.6646 78.5159C19.6914 78.5033 19.7164 78.4898 19.7423 78.4767C19.8595 78.4182 19.9698 78.3568 20.0718 78.2923C20.0893 78.2811 20.1085 78.2707 20.1256 78.2595C20.236 78.1866 20.3349 78.1101 20.4249 78.0307C20.4452 78.013 20.4637 77.9948 20.4828 77.9766C20.5622 77.9013 20.6336 77.8241 20.6935 77.7441C20.6997 77.7356 20.7081 77.7275 20.7141 77.719C20.776 77.6325 20.8227 77.5429 20.86 77.4515C20.8686 77.4301 20.8762 77.4085 20.8836 77.3869C20.9153 77.2935 20.9386 77.1988 20.9427 77.1016L20.9439 77.0604C20.944 76.6102 20.6346 76.1944 20.1139 75.8541C19.3364 75.3456 18.0827 75.0089 16.6555 74.9843L16.6543 79.1343Z" fill="white"/>
<path d="M16.479 79.1376L16.4905 79.1382C16.5455 79.1382 16.6001 79.137 16.6545 79.1364V79.1343L16.6556 74.9841V74.9814C16.601 74.9808 16.5466 74.9801 16.4917 74.9801H16.4799V74.9805L16.479 79.1376Z" fill="#EFEFEF"/>
<path d="M17.3049 66.711C17.3185 66.7087 17.3304 66.705 17.3441 66.7026C16.8906 66.7852 16.4013 66.8333 15.8896 66.8418V66.8438C15.8352 66.845 15.7806 66.8456 15.7256 66.8456C13.2963 66.8444 11.3217 65.9358 11.2746 64.8067H11.2734L11.2729 66.473L11.272 66.5088C11.2716 67.6567 13.2651 68.5884 15.7246 68.5889C16.2817 68.589 16.8126 68.5392 17.3043 68.4522L17.3049 66.711Z" fill="#E5E5E5"/>
<path d="M17.8901 68.3263C17.7168 68.3715 17.5356 68.4104 17.3491 68.4446C17.5358 68.4103 17.7168 68.3715 17.8901 68.3263Z" fill="#E5E5E5"/>
<path d="M17.9565 68.3074C18.0239 68.2891 18.0908 68.2707 18.1557 68.2509C18.2407 68.2251 18.322 68.1972 18.4026 68.1686C18.2602 68.2188 18.1117 68.2654 17.9565 68.3074Z" fill="#E5E5E5"/>
<path d="M19.3604 65.9668C19.3433 65.9781 19.3243 65.9886 19.3066 65.9997C19.3243 65.9884 19.3433 65.9781 19.3604 65.9668Z" fill="#E5E5E5"/>
<path d="M18.9776 66.1841C18.9515 66.1972 18.9266 66.2107 18.8999 66.2232C18.9268 66.2105 18.9515 66.1972 18.9776 66.1841Z" fill="#E5E5E5"/>
<path d="M17.9532 66.5651C17.9274 66.5721 17.9026 66.5798 17.8765 66.5866C17.9026 66.5797 17.9273 66.5721 17.9532 66.5651Z" fill="#E5E5E5"/>
<path d="M18.4725 66.402C18.4455 66.4119 18.417 66.4209 18.3896 66.4306C18.417 66.4209 18.4455 66.4118 18.4725 66.402Z" fill="#E5E5E5"/>
<path d="M19.9493 65.4262C19.9433 65.4348 19.935 65.4429 19.9287 65.4514C19.935 65.443 19.9432 65.4349 19.9493 65.4262Z" fill="#E5E5E5"/>
<path d="M20.1189 65.0943C20.1115 65.116 20.1039 65.1376 20.0952 65.1589C20.104 65.1376 20.1115 65.116 20.1189 65.0943Z" fill="#E5E5E5"/>
<path d="M18.9231 67.9552C18.788 68.0203 18.6439 68.0812 18.4917 68.1377C18.6439 68.0812 18.788 68.0204 18.9231 67.9552Z" fill="#E5E5E5"/>
<path d="M19.7402 67.4051C19.8188 67.3285 19.8887 67.2499 19.9469 67.1685C19.8886 67.2499 19.8187 67.3286 19.7402 67.4051Z" fill="#E5E5E5"/>
<path d="M19.6847 67.4592C19.5954 67.5402 19.4964 67.6186 19.3857 67.693C19.4964 67.6184 19.5953 67.5402 19.6847 67.4592Z" fill="#E5E5E5"/>
<path d="M18.4029 68.1686C18.4326 68.1582 18.4628 68.1484 18.4918 68.1376C18.644 68.0812 18.7882 68.0202 18.9232 67.9552C18.9488 67.9428 18.9725 67.9296 18.9975 67.9171C19.1154 67.8574 19.226 67.7945 19.3283 67.7286C19.3471 67.7166 19.3674 67.7052 19.3856 67.6929C19.4962 67.6185 19.5952 67.5401 19.6846 67.4591C19.7042 67.4413 19.7218 67.4232 19.7403 67.4051C19.8187 67.3285 19.8888 67.2499 19.947 67.1685C19.9536 67.1592 19.9623 67.1503 19.9687 67.1409C20.0289 67.0524 20.0733 66.961 20.1079 66.868C20.116 66.8463 20.1227 66.8244 20.1294 66.8025C20.1581 66.7071 20.1782 66.6102 20.1782 66.5111V66.5052H20.1785L20.1788 64.809H20.1777C20.1736 64.9061 20.1504 65.0008 20.1186 65.0943C20.1113 65.116 20.1037 65.1376 20.095 65.159C20.0577 65.2502 20.011 65.3398 19.9491 65.4263C19.943 65.4349 19.9348 65.443 19.9285 65.4515C19.8688 65.5315 19.7972 65.6087 19.7179 65.684C19.6987 65.7022 19.6802 65.7203 19.66 65.7382C19.57 65.8176 19.4712 65.8941 19.3606 65.9669C19.3435 65.9781 19.3245 65.9886 19.3068 65.9997C19.2047 66.0643 19.0945 66.1257 18.9774 66.1843C18.9513 66.1973 18.9265 66.2107 18.8997 66.2234C18.7655 66.2872 18.623 66.3468 18.4724 66.4021C18.4453 66.412 18.417 66.4209 18.3895 66.4307C18.25 66.4793 18.1048 66.5243 17.9534 66.5652C17.9274 66.5722 17.9028 66.5799 17.8766 66.5866C17.7058 66.6308 17.5276 66.6691 17.344 66.7026C17.3305 66.705 17.3184 66.7087 17.3048 66.711L17.3042 68.4522V68.4543C17.3198 68.4515 17.3335 68.4474 17.349 68.4445C17.5356 68.4104 17.7167 68.3714 17.8899 68.3263C17.9128 68.3204 17.9342 68.3135 17.9567 68.3074C18.1119 68.2654 18.2604 68.2188 18.4029 68.1686Z" fill="#D8D8D6"/>
<path d="M15.7256 66.8456L15.7141 66.845L15.7152 62.6879C15.0087 62.6884 14.3434 62.7675 13.7504 62.9048C12.284 63.2444 11.2737 63.9487 11.2734 64.7648L11.2746 64.8065C11.3217 65.9357 13.2963 66.8444 15.7256 66.8456Z" fill="white"/>
<path d="M15.8896 66.8417C16.4013 66.8333 16.8906 66.7852 17.3441 66.7025C17.5278 66.669 17.7059 66.6306 17.8767 66.5866C17.9029 66.5798 17.9276 66.5721 17.9535 66.5651C18.1049 66.5242 18.2502 66.4792 18.3896 66.4306C18.4171 66.421 18.4455 66.4119 18.4724 66.402C18.6231 66.3467 18.7656 66.2872 18.8998 66.2233C18.9264 66.2107 18.9515 66.1972 18.9775 66.1843C19.0946 66.1257 19.2049 66.0642 19.3069 65.9997C19.3244 65.9886 19.3436 65.9781 19.3607 65.9669C19.4711 65.894 19.57 65.8175 19.66 65.7381C19.6803 65.7203 19.6988 65.7022 19.7179 65.684C19.7973 65.6087 19.8687 65.5315 19.9286 65.4515C19.9349 65.443 19.9432 65.4349 19.9492 65.4263C20.0111 65.3398 20.0578 65.2501 20.0951 65.1589C20.1038 65.1376 20.1114 65.1159 20.1187 65.0943C20.1504 65.0009 20.1737 64.9061 20.1778 64.8089L20.1789 64.7678C20.179 64.6726 20.1605 64.5796 20.134 64.4879C17.9702 64.4416 16.212 63.6772 15.9275 62.6925C15.9152 62.6922 15.9029 62.6919 15.8905 62.6916L15.8896 66.8417Z" fill="white"/>
<path d="M15.7139 66.8449L15.7253 66.8456C15.7802 66.8456 15.8349 66.8449 15.8894 66.8437V66.8417L15.8905 62.6915V62.6889C15.8361 62.6883 15.7814 62.6877 15.7265 62.6877H15.7151V62.6879L15.7139 66.8449Z" fill="#EFEFEF"/>
<path d="M20.1342 64.4879C20.2014 64.4893 20.2675 64.4927 20.3354 64.4927C20.8927 64.4927 21.4237 64.4428 21.9151 64.3558L21.9157 62.6148L21.9912 62.6001C21.5277 62.6865 21.0255 62.7364 20.5003 62.7452V62.7475C20.4459 62.7481 20.3913 62.7487 20.3364 62.7487H20.3249C17.9007 62.7452 15.9325 61.8376 15.8855 60.7104H15.8844L15.884 62.3768L15.8828 62.4126C15.8828 62.5078 15.9013 62.6007 15.9278 62.6925C16.212 63.6772 17.9703 64.4416 20.1342 64.4879Z" fill="#E5E5E5"/>
<path d="M23.3943 62.1803L23.3941 62.1797C23.3318 62.2074 23.2678 62.2344 23.2021 62.2602C23.2678 62.2344 23.3321 62.2074 23.3943 62.1803Z" fill="#E5E5E5"/>
<path d="M21.915 64.3559V64.3583L22.0029 64.3411L22.1342 64.3147C22.2171 64.2977 22.2982 64.2795 22.3782 64.2601L22.4878 64.2335C22.5992 64.2053 22.7079 64.1748 22.8132 64.1418L22.8808 64.1189C22.9643 64.0919 23.0459 64.0631 23.1251 64.0337L23.2288 63.9932C23.2955 63.9662 23.3606 63.9392 23.4237 63.9103L23.5176 63.8674C23.5776 63.8391 23.6345 63.8092 23.6908 63.7792C23.6318 63.252 23.533 62.7178 23.3945 62.1805C23.3322 62.2075 23.2678 62.2345 23.2023 62.2603L23.1024 62.2992C23.0169 62.3309 22.929 62.3608 22.839 62.3897L22.7934 62.4044C22.6893 62.4367 22.5812 62.4666 22.4711 62.4949L22.3577 62.5219C22.2795 62.5401 22.2004 62.5583 22.1195 62.5748L21.9912 62.6002L21.9156 62.6149L21.915 64.3559Z" fill="#D8D8D6"/>
<path d="M20.3248 62.7488L20.326 58.5915C17.8721 58.5939 15.8845 59.5226 15.8843 60.6687L15.8854 60.7104C15.9324 61.8378 17.9006 62.7454 20.3248 62.7488Z" fill="white"/>
<path d="M20.5012 58.595L20.5 62.7453C21.0251 62.7365 21.5274 62.6864 21.9909 62.6002L22.1192 62.5748C22.2001 62.5583 22.2792 62.5401 22.3574 62.5219L22.4708 62.4948C22.5809 62.4666 22.6892 62.4367 22.7931 62.4044L22.8387 62.3897C22.9286 62.3608 23.0166 62.3309 23.1021 62.2992L23.202 62.2603C23.2675 62.2345 23.3316 62.2075 23.3939 62.1799C23.1647 61.2917 22.8326 60.3971 22.3792 59.5226C22.2487 59.2707 22.1098 59.027 21.9664 58.7889C21.9559 58.7715 21.9468 58.7527 21.9364 58.7356C21.9355 58.7342 21.9349 58.7327 21.9341 58.7313H21.9337C21.9324 58.7311 21.9309 58.731 21.9295 58.7309C21.483 58.6506 21.003 58.6038 20.5012 58.595Z" fill="white"/>
<path d="M20.3362 62.7488C20.3912 62.7488 20.4458 62.7481 20.5001 62.7475V62.7453L20.5013 58.595V58.5927C20.4469 58.5921 20.3923 58.5915 20.3374 58.5909L20.3259 58.5915L20.3247 62.7488H20.3362Z" fill="#EFEFEF"/>
<path opacity="0.15" d="M216.709 142.669L91.5909 70.4241C87.5807 68.1084 82.6374 68.112 78.6309 70.4351L14.2269 107.761C12.5897 108.71 12.591 111.074 14.2306 112.021L139.349 184.266C143.359 186.581 148.301 186.578 152.309 184.256L216.713 146.93C218.35 145.98 218.347 143.616 216.709 142.669Z" fill="#F0306D"/>
<path d="M180.867 78.4177L180.441 79.7357L168.331 117.184L167.974 118.275L146.761 183.827H145.71L167.092 117.759L167.439 116.668L179.796 78.4871L180.223 77.1678L180.857 78.4067L180.867 78.4177Z" fill="#5C58BF"/>
<path d="M50.3258 2.16345L15.8141 108.824L145.711 183.829L167.441 116.669L180.224 77.1678L50.3258 2.16345Z" fill="#F0306D"/>
<path d="M59.8189 14.5448L28.7413 109.604L140.624 174.206L159.34 116.361L171.701 79.1473L59.8189 14.5448Z" fill="#FF5289"/>
<path d="M59.0356 13.2231L27.958 108.281L139.84 172.883L158.555 115.038L170.917 77.8257L59.0356 13.2231Z" fill="#FF9DBC"/>
<path d="M58.2913 11.5701L27.2137 106.629L139.097 171.23L157.811 113.385L170.173 76.1726L58.2913 11.5701Z" fill="white"/>
<path d="M68.6079 43.8695C65.5211 42.0861 63.9764 41.1957 60.8896 39.4123C60.2513 39.0432 59.9504 38.0772 60.216 37.2537C60.4828 36.4302 61.2161 36.0611 61.8544 36.4302C64.9412 38.2124 66.4859 39.1041 69.5727 40.8875C70.211 41.2566 70.5118 42.2226 70.2463 43.046C69.9795 43.8695 69.2462 44.2374 68.6079 43.8695Z" fill="#FFDDE8"/>
<path d="M82.6192 51.9593C79.5312 50.1759 77.9878 49.2854 74.9009 47.5021C74.2626 47.1342 73.9617 46.167 74.2273 45.3435C74.4941 44.52 75.2274 44.1509 75.8657 44.52C78.9525 46.3022 80.4971 47.1939 83.584 48.9773C84.2223 49.3464 84.5232 50.3124 84.2576 51.1358C83.9908 51.9593 83.2575 52.3284 82.6192 51.9593Z" fill="#FFDDE8"/>
<path d="M96.6292 60.0503C93.5411 58.2669 91.9977 57.3765 88.9109 55.5931C88.2726 55.224 87.9705 54.258 88.2373 53.4345C88.504 52.611 89.2374 52.2419 89.8757 52.611C92.9637 54.3944 94.5071 55.2849 97.5939 57.0683C98.2322 57.4374 98.5344 58.4034 98.2676 59.2268C98.002 60.0491 97.2675 60.4182 96.6292 60.0503Z" fill="#FFDDE8"/>
<path d="M110.64 68.1401C107.552 66.3567 106.009 65.4662 102.921 63.6829C102.283 63.3137 101.982 62.3478 102.247 61.5243C102.514 60.7008 103.247 60.3317 103.886 60.7008C106.974 62.483 108.517 63.3747 111.605 65.158C112.243 65.5271 112.544 66.4931 112.279 67.3166C112.012 68.1401 111.279 68.5092 110.64 68.1401Z" fill="#FFDDE8"/>
<path d="M124.652 76.2311C121.564 74.4489 120.02 73.5572 116.932 71.7739C116.294 71.4048 115.993 70.4388 116.259 69.6153C116.525 68.7918 117.259 68.4227 117.897 68.7918C120.985 70.5752 122.528 71.4657 125.616 73.249C126.255 73.6182 126.556 74.5841 126.29 75.4076C126.023 76.2299 125.29 76.599 124.652 76.2311Z" fill="#FFDDE8"/>
<path d="M138.663 84.3209C135.575 82.5375 134.031 81.647 130.945 79.8636C130.306 79.4945 130.004 78.5285 130.271 77.7051C130.538 76.8816 131.271 76.5125 131.909 76.8816C134.997 78.665 136.541 79.5554 139.628 81.3388C140.266 81.7079 140.567 82.6739 140.301 83.4974C140.034 84.3209 139.301 84.6888 138.663 84.3209Z" fill="#FFDDE8"/>
<path d="M152.673 92.4107C149.586 90.6285 148.041 89.7368 144.955 87.9534C144.316 87.5843 144.015 86.6183 144.281 85.7948C144.548 84.9714 145.281 84.6023 145.919 84.9714C149.006 86.7548 150.551 87.6452 153.638 89.4286C154.276 89.7977 154.577 90.7637 154.311 91.5872C154.045 92.4107 153.311 92.7798 152.673 92.4107Z" fill="#FFDDE8"/>
<path d="M108.343 86.7791C102.738 83.5437 99.9364 81.9247 94.3317 78.6893C94.1271 78.5711 94.0308 78.2617 94.1161 77.9986C95.6912 73.1308 96.4793 70.697 98.0544 65.8292C98.1397 65.5649 98.3748 65.4479 98.5782 65.5661C104.183 68.8027 106.985 70.4205 112.589 73.6571C112.794 73.7753 112.89 74.0847 112.805 74.3478C111.23 79.2156 110.442 81.6494 108.867 86.5172C108.781 86.7791 108.548 86.8972 108.343 86.7791ZM95.0102 77.9487C100.319 81.0135 102.973 82.546 108.282 85.6121C109.733 81.1256 110.459 78.883 111.911 74.3977C106.602 71.3328 103.948 69.7992 98.6391 66.7343C97.1883 71.2196 96.4623 73.4622 95.0102 77.9487Z" fill="#FFDDE8"/>
<path d="M122.354 94.8701C116.749 91.6347 113.948 90.0157 108.343 86.7803C108.138 86.6622 108.042 86.354 108.127 86.0896C109.702 81.2219 110.49 78.788 112.066 73.9202C112.151 73.6571 112.386 73.5389 112.589 73.6571C118.194 76.8937 120.996 78.5115 126.601 81.7469C126.805 81.865 126.901 82.1745 126.816 82.4376C125.241 87.3053 124.453 89.7392 122.878 94.607C122.793 94.8701 122.559 94.987 122.354 94.8701ZM109.021 86.0384C114.33 89.1033 116.984 90.637 122.293 93.7019C123.744 89.2166 124.47 86.9728 125.922 82.4875C120.613 79.4226 117.959 77.8902 112.65 74.8241C111.199 79.3094 110.473 81.5532 109.021 86.0384Z" fill="#FFDDE8"/>
<path d="M136.364 102.96C130.761 99.7232 127.958 98.1055 122.354 94.8701C122.15 94.7519 122.053 94.4425 122.139 94.1794C123.714 89.3116 124.502 86.8778 126.077 82.01C126.162 81.7457 126.396 81.6287 126.601 81.7469C132.205 84.9835 135.007 86.6013 140.611 89.8367C140.815 89.9548 140.912 90.2642 140.826 90.5274C139.251 95.3951 138.463 97.829 136.888 102.697C136.804 102.96 136.569 103.078 136.364 102.96ZM123.033 94.1282C128.341 97.1931 130.996 98.7256 136.303 101.79C137.755 97.3052 138.481 95.0614 139.932 90.5761C134.623 87.5112 131.97 85.9788 126.662 82.9127C125.21 87.4004 124.484 89.643 123.033 94.1282Z" fill="#FFDDE8"/>
<path d="M150.374 111.05C144.771 107.814 141.969 106.197 136.364 102.96C136.16 102.842 136.063 102.532 136.149 102.269C137.724 97.4014 138.512 94.9675 140.087 90.0998C140.172 89.8367 140.407 89.7185 140.612 89.8367C146.215 93.0721 149.018 94.691 154.622 97.9264C154.827 98.0446 154.923 98.354 154.838 98.6171C153.263 103.485 152.474 105.919 150.899 110.787C150.813 111.05 150.579 111.168 150.374 111.05ZM137.043 102.219C142.351 105.284 145.005 106.817 150.313 109.881C151.764 105.396 152.491 103.154 153.942 98.6671C148.635 95.6022 145.98 94.0698 140.672 91.0049C139.221 95.4901 138.495 97.7328 137.043 102.219Z" fill="#FFDDE8"/>
<path d="M62.3721 74.6791C56.7686 71.4437 53.9656 69.8248 48.362 66.5893C48.1574 66.4712 48.0612 66.1618 48.1464 65.8987C49.7215 61.0309 50.5097 58.597 52.0847 53.728C52.17 53.4649 52.4051 53.3468 52.6085 53.4649C58.212 56.7003 61.0138 58.3181 66.6186 61.5547C66.8232 61.6729 66.9194 61.9823 66.8342 62.2454C65.2591 67.1132 64.471 69.547 62.8959 74.416C62.8118 74.6791 62.5767 74.7973 62.3721 74.6791ZM49.0418 65.8487C54.3493 68.9136 57.0036 70.446 62.3124 73.5109C63.7644 69.0244 64.4904 66.7818 65.9413 62.2953C60.6338 59.2305 57.9794 57.698 52.6707 54.6331C51.2186 59.1196 50.4926 61.3622 49.0418 65.8487Z" fill="#FFDDE8"/>
<path d="M76.3833 82.7689C70.7786 79.5323 67.9769 77.9145 62.3721 74.6791C62.1675 74.561 62.0712 74.2515 62.1565 73.9884C63.7316 69.1207 64.5197 66.6868 66.0948 61.8178C66.1801 61.5535 66.4152 61.4365 66.6186 61.5547C72.2221 64.7901 75.0251 66.4091 80.6286 69.6445C80.8333 69.7626 80.9295 70.072 80.8442 70.3352C79.2692 75.2029 78.4822 77.6368 76.9059 82.5046C76.8219 82.7689 76.588 82.8871 76.3833 82.7689ZM63.0518 73.9385C68.3606 77.0034 71.0137 78.5358 76.3224 81.6007C77.7745 77.1142 78.4993 74.8716 79.9513 70.3851C74.6426 67.3202 71.9882 65.7878 66.6807 62.7229C65.2287 67.2082 64.5026 69.452 63.0518 73.9385Z" fill="#FFDDE8"/>
<path d="M90.3946 90.8587C84.7898 87.6221 81.9881 86.0044 76.3833 82.7689C76.1787 82.6508 76.0825 82.3414 76.1677 82.0782C77.7428 77.2105 78.5297 74.7766 80.1048 69.9088C80.1901 69.6445 80.424 69.5276 80.6286 69.6445C86.2321 72.8812 89.0351 74.4989 94.6398 77.7343C94.8445 77.8524 94.9407 78.1619 94.8554 78.425C93.2804 83.2927 92.4934 85.7266 90.9184 90.5944C90.8331 90.8587 90.5992 90.9769 90.3946 90.8587ZM77.0618 82.0283C82.3706 85.0932 85.025 86.6256 90.3337 89.6917C91.7845 85.2052 92.5117 82.9626 93.9625 78.4761C88.6538 75.4113 85.9995 73.8788 80.6907 70.8127C79.2387 75.298 78.5139 77.5418 77.0618 82.0283Z" fill="#FFDDE8"/>
<path d="M104.406 98.9497C98.8011 95.713 95.9993 94.0953 90.3946 90.8599C90.1899 90.7418 90.0937 90.4323 90.179 90.1692C91.754 85.3015 92.5422 82.8676 94.116 77.9998C94.2013 77.7367 94.4364 77.6185 94.6398 77.7367C100.245 80.9734 103.046 82.5911 108.651 85.8265C108.856 85.9447 108.952 86.2541 108.867 86.5172C107.292 91.3849 106.505 93.8188 104.928 98.6866C104.844 98.9497 104.609 99.0666 104.406 98.9497ZM91.0731 90.1181C96.3818 93.1829 99.0362 94.7154 104.345 97.7815C105.796 93.295 106.522 91.0524 107.974 86.5659C102.665 83.501 100.011 81.9674 94.702 78.9025C93.2499 83.389 92.5251 85.6316 91.0731 90.1181Z" fill="#FFDDE8"/>
<path d="M118.416 107.04C112.812 103.804 110.009 102.185 104.405 98.9497C104.2 98.8316 104.104 98.5221 104.189 98.259C105.764 93.3913 106.552 90.9574 108.126 86.0896C108.211 85.8253 108.446 85.7083 108.65 85.8265C114.255 89.0632 117.056 90.6809 122.661 93.9163C122.866 94.0345 122.962 94.3426 122.877 94.607C121.302 99.4747 120.515 101.909 118.94 106.776C118.856 107.039 118.621 107.158 118.416 107.04ZM105.084 98.2079C110.393 101.273 113.047 102.805 118.356 105.871C119.808 101.385 120.533 99.1422 121.985 94.6569C116.676 91.592 114.022 90.0584 108.713 86.9935C107.261 91.4788 106.535 93.7226 105.084 98.2079Z" fill="#FFDDE8"/>
<path d="M132.427 115.129C126.824 111.894 124.021 110.275 118.416 107.039C118.211 106.921 118.115 106.613 118.2 106.349C119.775 101.481 120.564 99.0471 122.137 94.1794C122.223 93.915 122.458 93.7981 122.661 93.9163C128.266 97.1517 131.068 98.7706 136.671 102.006C136.876 102.124 136.972 102.434 136.887 102.697C135.312 107.565 134.525 109.998 132.95 114.866C132.866 115.129 132.632 115.247 132.427 115.129ZM119.096 106.298C124.404 109.363 127.057 110.895 132.366 113.96C133.817 109.473 134.543 107.231 135.995 102.745C130.686 99.6806 128.032 98.1482 122.725 95.0833C121.272 99.5685 120.546 101.812 119.096 106.298Z" fill="#FFDDE8"/>
<path d="M146.437 123.219C140.834 119.984 138.031 118.366 132.427 115.129C132.222 115.011 132.126 114.703 132.211 114.439C133.787 109.571 134.573 107.137 136.149 102.269C136.234 102.006 136.469 101.888 136.672 102.006C142.276 105.241 145.079 106.86 150.682 110.096C150.887 110.214 150.983 110.522 150.898 110.787C149.323 115.654 148.536 118.088 146.961 122.956C146.876 123.219 146.642 123.336 146.437 123.219ZM133.106 114.389C138.414 117.454 141.067 118.986 146.376 122.051C147.827 117.564 148.553 115.322 150.005 110.836C144.698 107.772 142.043 106.239 136.736 103.174C135.282 107.66 134.556 109.902 133.106 114.389Z" fill="#FFDDE8"/>
<path d="M58.4351 86.8485C52.8315 83.6131 50.0286 81.9942 44.425 78.7587C44.2204 78.6406 44.1241 78.3312 44.2094 78.068C45.7845 73.2003 46.5726 70.7664 48.1477 65.8974C48.233 65.6343 48.4681 65.5162 48.6715 65.6343C54.275 68.8697 57.078 70.4875 62.6816 73.7241C62.8862 73.8423 62.9824 74.1517 62.8972 74.4148C61.3221 79.2826 60.5352 81.7164 58.9601 86.5854C58.8736 86.8485 58.6397 86.9667 58.4351 86.8485ZM45.1035 78.0181C50.4111 81.083 53.0654 82.6154 58.3741 85.6803C59.8262 81.1938 60.551 78.9512 62.003 74.4647C56.6943 71.3999 54.0412 69.8674 48.7324 66.8025C47.2804 71.289 46.5556 73.5328 45.1035 78.0181Z" fill="#FFDDE8"/>
<path d="M72.4451 94.9383C66.8415 91.7029 64.0386 90.084 58.435 86.8485C58.2304 86.7304 58.1341 86.421 58.2194 86.1578C59.7945 81.2901 60.5814 78.8562 62.1565 73.9872C62.2418 73.7229 62.4769 73.6059 62.6803 73.7241C68.2838 76.9595 71.0868 78.5785 76.6916 81.8139C76.8962 81.932 76.9924 82.2402 76.9072 82.5046C75.3321 87.3723 74.5439 89.8062 72.9689 94.6752C72.8848 94.9383 72.6497 95.0565 72.4451 94.9383ZM59.1136 86.1079C64.4223 89.1728 67.0766 90.7052 72.3841 93.7701C73.8362 89.2836 74.561 87.041 76.013 82.5545C70.7043 79.4896 68.0499 77.9572 62.7424 74.8923C61.2904 79.3788 60.5656 81.6214 59.1136 86.1079Z" fill="#FFDDE8"/>
<path d="M86.4563 103.029C80.8515 99.7927 78.0498 98.175 72.445 94.9395C72.2404 94.8214 72.1442 94.5132 72.2294 94.2488C73.8045 89.3811 74.5927 86.9472 76.1677 82.0782C76.253 81.8151 76.4869 81.6969 76.6915 81.8151C82.2951 85.0505 85.098 86.6695 90.7028 89.9049C90.9074 90.0231 91.0036 90.3325 90.9184 90.5956C89.3433 95.4633 88.5564 97.8972 86.9813 102.765C86.896 103.029 86.6609 103.147 86.4563 103.029ZM73.1248 94.1977C78.4335 97.2626 81.0878 98.795 86.3966 101.861C87.8474 97.3746 88.5734 95.132 90.0255 90.6455C84.7167 87.5806 82.0624 86.0482 76.7537 82.9821C75.3016 87.4686 74.5756 89.7112 73.1248 94.1977Z" fill="#FFDDE8"/>
<path d="M100.468 111.119C94.8628 107.884 92.061 106.265 86.4563 103.029C86.2516 102.911 86.1554 102.602 86.2407 102.339C87.8157 97.4708 88.6039 95.037 90.179 90.168C90.2642 89.9049 90.4993 89.7867 90.7028 89.9049C96.3075 93.1415 99.1093 94.7592 104.714 97.9947C104.919 98.1128 105.015 98.421 104.93 98.6853C103.355 103.553 102.568 105.987 100.993 110.856C100.906 111.119 100.672 111.237 100.468 111.119ZM87.1348 102.289C92.4435 105.354 95.0979 106.886 100.407 109.952C101.857 105.466 102.583 103.223 104.036 98.7365C98.7268 95.6716 96.0724 94.1392 90.7637 91.0731C89.3129 95.5583 88.5868 97.8022 87.1348 102.289Z" fill="#FFDDE8"/>
<path d="M114.479 119.209C108.874 115.973 106.072 114.355 100.468 111.119C100.263 111.001 100.167 110.693 100.252 110.428C101.827 105.561 102.615 103.127 104.189 98.2578C104.274 97.9934 104.509 97.8765 104.713 97.9947C110.318 101.23 113.119 102.849 118.724 106.084C118.929 106.203 119.025 106.511 118.94 106.775C117.365 111.643 116.578 114.077 115.003 118.946C114.917 119.209 114.683 119.327 114.479 119.209ZM101.146 110.378C106.455 113.443 109.109 114.976 114.418 118.042C115.87 113.555 116.596 111.313 118.047 106.826C112.738 103.761 110.084 102.229 104.775 99.1629C103.324 103.648 102.598 105.892 101.146 110.378Z" fill="#FFDDE8"/>
<path d="M128.489 127.299C122.884 124.063 120.082 122.444 114.479 119.209C114.274 119.091 114.178 118.783 114.263 118.518C115.838 113.65 116.626 111.217 118.2 106.348C118.285 106.083 118.521 105.966 118.724 106.084C124.329 109.32 127.131 110.939 132.734 114.174C132.939 114.292 133.035 114.602 132.95 114.865C131.375 119.733 130.586 122.167 129.011 127.036C128.929 127.3 128.693 127.417 128.489 127.299ZM115.157 118.468C120.466 121.533 123.12 123.066 128.428 126.13C129.879 121.644 130.605 119.401 132.057 114.915C126.748 111.85 124.095 110.318 118.786 107.253C117.334 111.739 116.609 113.982 115.157 118.468Z" fill="#FFDDE8"/>
<path d="M142.499 135.388C136.895 132.153 134.094 130.535 128.489 127.299C128.284 127.18 128.188 126.871 128.273 126.608C129.848 121.74 130.635 119.306 132.211 114.437C132.297 114.173 132.531 114.056 132.735 114.173C138.339 117.408 141.142 119.027 146.745 122.263C146.95 122.381 147.046 122.69 146.961 122.953C145.386 127.821 144.599 130.255 143.024 135.124C142.939 135.388 142.703 135.507 142.499 135.388ZM129.169 126.558C134.477 129.623 137.13 131.155 142.439 134.22C143.891 129.734 144.616 127.491 146.068 123.005C140.761 119.94 138.106 118.407 132.797 115.342C131.345 119.829 130.619 122.072 129.169 126.558Z" fill="#FFDDE8"/>
<path d="M54.4967 99.0191C48.8932 95.7837 46.0902 94.1648 40.4867 90.9293C40.282 90.8112 40.1858 90.5018 40.2711 90.2386C41.8461 85.3709 42.6343 82.937 44.2094 78.0693C44.2946 77.8061 44.5297 77.688 44.7332 77.8061C50.3367 81.0416 53.1397 82.6593 58.7432 85.8959C58.9478 86.0141 59.0441 86.3223 58.9588 86.5866C57.3837 91.4544 56.5956 93.8882 55.0205 98.756C54.9365 99.0191 54.7014 99.1373 54.4967 99.0191ZM41.1652 90.1887C46.4727 93.2536 49.127 94.786 54.4358 97.8509C55.8878 93.3644 56.6126 91.1218 58.0647 86.6353C52.7559 83.5705 50.1028 82.038 44.7941 78.9731C43.3433 83.4596 42.6172 85.7022 41.1652 90.1887Z" fill="#FFDDE8"/>
<path d="M68.508 107.109C62.9032 103.873 60.1015 102.255 54.498 99.0191C54.2933 98.901 54.1971 98.5916 54.2823 98.3284C55.8574 93.4607 56.6456 91.0268 58.2207 86.159C58.3059 85.8947 58.5398 85.7778 58.7445 85.8959C64.3492 89.1314 67.151 90.7503 72.7545 93.9857C72.9591 94.1039 73.0554 94.4121 72.9701 94.6764C71.395 99.5442 70.6081 101.978 69.033 106.846C68.9465 107.109 68.7126 107.227 68.508 107.109ZM55.1764 98.2773C60.4852 101.342 63.1383 102.875 68.4471 105.939C69.8991 101.453 70.6239 99.2104 72.076 94.7239C66.7672 91.659 64.1129 90.1266 58.8053 87.0617C57.3533 91.5482 56.6273 93.792 55.1764 98.2773Z" fill="#FFDDE8"/>
<path d="M82.5192 115.199C76.9145 111.963 74.1127 110.344 68.508 107.109C68.3033 106.991 68.2071 106.683 68.2924 106.418C69.8674 101.55 70.6544 99.1166 72.2307 94.2488C72.3159 93.9845 72.5511 93.8676 72.7545 93.9857C78.3592 97.2211 81.161 98.8401 86.7657 102.076C86.9704 102.194 87.0666 102.503 86.9813 102.766C85.4063 107.634 84.6181 110.068 83.043 114.937C82.9578 115.199 82.7227 115.317 82.5192 115.199ZM69.1865 106.368C74.4952 109.433 77.1496 110.966 82.4583 114.032C83.9091 109.545 84.6364 107.303 86.0872 102.816C80.7785 99.7513 78.1241 98.2188 72.8154 95.1527C71.3633 99.6392 70.6385 101.882 69.1865 106.368Z" fill="#FFDDE8"/>
<path d="M96.5304 123.29C90.9257 120.053 88.1239 118.435 82.5192 115.2C82.3146 115.082 82.2183 114.774 82.3036 114.509C83.8787 109.641 84.6668 107.208 86.2407 102.339C86.3259 102.074 86.561 101.957 86.7645 102.076C92.3692 105.312 95.171 106.93 100.776 110.165C100.98 110.283 101.077 110.592 100.991 110.856C99.4163 115.724 98.6281 118.158 97.0543 123.025C96.969 123.29 96.7339 123.407 96.5304 123.29ZM83.1977 114.458C88.5065 117.523 91.1608 119.055 96.4695 122.121C97.9216 117.635 98.6476 115.392 100.098 110.906C94.7897 107.841 92.1354 106.309 86.8266 103.242C85.3746 107.729 84.6486 109.972 83.1977 114.458Z" fill="#FFDDE8"/>
<path d="M110.54 131.379C104.936 128.144 102.134 126.525 96.5292 123.29C96.3246 123.172 96.2283 122.862 96.3136 122.599C97.8887 117.731 98.6756 115.297 100.251 110.428C100.336 110.164 100.571 110.047 100.774 110.165C106.379 113.401 109.181 115.02 114.786 118.255C114.99 118.373 115.087 118.683 115.001 118.946C113.426 123.814 112.639 126.247 111.064 131.116C110.98 131.379 110.745 131.498 110.54 131.379ZM97.2089 122.548C102.518 125.613 105.172 127.146 110.481 130.211C111.933 125.725 112.659 123.482 114.11 118.996C108.801 115.931 106.147 114.398 100.838 111.332C99.3858 115.819 98.6598 118.063 97.2089 122.548Z" fill="#FFDDE8"/>
<path d="M124.552 139.469C118.947 136.234 116.145 134.615 110.54 131.38C110.336 131.261 110.24 130.952 110.325 130.689C111.9 125.821 112.687 123.387 114.262 118.518C114.347 118.254 114.582 118.137 114.786 118.254C120.39 121.49 123.192 123.108 128.796 126.344C129 126.462 129.097 126.771 129.011 127.034C127.436 131.902 126.648 134.336 125.074 139.205C124.99 139.469 124.756 139.587 124.552 139.469ZM111.22 130.639C116.529 133.704 119.183 135.236 124.491 138.301C125.942 133.815 126.668 131.572 128.12 127.085C122.811 124.021 120.157 122.488 114.849 119.423C113.397 123.909 112.671 126.152 111.22 130.639Z" fill="#FFDDE8"/>
<path d="M138.562 147.559C132.958 144.324 130.156 142.706 124.552 139.469C124.347 139.351 124.251 139.043 124.336 138.779C125.911 133.911 126.699 131.477 128.273 126.608C128.358 126.344 128.594 126.227 128.797 126.344C134.402 129.579 137.204 131.198 142.807 134.433C143.012 134.552 143.108 134.86 143.023 135.124C141.448 139.992 140.661 142.426 139.086 147.295C139 147.559 138.766 147.677 138.562 147.559ZM125.23 138.729C130.539 141.794 133.192 143.326 138.501 146.391C139.952 141.904 140.678 139.662 142.13 135.175C136.822 132.11 134.168 130.578 128.859 127.513C127.407 132 126.682 134.242 125.23 138.729Z" fill="#FFDDE8"/>
<path d="M50.5596 111.189C44.9549 107.953 42.1531 106.334 36.5496 103.099C36.3449 102.981 36.2487 102.672 36.334 102.408C37.9091 97.5403 38.696 95.1064 40.2711 90.2386C40.3563 89.9743 40.5914 89.8574 40.7949 89.9743C46.3984 93.2097 49.2002 94.8275 54.8049 98.0641C55.0095 98.1823 55.1058 98.4917 55.0205 98.7548C53.4454 103.623 52.6573 106.056 51.0834 110.924C50.9982 111.189 50.7643 111.307 50.5596 111.189ZM37.2281 102.358C42.5356 105.423 45.19 106.955 50.4987 110.02C51.9495 105.535 52.6756 103.291 54.1276 98.806C48.8189 95.7411 46.1657 94.2086 40.857 91.1437C39.4049 95.629 38.6802 97.8716 37.2281 102.358Z" fill="#FFDDE8"/>
<path d="M64.5697 119.278C58.9649 116.042 56.1632 114.424 50.5597 111.189C50.355 111.07 50.2588 110.761 50.3441 110.498C51.9191 105.63 52.7061 103.196 54.2811 98.3285C54.3664 98.0641 54.6015 97.9472 54.8049 98.0653C60.4097 101.301 63.2115 102.92 68.8162 106.155C69.0208 106.273 69.1171 106.583 69.0318 106.846C67.4567 111.714 66.6686 114.147 65.0947 119.015C65.0094 119.278 64.7743 119.396 64.5697 119.278ZM51.2382 110.448C56.5469 113.513 59.2 115.045 64.5088 118.111C65.9596 113.625 66.6856 111.382 68.1377 106.896C62.8289 103.831 60.1746 102.298 54.8671 99.2335C53.415 103.719 52.6902 105.961 51.2382 110.448Z" fill="#FFDDE8"/>
<path d="M78.5809 127.368C72.9762 124.131 70.1744 122.514 64.5697 119.278C64.365 119.16 64.2688 118.851 64.3541 118.588C65.9291 113.72 66.7161 111.286 68.2912 106.418C68.3765 106.155 68.6115 106.037 68.815 106.155C74.4197 109.391 77.2215 111.009 82.8262 114.245C83.0309 114.363 83.1271 114.671 83.0418 114.936C81.4667 119.803 80.6798 122.237 79.1047 127.105C79.0207 127.368 78.7856 127.486 78.5809 127.368ZM65.2482 118.538C70.5569 121.603 73.2113 123.135 78.5201 126.201C79.9709 121.716 80.6969 119.472 82.1489 114.987C76.8402 111.922 74.1858 110.389 68.8771 107.323C67.4263 111.809 66.7002 114.051 65.2482 118.538Z" fill="#FFDDE8"/>
<path d="M92.5921 135.459C86.9873 132.222 84.1856 130.605 78.5809 127.369C78.3762 127.251 78.28 126.942 78.3652 126.679C79.9403 121.811 80.7272 119.377 82.3023 114.509C82.3876 114.245 82.6227 114.128 82.8261 114.246C88.4309 117.482 91.2326 119.1 96.8374 122.336C97.042 122.454 97.1383 122.763 97.053 123.027C95.4779 127.894 94.6898 130.328 93.1159 135.196C93.0319 135.459 92.7967 135.577 92.5921 135.459ZM79.2594 126.627C84.5681 129.692 87.2225 131.226 92.5312 134.291C93.982 129.804 94.708 127.562 96.1601 123.075C90.8513 120.01 88.197 118.478 82.8883 115.412C81.4374 119.898 80.7114 122.142 79.2594 126.627Z" fill="#FFDDE8"/>
<path d="M106.603 143.549C100.999 140.313 98.1969 138.695 92.5922 135.459C92.3875 135.341 92.2913 135.033 92.3766 134.768C93.9517 129.901 94.7386 127.467 96.3137 122.599C96.3989 122.335 96.6328 122.218 96.8375 122.336C102.442 125.573 105.244 127.19 110.849 130.426C111.053 130.544 111.15 130.853 111.064 131.116C109.489 135.984 108.701 138.418 107.127 143.286C107.043 143.549 106.808 143.667 106.603 143.549ZM93.2707 134.717C98.5794 137.782 101.234 139.316 106.543 142.381C107.993 137.895 108.719 135.652 110.171 131.165C104.863 128.1 102.208 126.568 96.8996 123.502C95.4488 127.989 94.7227 130.232 93.2707 134.717Z" fill="#FFDDE8"/>
<path d="M117.93 96.1236C110.539 90.5566 103.469 95.121 102.135 103.893C100.415 119.507 116.256 125.929 120.901 109.512C121.165 108.579 122.169 109.088 121.972 109.966C118.714 128.081 99.9279 121.595 98.6305 106.828C98.4661 103.601 99.3846 99.2835 101.248 96.1857C105.064 89.7587 112.548 87.7987 118.825 94.3853C119.18 94.758 119.244 95.4268 118.968 95.8812C118.717 96.2905 118.275 96.3831 117.93 96.1236Z" fill="#06C971"/>
<path d="M122.91 101.976C122.744 101.564 122.357 101.397 122.045 101.604C117.55 104.582 115.302 106.071 110.807 109.049C110.782 108.883 109.363 99.7573 109.327 99.5978C109.013 98.1615 107.871 97.2991 106.778 97.6731C105.684 98.0471 105.051 99.5149 105.367 100.952C108.012 113.036 107.949 113.142 108.258 113.705C108.78 114.658 109.785 114.897 110.503 114.239C115.39 109.757 117.834 107.516 122.722 103.034C122.977 102.803 123.062 102.351 122.91 101.976Z" fill="#06C971"/>
<path d="M68.5141 26.5107C68.2047 27.4646 67.3556 27.8921 66.6162 27.4658C64.3151 26.1368 63.1639 25.4729 60.8628 24.1439C60.1234 23.7163 59.7738 22.5968 60.0832 21.643C60.3914 20.6892 61.2417 20.2616 61.9811 20.688C64.2822 22.017 65.4322 22.6809 67.7345 24.0099C68.4739 24.4362 68.8235 25.5557 68.5141 26.5107Z" fill="#FF5289"/>
<path d="M87.9291 37.7202C87.6197 38.6741 86.7706 39.1016 86.0312 38.6753C83.7301 37.3463 82.5789 36.6824 80.2778 35.3534C79.5384 34.9258 79.1888 33.8063 79.497 32.8525C79.8052 31.8987 80.6555 31.4711 81.3961 31.8974C83.6972 33.2265 84.8483 33.8904 87.1494 35.2194C87.8889 35.6469 88.2373 36.7664 87.9291 37.7202Z" fill="#FF5289"/>
<path d="M107.344 48.9309C107.036 49.8847 106.186 50.3123 105.445 49.886C103.144 48.557 101.993 47.8931 99.6916 46.564C98.9522 46.1365 98.6026 45.017 98.9108 44.0632C99.2202 43.1094 100.069 42.6818 100.81 43.1081C103.111 44.4371 104.262 45.101 106.563 46.43C107.304 46.8576 107.654 47.9771 107.344 48.9309Z" fill="#FF5289"/>
<path d="M126.76 60.1429C126.451 61.0967 125.602 61.5243 124.861 61.0979C122.56 59.7689 121.409 59.105 119.108 57.776C118.368 57.3484 118.019 56.2289 118.328 55.2751C118.638 54.3213 119.487 53.8937 120.226 54.3201C122.527 55.6491 123.678 56.313 125.979 57.642C126.72 58.0683 127.068 59.1878 126.76 60.1429Z" fill="#FF5289"/>
<path d="M146.175 71.3523C145.867 72.3062 145.017 72.7337 144.276 72.3074C141.975 70.9784 140.824 70.3145 138.523 68.9855C137.783 68.5591 137.434 67.4384 137.743 66.4846C138.053 65.5308 138.902 65.1032 139.642 65.5296C141.943 66.8586 143.093 67.5225 145.396 68.8515C146.135 69.279 146.483 70.3985 146.175 71.3523Z" fill="#FF5289"/>
<path d="M163.691 83.5181C161.39 82.1891 160.239 81.5252 157.938 80.1962C157.198 79.7686 156.849 78.6491 157.158 77.6953C157.468 76.7415 158.317 76.3139 159.056 76.7403C161.357 78.0693 162.508 78.7332 164.809 80.0622C165.549 80.4897 165.898 81.6092 165.589 82.5631C165.281 83.5181 164.431 83.9444 163.691 83.5181Z" fill="#FF5289"/>
<mask id="mask0_515_17787" style="mask-type:luminance" maskUnits="userSpaceOnUse" x="56" y="0" width="121" height="84">
<path d="M176.969 61.7959L174.193 73.6863L166.834 69.4313L162.054 78.4761C162.877 78.9524 163.711 79.4287 164.811 80.0634C165.544 80.4897 165.902 81.6105 165.594 82.563C165.524 82.7714 165.426 82.9602 165.306 83.1185L160.923 80.6189L157.046 78.3969L150.243 74.4988L157.384 63.9764L147.546 58.2937L142.766 67.3288C143.549 67.7856 144.353 68.2412 145.394 68.8466C146.139 69.2827 146.485 70.3937 146.178 71.356C146.098 71.6045 145.979 71.8116 145.84 71.9809L141.596 69.5507L137.649 67.2898L130.4 63.1347L137.59 52.5525L128.475 47.2864L123.695 56.3215C124.369 56.7186 125.094 57.1255 125.987 57.6408C126.72 58.0671 127.067 59.1878 126.76 60.1404C126.671 60.4182 126.542 60.6557 126.373 60.8348L122.486 58.6129L118.231 56.1826L110.713 51.8789L117.963 41.2176L108.323 35.6543L103.553 44.6893C104.466 45.2144 105.358 45.7308 106.568 46.4349C107.301 46.8613 107.66 47.982 107.342 48.9346C107.242 49.2513 107.083 49.4998 106.886 49.6886L102.295 47.0611L98.8243 45.0779C98.8243 45.0682 92.0611 41.2005 92.0611 41.2005L99.3505 30.4698L89.3238 24.6774L84.5499 33.7198C85.3234 34.1657 86.1164 34.6225 87.1482 35.2169C87.8925 35.6433 88.2397 36.764 87.9315 37.7166C87.8218 38.0638 87.6342 38.3512 87.4052 38.5401L83.2501 36.1598L79.4227 33.9683L72.7179 30.1299L80.0573 19.3297L69.5349 13.2609L64.7548 22.2959C65.6477 22.8112 66.5407 23.318 67.7296 24.0123C68.4739 24.4387 68.821 25.5594 68.5128 26.5108C68.3837 26.8981 68.1754 27.1954 67.9172 27.383L63.4246 24.8139L60.0235 22.8697L58.189 21.8184L56.5822 16.7899L61.5706 8.65745L66.8659 0L74.3235 4.18559L85.9264 10.7015L94.2367 15.3622L105.363 21.6101L113.367 26.1027L124.127 32.1325L133.647 37.4778L143.911 43.2397L152.846 48.2573L163.854 54.4358L172.265 59.1562L176.969 61.7959Z" fill="white"/>
</mask>
<g mask="url(#mask0_515_17787)">
<path d="M172.028 64.281C172.15 64.823 172.221 65.4175 172.221 66.0716C172.221 70.7615 168.917 76.4845 164.855 78.8294C164.288 79.1571 163.739 79.3922 163.208 79.5579C164.183 79.6846 165.323 79.43 166.549 78.7222C170.093 76.6769 172.975 71.6837 172.975 67.5919C172.976 66.1776 172.625 65.0618 172.028 64.281Z" fill="#FF6D9B"/>
<path d="M166.549 79.8076C164.518 80.9806 162.677 81.0891 161.343 80.3192C160.009 79.5493 159.183 77.8999 159.183 75.555C159.183 70.8651 162.487 65.1422 166.549 62.7972C168.58 61.6254 170.422 61.5157 171.755 62.2856C173.089 63.0555 173.915 64.7049 173.915 67.0498C173.915 71.7397 170.61 77.4626 166.549 79.8076ZM166.549 63.8814C163.005 65.9267 160.123 70.9199 160.123 75.0117C160.123 79.1035 163.007 80.7675 166.55 78.7222C170.094 76.6769 172.976 71.6837 172.976 67.5919C172.975 63.5001 170.093 61.8349 166.549 63.8814Z" fill="#E60F53"/>
<path d="M159.183 75.5538C159.183 70.8639 162.486 65.141 166.549 62.796C168.58 61.6241 170.422 61.5145 171.755 62.2844L170.061 61.3062C168.727 60.5363 166.885 60.6447 164.856 61.8178C160.794 64.1628 157.49 69.8857 157.49 74.5756C157.49 76.9205 158.315 78.5699 159.649 79.3398L161.344 80.318C160.01 79.5481 159.183 77.8987 159.183 75.5538Z" fill="#FF85AC"/>
<path d="M74.6036 8.024C74.7254 8.56608 74.7961 9.15933 74.7961 9.81348C74.7961 14.5034 71.4925 20.2263 67.4299 22.5712C66.8635 22.8989 66.3141 23.134 65.783 23.2997C66.7575 23.4264 67.8989 23.1718 69.1232 22.4653C72.6668 20.42 75.5489 15.4267 75.5489 11.335C75.5501 9.92189 75.2005 8.80606 74.6036 8.024Z" fill="#FF6D9B"/>
<path d="M69.1244 23.5506C67.0937 24.7225 65.2519 24.8321 63.918 24.0623C62.5841 23.2924 61.7582 21.643 61.7582 19.2981C61.7582 14.6081 65.0618 8.88524 69.1244 6.54029C71.155 5.3672 72.9969 5.25878 74.3308 6.02866C75.6646 6.79853 76.4906 8.44792 76.4906 10.7929C76.4906 15.4828 73.1857 21.2057 69.1244 23.5506ZM69.1244 7.62445C65.5808 9.66974 62.6986 14.663 62.6986 18.7548C62.6986 22.8465 65.582 24.5105 69.1244 22.4653C72.668 20.42 75.5501 15.4267 75.5501 11.335C75.5501 7.24316 72.668 5.57916 69.1244 7.62445Z" fill="#E60F53"/>
<path d="M61.7582 19.298C61.7582 14.6081 65.0619 8.88523 69.1244 6.54028C71.1551 5.36719 72.9969 5.25877 74.3308 6.02865L72.6364 5.05047C71.3025 4.2806 69.4606 4.39023 67.43 5.5621C63.3686 7.90705 60.0638 13.63 60.0638 18.3199C60.0638 20.6648 60.8897 22.3142 62.2236 23.0841L63.918 24.0622C62.5854 23.2924 61.7582 21.643 61.7582 19.298Z" fill="#FF85AC"/>
<path d="M94.0881 19.2761C94.2099 19.8182 94.2806 20.4114 94.2806 21.0656C94.2806 25.7555 90.9769 31.4784 86.9156 33.8234C86.3491 34.151 85.7997 34.3861 85.2686 34.5518C86.2444 34.6785 87.3858 34.4239 88.61 33.7162C92.1537 31.6709 95.0358 26.6776 95.0358 22.5859C95.0358 21.1728 94.685 20.057 94.0881 19.2761Z" fill="#FF6D9B"/>
<path d="M88.6088 34.8016C86.5781 35.9747 84.7363 36.0831 83.4024 35.3132C82.0685 34.5433 81.2426 32.8939 81.2426 30.549C81.2426 25.8591 84.5463 20.1362 88.6088 17.7912C90.6395 16.6181 92.4814 16.5097 93.8152 17.2796C95.1491 18.0495 95.975 19.6989 95.975 22.0438C95.975 26.7337 92.6714 32.4566 88.6088 34.8016ZM88.6088 18.8766C85.0652 20.9219 82.183 25.9151 82.183 30.0069C82.183 34.0987 85.0664 35.7627 88.6088 33.7174C92.1524 31.6721 95.0346 26.6789 95.0346 22.5871C95.0358 18.4953 92.1524 16.8301 88.6088 18.8766Z" fill="#E60F53"/>
<path d="M81.2439 30.549C81.2439 25.8591 84.5475 20.1362 88.6101 17.7912C90.6407 16.6181 92.4826 16.5097 93.8164 17.2796L92.122 16.3014C90.7881 15.5315 88.9463 15.6399 86.9156 16.813C82.8543 19.158 79.5494 24.8809 79.5494 29.5708C79.5494 31.9157 80.3753 33.5651 81.7092 34.335L83.4036 35.3132C82.0697 34.5433 81.2439 32.8939 81.2439 30.549Z" fill="#FF85AC"/>
<path d="M113.574 30.527C113.695 31.0691 113.766 31.6623 113.766 32.3177C113.766 37.0076 110.463 42.7305 106.4 45.0755C105.834 45.4032 105.284 45.6383 104.753 45.8039C105.728 45.9306 106.869 45.676 108.093 44.9683C111.637 42.923 114.519 37.9298 114.519 33.838C114.52 32.4237 114.171 31.3079 113.574 30.527Z" fill="#FF6D9B"/>
<path d="M108.094 46.0537C106.064 47.2268 104.222 47.3352 102.888 46.5653C101.554 45.7954 100.728 44.146 100.728 41.8011C100.728 37.1112 104.032 31.3883 108.094 29.0433C110.125 27.8715 111.967 27.7618 113.301 28.5317C114.635 29.3016 115.461 30.951 115.461 33.2959C115.459 37.9858 112.156 43.7087 108.094 46.0537ZM108.094 30.1275C104.551 32.1728 101.669 37.166 101.669 41.2578C101.669 45.3496 104.552 47.0136 108.094 44.9683C111.638 42.923 114.52 37.9298 114.52 33.838C114.52 29.7462 111.638 28.0822 108.094 30.1275Z" fill="#E60F53"/>
<path d="M100.728 41.8011C100.728 37.1112 104.032 31.3883 108.094 29.0433C110.125 27.8702 111.967 27.7618 113.301 28.5317L111.606 27.5535C110.273 26.7836 108.431 26.8921 106.4 28.0651C102.339 30.4101 99.0338 36.133 99.0338 40.8229C99.0338 43.1679 99.8597 44.8172 101.194 45.5871L102.888 46.5653C101.554 45.7942 100.728 44.146 100.728 41.8011Z" fill="#FF85AC"/>
<path d="M133.058 41.7779C133.18 42.32 133.251 42.9132 133.251 43.5674C133.251 48.2573 129.947 53.9802 125.884 56.3252C125.318 56.6528 124.769 56.8879 124.237 57.0536C125.213 57.1803 126.355 56.9257 127.579 56.218C131.122 54.1727 134.005 49.1795 134.005 45.0877C134.006 43.6758 133.655 42.56 133.058 41.7779Z" fill="#FF6D9B"/>
<path d="M127.579 57.3046C125.548 58.4777 123.706 58.5861 122.372 57.8162C121.039 57.0463 120.213 55.3969 120.213 53.052C120.213 48.3621 123.516 42.6392 127.578 40.2942C129.608 39.1224 131.45 39.0127 132.784 39.7826C134.118 40.5525 134.944 42.2019 134.944 44.5468C134.945 49.2367 131.64 54.9596 127.579 57.3046ZM127.579 41.3784C124.035 43.4237 121.153 48.4169 121.153 52.5087C121.153 56.6005 124.036 58.2645 127.58 56.2192C131.124 54.1739 134.006 49.1807 134.006 45.0889C134.006 40.9971 131.122 39.3331 127.579 41.3784Z" fill="#E60F53"/>
<path d="M120.214 53.052C120.214 48.3621 123.518 42.6392 127.58 40.2942C129.611 39.1223 131.453 39.0127 132.786 39.7826L131.092 38.8044C129.758 38.0345 127.916 38.1442 125.887 39.316C121.825 41.661 118.521 47.3839 118.521 52.0738C118.521 54.4187 119.347 56.0681 120.68 56.838L122.375 57.8162C121.04 57.0463 120.214 55.3969 120.214 53.052Z" fill="#FF85AC"/>
<path d="M152.544 53.03C152.666 53.5721 152.736 54.1653 152.736 54.8195C152.736 59.5094 149.433 65.2323 145.37 67.5773C144.804 67.9049 144.254 68.14 143.723 68.3057C144.698 68.4324 145.839 68.1778 147.063 67.4701C150.607 65.4248 153.489 60.4315 153.489 56.3398C153.49 54.9267 153.14 53.8109 152.544 53.03Z" fill="#FF6D9B"/>
<path d="M147.065 68.5555C145.034 69.7285 143.192 69.837 141.858 69.0671C140.524 68.2972 139.698 66.6478 139.698 64.3029C139.698 59.613 143.002 53.8901 147.065 51.5451C149.095 50.3732 150.937 50.2636 152.271 51.0335C153.605 51.8034 154.431 53.4527 154.431 55.7977C154.43 60.4876 151.126 66.2105 147.065 68.5555ZM147.065 52.6293C143.521 54.6746 140.639 59.6678 140.639 63.7596C140.639 67.8514 143.522 69.5154 147.065 67.4701C150.608 65.4248 153.49 60.4316 153.49 56.3398C153.49 52.2492 150.607 50.584 147.065 52.6293Z" fill="#E60F53"/>
<path d="M139.698 64.3029C139.698 59.613 143.002 53.8901 147.065 51.5451C149.095 50.3732 150.937 50.2636 152.271 51.0335L150.576 50.0553C149.243 49.2854 147.401 49.3951 145.37 50.5669C141.309 52.9119 138.004 58.6348 138.005 63.3247C138.005 65.6696 138.831 67.319 140.165 68.0889L141.859 69.0671C140.524 68.2972 139.698 66.6478 139.698 64.3029Z" fill="#FF85AC"/>
</g>
<path d="M31.5953 131.782L31.4444 131.953C31.3913 132.009 31.3366 132.065 31.2835 132.12C30.8474 132.553 30.3566 132.913 29.8326 133.196C28.8161 133.745 27.6488 134.014 26.4316 134.014C23.9792 134.014 21.3161 132.919 19.2052 130.809C16.8572 128.461 15.7627 125.419 16.043 122.753C16.1823 121.377 16.693 120.1 17.5801 119.07C17.6813 118.954 17.7858 118.84 17.8952 118.732C19.0692 117.558 20.6246 116.939 22.3027 116.848C23.7006 116.772 25.183 117.062 26.6041 117.704C27.3171 118.019 28.0119 118.427 28.6768 118.924C29.1279 119.256 29.5606 119.631 29.9735 120.042C30.0498 120.118 30.1278 120.199 30.2007 120.279C30.7596 120.866 31.2387 121.491 31.64 122.141C33.6713 125.421 33.7311 129.303 31.5953 131.782Z" fill="#BABABA"/>
<path d="M38.0477 134.74L37.7667 134.76C37.6678 134.767 37.5659 134.773 37.467 134.779C36.6547 134.83 35.7405 134.872 34.7645 134.905C32.8713 134.969 30.6969 135 28.4299 135C23.8619 135 18.9017 134.873 14.97 134.627C10.5966 134.353 8.55808 133.999 9.08005 133.689C9.33948 133.529 10.2908 133.38 11.9431 133.26C12.1315 133.247 12.3261 133.233 12.53 133.221C14.7167 133.084 17.6138 133.012 20.7394 133.001C23.3431 132.992 26.1042 133.026 28.7511 133.101C30.0792 133.138 31.3733 133.185 32.6118 133.243C33.4519 133.282 34.258 133.325 35.0271 133.373C35.1691 133.382 35.3144 133.391 35.4503 133.401C36.4911 133.469 37.3836 133.542 38.1311 133.618C41.9146 133.999 42.0258 134.451 38.0477 134.74Z" fill="#BABABA" fill-opacity="0.25"/>
<path d="M30.1575 129.27L30.0497 129.392C30.0116 129.432 29.9718 129.474 29.9336 129.513C29.6202 129.825 29.267 130.084 28.8906 130.288C28.1594 130.683 27.3203 130.877 26.4464 130.877C24.6821 130.877 22.7685 130.091 21.2513 128.573C19.5632 126.885 18.7773 124.698 18.9779 122.781C19.0724 121.844 19.4074 120.972 19.9844 120.252C20.0176 120.213 20.0491 120.173 20.0839 120.133C20.1569 120.05 20.2315 119.967 20.3094 119.889C21.1535 119.045 22.2711 118.601 23.4782 118.535C24.4831 118.48 25.5494 118.687 26.5708 119.15C27.0832 119.375 27.5839 119.67 28.0598 120.027C28.3832 120.266 28.695 120.534 28.9918 120.831C29.0465 120.886 29.1029 120.944 29.1559 121.002C29.5572 121.425 29.9021 121.874 30.1906 122.342C31.6499 124.696 31.693 127.487 30.1575 129.27Z" fill="#E5E5E5"/>
<path d="M45.627 109.983L30.1577 129.27L19.9829 120.251L35.5601 100.842L45.627 109.983Z" fill="#E5E5E5"/>
<path d="M28.264 100.682C24.6209 100.682 19.9099 103.258 18.2766 106.461C19.8469 113.245 27.3387 124.74 36.545 131.586C42.5842 132.089 46.0797 127.504 47.0962 125.681C44.4132 117.83 38.9411 107.529 28.264 100.682Z" fill="#ACACAC"/>
<path d="M37.8038 119.692L37.696 119.815C37.6678 119.845 37.638 119.876 37.6081 119.906C37.2665 120.247 36.915 120.506 36.5369 120.71C35.8057 121.105 34.9666 121.299 34.0927 121.299C32.3284 121.299 30.4149 120.513 28.8976 118.994C27.2095 117.306 26.4236 115.12 26.6242 113.203C26.7187 112.265 27.0537 111.393 27.6307 110.675C27.6622 110.635 27.6954 110.595 27.7302 110.555C27.8032 110.472 27.8778 110.389 27.9557 110.312C28.7998 109.468 29.9174 109.023 31.1245 108.957C32.1294 108.902 33.194 109.109 34.2171 109.572C34.7295 109.798 35.2302 110.093 35.7062 110.449C36.0295 110.688 36.3413 110.957 36.6381 111.253C36.6928 111.308 36.7492 111.366 36.8022 111.424C37.2035 111.847 37.5484 112.296 37.8369 112.764C39.2962 115.119 39.3393 117.911 37.8038 119.692Z" fill="#848484"/>
<path d="M34.5553 116.745C34.3646 116.943 34.2402 117.034 34.1059 117.107C33.8456 117.246 33.5488 117.316 33.2387 117.316C32.6119 117.316 31.932 117.037 31.3931 116.498C30.7928 115.9 30.5143 115.122 30.5856 114.442C30.6187 114.109 30.7381 113.799 30.9421 113.543C31.0034 113.472 31.03 113.442 31.0582 113.414C31.1328 113.339 31.214 113.273 31.3003 113.215C31.5589 113.043 31.8624 112.95 32.1841 112.933C32.5406 112.913 32.9187 112.988 33.2818 113.152C33.4642 113.232 33.6417 113.336 33.8108 113.464C33.9252 113.548 34.0363 113.645 34.1424 113.749C34.1623 113.769 34.1822 113.789 34.2004 113.809C34.343 113.958 34.4658 114.119 34.5686 114.285C35.0859 115.122 35.1008 116.112 34.5553 116.745Z" fill="#484848"/>
<path d="M46.0913 103.312L34.4458 116.837L30.9785 113.5L42.624 99.9776L46.0913 103.312Z" fill="#484848"/>
<path d="M48.3962 107.307L48.2884 107.43C48.2602 107.459 48.2304 107.491 48.2005 107.521C47.8589 107.862 47.5074 108.121 47.1293 108.323C46.3981 108.718 45.559 108.912 44.6851 108.912C42.9208 108.912 41.0073 108.126 39.49 106.609C37.802 104.921 37.016 102.735 37.2166 100.817C37.3111 99.8798 37.6461 99.0076 38.2231 98.2879C38.2546 98.2481 38.2878 98.2083 38.3226 98.1685C38.3956 98.0856 38.4702 98.0027 38.5482 97.9248C39.3922 97.0807 40.5098 96.6363 41.7169 96.57C42.7218 96.5153 43.7881 96.7226 44.8095 97.1852C45.3219 97.4107 45.8227 97.7059 46.2986 98.0624C46.6219 98.3012 46.9337 98.5698 47.2305 98.8666C47.2852 98.9213 47.3416 98.9794 47.393 99.0374C47.7943 99.4602 48.1392 99.9096 48.4277 100.377C49.8886 102.734 49.9317 105.526 48.3962 107.307Z" fill="#3886E0"/>
<path opacity="0.5" d="M62.3084 91.1659L54.3888 100.356L53.039 101.923L49.8719 105.596L49.076 106.518C48.7991 106.761 48.5304 106.945 48.2469 107.096C47.5156 107.491 46.6732 107.688 45.791 107.688C44.0201 107.688 42.0983 106.899 40.5777 105.378C38.8863 103.68 38.0954 101.488 38.2927 99.5597C38.3922 98.6377 38.7205 97.7689 39.286 97.0525C39.3059 97.026 39.5164 96.7822 39.5164 96.7822C39.5429 96.7557 50.1737 84.4203 50.1737 84.4203L52.3194 81.9247C51.6943 82.6626 51.3328 83.5697 51.2333 84.5513C51.036 86.4666 51.8186 88.6521 53.5116 90.3434C55.0256 91.8574 56.9408 92.6467 58.7052 92.6467C59.5807 92.6467 60.4164 92.456 61.1477 92.0613C61.5224 91.8574 61.8789 91.5937 62.194 91.2853C62.2305 91.2455 62.2686 91.2057 62.3084 91.1659Z" fill="#75ADFF"/>
<path d="M49.4757 106.048L49.3679 106.171C49.3397 106.201 49.3098 106.232 49.28 106.262C48.9384 106.604 48.5869 106.862 48.2088 107.065C47.4775 107.459 46.6385 107.653 45.7646 107.653C44.0003 107.653 42.0867 106.867 40.5695 105.35C38.8814 103.662 38.0938 101.477 38.2961 99.5597C38.3906 98.6229 38.7255 97.749 39.3026 97.031C39.3357 96.9912 39.3672 96.9514 39.4021 96.9116C39.475 96.8287 39.5497 96.7458 39.6276 96.6678C40.4716 95.8238 41.5892 95.3794 42.7964 95.3131C43.8013 95.2584 44.8675 95.4656 45.889 95.9283C46.4014 96.1538 46.9021 96.449 47.378 96.8055C47.703 97.0443 48.0131 97.3129 48.3099 97.6097C48.3647 97.6644 48.421 97.7225 48.4741 97.7805C48.8754 98.2033 49.2203 98.6527 49.5088 99.1203C50.968 101.475 51.0112 104.267 49.4757 106.048Z" fill="#F3F3F3"/>
<path d="M34.4541 103.961C34.5337 103.186 34.7741 102.468 35.1555 101.848L34.5734 102.525C34.5337 102.603 34.4889 102.695 34.4491 102.778C34.328 103.146 34.2451 103.533 34.2053 103.934C34.0146 105.755 34.6597 107.733 35.9779 109.358L36.1736 109.201C34.8951 107.625 34.27 105.717 34.4541 103.961ZM37.0044 100.855C36.9132 101.732 37.0259 102.682 37.331 103.602L37.4504 103.563C37.1503 102.659 37.0392 101.727 37.1304 100.868C37.1951 100.225 37.3692 99.6244 37.6478 99.0822C37.7191 98.9429 37.8003 98.8102 37.8849 98.6809L37.477 99.1535C37.2266 99.6758 37.0657 100.246 37.0044 100.855ZM35.643 102.445C35.5518 103.321 35.6629 104.267 35.9663 105.186L36.0857 105.146C35.7872 104.244 35.6778 103.316 35.7674 102.458C35.8519 101.631 36.1205 100.875 36.545 100.235L36.1189 100.729C35.8685 101.251 35.7043 101.828 35.643 102.445ZM38.6244 98.5167C38.7156 98.1569 38.8433 97.812 39.0075 97.4936C39.0738 97.3659 39.1484 97.2432 39.2264 97.1238L38.8201 97.5948C38.6875 97.8767 38.5796 98.1751 38.5017 98.4869C38.437 98.7439 38.3906 99.0059 38.3641 99.2662C38.2713 100.147 38.3857 101.099 38.6924 102.021L38.8118 101.981C38.51 101.075 38.3989 100.142 38.4885 99.2795C38.5166 99.0241 38.5614 98.7671 38.6244 98.5167Z" fill="#343089"/>
<path d="M39.9161 97.623C39.9957 96.8486 40.2361 96.1306 40.6175 95.5104L40.0355 96.187C39.9957 96.2649 39.9509 96.3578 39.9111 96.4407C39.7901 96.8088 39.7071 97.1952 39.6657 97.5964C39.475 99.4171 40.12 101.395 41.4383 103.02L41.634 102.863C40.3588 101.289 39.732 99.3807 39.9161 97.623ZM42.4664 94.5188C42.3752 95.396 42.488 96.3462 42.7931 97.2665L42.9125 97.2267C42.6123 96.3229 42.5012 95.391 42.5924 94.5321C42.6571 93.8887 42.8312 93.2868 43.1098 92.7462C43.1811 92.6069 43.2623 92.4742 43.3469 92.3449L42.939 92.8175C42.6902 93.3398 42.5278 93.9103 42.4664 94.5188ZM41.105 96.109C41.0138 96.9846 41.1249 97.9314 41.4284 98.85L41.5478 98.8102C41.2493 97.9082 41.1399 96.9796 41.2294 96.1223C41.314 95.2948 41.5826 94.5387 42.0071 93.8986L41.5809 94.3928C41.3322 94.9135 41.168 95.4922 41.105 96.109ZM44.0865 92.1791C44.1777 91.8192 44.307 91.4744 44.4712 91.156C44.5375 91.0283 44.6121 90.9056 44.69 90.7862L44.2838 91.2571C44.1511 91.539 44.0434 91.8375 43.9654 92.1492C43.9008 92.4063 43.8543 92.6683 43.8278 92.9286C43.7349 93.8091 43.8493 94.7609 44.1561 95.6829L44.2755 95.6431C43.9737 94.7377 43.8626 93.8041 43.9522 92.9419C43.9787 92.6882 44.0235 92.4311 44.0865 92.1791Z" fill="#343089"/>
<path d="M45.3783 91.287C45.4579 90.5126 45.6984 89.7946 46.0798 89.1744L45.4977 89.851C45.4579 89.9289 45.4132 90.0218 45.3734 90.1047C45.2523 90.4728 45.1694 90.8591 45.1296 91.2604C44.9389 93.0828 45.584 95.0594 46.9022 96.6844L47.0979 96.5269C45.8211 94.9533 45.1943 93.043 45.3783 91.287ZM47.9286 88.1828C47.8374 89.06 47.9502 90.0102 48.2553 90.9305L48.3747 90.8907C48.0746 89.9869 47.9635 89.055 48.0547 88.1961C48.1194 87.5527 48.2935 86.9524 48.572 86.4102C48.6433 86.2709 48.7246 86.1382 48.8092 86.0089L48.4012 86.4815C48.1525 87.0038 47.9917 87.5726 47.9286 88.1828ZM46.5673 89.7714C46.4761 90.6469 46.5872 91.5937 46.8907 92.5124L47.01 92.4726C46.7115 91.5705 46.6021 90.6419 46.6916 89.7846C46.7762 88.9572 47.0449 88.2011 47.4694 87.561L47.0432 88.0551C46.7944 88.5775 46.6303 89.1562 46.5673 89.7714ZM49.5504 85.8431C49.6416 85.4832 49.7709 85.1384 49.9351 84.82C50.0014 84.6923 50.076 84.5696 50.154 84.4502L49.7477 84.9211C49.6151 85.203 49.5073 85.5015 49.4293 85.8132C49.3646 86.0703 49.3183 86.3323 49.2917 86.5926C49.1989 87.4731 49.3133 88.4249 49.62 89.3469L49.7394 89.3071C49.4376 88.4017 49.3265 87.4681 49.4161 86.6059C49.4409 86.3522 49.4873 86.0951 49.5504 85.8431Z" fill="#343089"/>
<path d="M62.3499 91.1178C62.3416 91.1261 62.2338 91.2488 62.2338 91.2488C62.1957 91.2886 62.1558 91.3284 62.1177 91.3699C61.8043 91.6816 61.4528 91.9403 61.0747 92.1443C60.3434 92.5389 59.5044 92.7329 58.6305 92.7329C56.8662 92.7329 54.9526 91.9469 53.4354 90.4297C51.7473 88.7416 50.9613 86.5561 51.162 84.6392C51.2615 83.6526 51.6263 82.7389 52.2614 81.9994C52.341 81.9082 52.4156 81.8253 52.4935 81.7473C53.3376 80.9033 54.4551 80.4589 55.6623 80.3926C56.6672 80.3379 57.7334 80.5451 58.7549 81.0078C59.2673 81.2333 59.768 81.5285 60.2439 81.885C60.5689 82.1237 60.879 82.3924 61.1759 82.6892C61.2306 82.7439 61.2869 82.8019 61.3384 82.86C61.7396 83.2828 62.0845 83.7322 62.3731 84.1998C63.8323 86.5511 63.8771 89.3369 62.3499 91.1178Z" fill="#F4F4F4"/>
<path d="M60.3368 86.7584C60.2888 86.8247 60.2357 86.8878 60.176 86.9458C59.4182 87.7036 58.0369 87.5544 57.0951 86.6108C56.2245 85.7403 56.0305 84.4999 56.6009 83.7173C56.649 83.6509 56.7021 83.5896 56.7618 83.5299C57.5212 82.7721 58.9008 82.9213 59.8427 83.8649C60.7116 84.7354 60.9056 85.9757 60.3368 86.7584Z" fill="#DADADA"/>
<path d="M61.2438 85.5147L60.3368 86.7584L56.5992 83.7189L57.5062 82.4736L61.2438 85.5147Z" fill="#DADADA"/>
<path d="M61.2438 85.5147C61.219 85.5479 61.1941 85.5811 61.1676 85.6126C61.141 85.6441 61.1129 85.6739 61.083 85.7038C60.3252 86.4632 58.9456 86.3123 58.0021 85.3688C57.1315 84.4983 56.9375 83.2579 57.5079 82.4753C57.5328 82.4421 57.5576 82.4089 57.5842 82.3774C57.6107 82.3459 57.6389 82.3161 57.6671 82.2862C58.2806 81.6727 59.3021 81.6528 60.1693 82.1685C60.3733 82.2896 60.569 82.4404 60.7497 82.6212C61.6186 83.4901 61.8126 84.7304 61.2438 85.5147Z" fill="#7C7C7C"/>
<path d="M63.7726 82.5648L62.3764 84.1981L61.1957 85.5827C61.1676 85.6109 60.5673 85.0704 60.5673 85.0704L59.4016 84.0174C59.3883 84.0041 58.3635 83.0805 58.3635 83.0805L57.5842 82.3774L58.7549 81.0077L60.1892 79.3297L60.7928 79.8752L61.2472 80.2848L63.2287 82.0756L63.3315 82.1685L63.7726 82.5648Z" fill="#7C7C7C"/>
<path d="M63.7727 82.5648C63.7478 82.5947 63.7196 82.6245 63.6897 82.6544C63.1127 83.2331 62.1725 83.2828 61.3401 82.8583C61.2903 82.8301 61.2373 82.8036 61.1875 82.7721C60.9836 82.651 60.7879 82.5001 60.6071 82.3194C60.4695 82.1818 60.3485 82.0359 60.2457 81.8816C59.6703 81.0277 59.6305 79.9847 60.191 79.3263C60.2192 79.2965 60.2457 79.2666 60.2739 79.2351C60.5508 78.9582 60.909 78.8024 61.2986 78.7626C61.3832 78.7526 61.4694 78.7493 61.5573 78.7493C62.1725 78.7642 62.8308 79.0428 63.3565 79.5684C63.4062 79.6182 63.4527 79.6696 63.4941 79.721C63.8738 80.1505 64.0977 80.6529 64.1574 81.1437C64.1624 81.1819 64.1673 81.2217 64.169 81.2598C64.2021 81.7506 64.0745 82.2133 63.7727 82.5648Z" fill="#ADADAD"/>
<path d="M63.6831 81.7357C63.6565 81.7672 63.63 81.7987 63.6002 81.8286C63.0447 82.3841 62.0365 82.2746 61.3467 81.5848C60.6933 80.9315 60.5607 79.9929 61.02 79.4242C61.0466 79.3927 61.0731 79.3612 61.1029 79.3313C61.6584 78.7758 62.6666 78.8852 63.3564 79.5751C64.0081 80.2267 64.1407 81.1653 63.6831 81.7357Z" fill="#7C7C7C"/>
<path d="M66.1638 78.6581C66.124 78.7062 64.1557 81.1487 64.1557 81.1487L63.6814 81.7374L61.2522 79.6265L61.0184 79.4225L61.2721 79.1091L61.5556 78.7543L63.4974 76.3449L66.1638 78.6581Z" fill="#7C7C7C"/>
<path d="M66.1639 78.6581C65.5255 79.3031 64.5156 79.1954 63.8275 78.5056C63.1741 77.8522 63.0415 76.912 63.4991 76.3449C63.5273 76.3117 63.5538 76.2819 63.582 76.252C64.0364 75.7977 64.7925 75.7894 65.431 76.1791C65.5951 76.2803 65.7195 76.3797 65.8355 76.4958C65.9234 76.5837 66.0014 76.6765 66.066 76.7727C66.5138 77.4111 66.5569 78.1706 66.1639 78.6581Z" fill="#D5D5D5"/>
<path d="M66.0111 76.8805C65.8519 77.0413 65.5949 77.0132 65.4208 76.8391C65.2533 76.6716 65.2201 76.4311 65.3395 76.2869C65.4987 76.126 65.7541 76.1526 65.9299 76.3283C66.0973 76.4958 66.1305 76.7362 66.0111 76.8805Z" fill="#E4E4E4"/>
<path d="M78.0001 60.9999L77.3998 63.1274L74.9225 66.1171L71.6973 70.0122L70.4287 71.5477L70.0971 71.9473L66.0826 76.7943L66.0129 76.8788L65.3414 76.2868C65.3596 76.2669 65.4326 76.1791 65.4326 76.1791L66.8454 74.4728L67.7491 73.38L69.719 71.0005L74.2094 65.5815L78.0001 60.9999Z" fill="#E4E4E4"/>
</svg>
