<svg width="137" height="25" viewBox="0 0 137 25" fill="none" xmlns="http://www.w3.org/2000/svg">
<path d="M6.7867 12.8141C6.32243 12.0582 5.90851 10.8749 5.53981 10.0363C4.54629 7.77674 3.66881 5.46196 2.67331 3.20274C2.39315 2.56704 2.2088 2.23516 1.7333 1.71066C1.27306 1.20308 -0.145604 0.881873 0.0121834 0.196236C0.0185075 0.172161 0.0248315 0.148094 0.0312347 0.124027C0.22428 0.027609 10.5064 -0.0205489 10.955 0.120289C10.9968 0.247666 11.03 0.30666 10.9644 0.435318C10.4928 1.36076 8.0543 1.02296 9.00711 4.24319C9.10371 4.56986 9.21336 4.89328 9.32174 5.21623C15.7861 3.70716 19.3892 10.1609 17.126 15.6389C16.8676 16.2644 16.4761 17.501 15.9461 17.93C15.7627 17.1758 15.2635 16.8143 14.5999 16.4811L14.4408 15.5387C14.2343 15.7464 14.0422 16.0265 13.7508 15.8735L13.6502 15.4889L13.535 15.4532C12.6713 15.7903 11.8006 17.7434 11.4556 18.5595C11.3827 18.7318 10.8553 19.386 10.7013 19.6319L10.888 19.6033C11.7851 18.9649 12.2414 16.3451 13.3883 15.8286L13.5151 15.8801C13.5442 16.0725 13.569 16.2656 13.5894 16.4591L13.7104 16.4784C13.9041 16.2995 13.9918 16.1736 14.1459 15.9663L14.2593 15.9579C14.2682 16.0137 14.3445 16.5036 14.3429 16.5027C15.1439 16.9271 15.3346 17.336 15.8671 17.9639C16.0263 18.1225 16.1871 18.2796 16.3495 18.435C16.2355 18.7919 16.1152 19.216 15.943 19.5427C14.749 19.9446 14.2887 20.0356 14.7618 21.5127C14.9456 22.0866 15.2211 22.4985 15.661 22.9163C16.2559 21.2879 16.9332 19.7084 17.5733 18.0972L20.6485 10.2699C21.2159 8.82707 21.8263 7.26813 22.3296 5.91113C23.1868 3.59975 23.5491 1.77871 20.8976 0.689574C20.7244 0.618361 20.6935 0.455148 20.6617 0.290386L20.7277 0.140902C21.4398 -0.0266662 27.2534 -0.0784048 27.6724 0.174872C27.6995 0.191272 27.7236 0.20949 27.7487 0.228926C27.7698 0.341744 27.8017 0.403268 27.7045 0.505653C27.0813 1.16135 26.3037 1.2999 25.8151 2.16806C25.4253 2.86074 25.1177 3.66732 24.8132 4.40483C24.1927 5.91587 23.5848 7.43205 22.9896 8.95313C21.062 13.909 19.0844 18.8452 17.0573 23.7612C14.0033 24.305 11.0326 23.9917 10.2737 20.3547C9.96127 18.8574 10.3431 16.77 11.1821 15.4911C12.3984 13.6372 14.0177 15.0992 15.7747 13.9742C16.0295 13.504 16.2673 13.1296 16.4838 12.6406C16.6867 12.1822 16.7827 11.715 16.9697 11.279C15.9087 10.9392 14.5077 10.6403 14.0452 9.52624C13.5353 8.29831 12.6603 7.98484 11.5006 7.52935L11.5654 6.40393C11.0366 6.65724 10.5892 7.05006 10.1621 7.24829C7.87382 8.31064 7.24402 10.439 6.7867 12.8141Z" fill="#9F5266"/>
<path d="M33.7814 7.19833C33.8242 7.19731 33.867 7.19723 33.9098 7.19802C38.6959 7.31697 40.9899 10.2151 40.8746 14.8241C37.2193 14.9184 33.2961 14.8184 29.6033 14.8449C29.6033 14.9691 29.6047 15.0932 29.6073 15.2173C29.7142 20.2326 33.6157 23.4376 38.5281 21.0353C39.1684 20.7223 39.7403 20.1282 40.2304 19.6126C40.3833 19.651 40.7224 20.0221 40.8554 20.1541C40.5018 20.7042 40.1468 21.2108 39.7194 21.7084C36.9368 24.948 31.1063 25.0426 27.9838 22.2865C24.5489 19.2547 24.7265 13.1767 27.685 9.88198C29.4016 7.97038 31.2886 7.33681 33.7814 7.19833ZM29.6707 13.6465L33.6158 13.6413L36.8961 13.6385C37.2344 11.1773 36.1982 8.1622 33.2257 8.36304C32.0468 8.6139 31.4711 8.91021 30.7354 9.9728C30.1407 10.8319 29.7083 12.615 29.6707 13.6465Z" fill="#9F5266"/>
<path d="M67.3433 0.397494C68.9836 0.0393654 73.752 0.946917 75.224 1.87854C75.2817 2.67373 75.8864 6.90242 75.1639 7.05788C74.7275 6.88408 74.1259 5.28609 73.7923 4.79242C72.8524 3.40641 71.3544 2.20623 69.688 1.86541C64.9573 0.898308 61.388 4.30626 60.5252 8.77205C59.5062 14.0464 60.4756 21.2085 66.6215 22.6812C68.7133 23.1825 70.4801 22.7693 72.2643 21.6099C72.5117 21.3926 73.3821 20.7045 73.5584 20.4919C74.209 19.7084 74.7457 18.6528 75.2999 17.7951C75.4098 17.6245 75.5758 17.592 75.7686 17.56C76.4975 17.924 75.4208 21.9234 75.1939 22.6904C73.9781 23.5026 71.6176 23.9377 70.1844 24.1025C66.6089 24.53 62.6904 24.0774 59.7843 21.7711C54.8305 17.8396 54.6928 9.40815 58.4959 4.64739C60.8003 1.76275 63.7972 0.796034 67.3433 0.397494Z" fill="#DDA8B2"/>
<path d="M83.9782 8.14607C85.3213 8.07676 86.9521 8.43101 87.9798 9.30493C89.8257 10.8805 89.5063 13.1887 89.4952 15.3236C89.5506 17.3024 89.4715 19.3 89.5474 21.2757C89.6043 22.7606 90.7031 22.4219 91.5893 22.3296C91.7609 22.4687 91.7103 22.4169 91.7759 22.6551C91.2992 23.9465 88.5758 24.5431 87.4683 23.7752C86.6312 23.1951 86.5671 22.8126 86.3513 21.8902C86.0233 22.3557 85.5624 22.784 85.0991 23.1105C83.7829 24.0188 82.1592 24.365 80.5869 24.0727C79.3963 23.8612 78.6382 23.3676 77.9631 22.3956C77.805 22.1173 77.6777 21.8227 77.5837 21.5168C76.0959 16.5403 82.9877 15.6484 86.2327 14.7032C86.2327 12.6609 86.5466 10.0706 84.0327 9.42111C83.1521 9.19348 82.5387 9.4894 81.8106 9.92498C80.8888 11.603 81.6043 13.9693 78.7481 12.9121C77.0524 11.0918 79.775 9.14582 81.3782 8.63801C82.4066 8.31221 82.8896 8.18591 83.9782 8.14607ZM81.7489 21.7594C82.9885 22.7189 85.1007 22.1627 86.0003 20.9772C86.0849 20.8647 86.1648 20.7489 86.2407 20.6302L86.2169 15.9327C86.1624 15.9005 86.1411 15.8779 86.081 15.8732C83.7671 16.3619 80.2556 17.2228 80.922 20.4078C81.0509 21.0229 81.3173 21.3332 81.7489 21.7594Z" fill="#DDA8B2"/>
<path d="M110.746 8.14806C110.986 8.14545 111.227 8.1498 111.466 8.16102C115.492 8.37735 117.251 11.5589 117.042 15.2276C116.06 15.2743 114.694 15.2337 113.681 15.2324L107.186 15.2425C107.14 18.3989 108.212 21.6459 111.997 21.9458C113.949 22.1005 115.142 21.1521 116.517 19.9234C116.837 19.9698 116.915 20.0466 117.01 20.329C116.948 20.8761 116.434 21.4308 116.083 21.8364C114.516 23.6386 112.348 24.3432 109.995 24.1095C101.064 23.2225 101.829 8.52325 110.746 8.14806ZM107.233 14.1369C108.412 14.1151 109.591 14.1096 110.77 14.1205C111.677 14.1173 112.833 14.143 113.721 14.1028C113.908 12.1115 113.008 8.85718 110.45 9.31742C108.178 9.47376 107.347 12.2321 107.233 14.1369Z" fill="#DDA8B2"/>
<path d="M47.7286 1.93434L48.122 1.97299C48.1536 2.00508 48.1918 2.04405 48.2368 2.08973C48.3146 3.54972 48.2728 6.12769 48.2722 7.51228C49.7737 7.45126 51.5844 7.49513 53.1018 7.49331L53.107 8.97432C51.4927 8.96673 49.8784 8.96997 48.2642 8.98388L48.2616 15.9163C48.2613 18.0695 47.6533 22.2274 50.9793 22.025C51.7265 21.9794 52.7346 21.2758 53.5263 21.4931C53.8448 21.8931 52.5093 22.8963 52.1813 23.1569C49.676 24.7014 45.2777 24.9263 44.4948 21.272C44.1384 19.6082 44.2639 17.5506 44.2641 15.8263C44.2562 13.5475 44.2631 11.2687 44.285 8.98997C43.5157 8.96396 42.5083 9.02672 41.7687 8.92097C41.3172 8.01282 43.3221 7.55393 43.9548 7.04137C45.7721 5.56929 46.5986 3.90286 47.7286 1.93434Z" fill="#9F5266"/>
<path d="M97.568 11.4899C97.7711 11.2716 98.0273 10.8435 98.1656 10.5656C98.8881 9.12069 100.844 7.63328 102.53 8.34114C103.009 8.53819 103.387 8.92215 103.577 9.40428C104.084 10.6933 103.367 11.6167 102.181 12.0634C101.289 11.3822 100.494 10.678 99.2976 10.9972C98.3814 11.2414 97.6241 12.8303 97.6699 13.6491C97.7838 15.6694 97.2826 20.3623 97.8233 22.1427C98.4122 23.3451 99.4905 22.8377 99.8984 23.2343C99.9269 23.4745 99.9624 23.5972 99.8257 23.8011C99.6138 23.9282 92.9893 23.8977 92.4082 23.7678C92.3237 23.5978 92.3632 23.5506 92.3822 23.3372C92.6628 23.0072 94.3094 22.7771 94.3079 21.9286C94.3047 19.6901 94.8849 12.0521 93.9521 10.4431C93.4501 10.1152 92.3656 10.0182 92.4723 9.5422C92.975 9.03359 96.0676 8.62797 97.1363 8.1973C97.2952 8.17849 97.3316 8.16639 97.4731 8.24606C97.7269 8.74519 97.5917 10.8108 97.568 11.4899Z" fill="#DDA8B2"/>
<path d="M15.8671 17.9639C15.3346 17.336 15.1439 16.9271 14.3429 16.5027C14.3446 16.5036 14.2682 16.0137 14.2593 15.9579L14.1459 15.9663C13.9918 16.1736 13.9042 16.2995 13.7104 16.4784L13.5894 16.4591C13.569 16.2656 13.5442 16.0725 13.5151 15.8801L13.3883 15.8286C12.2414 16.3451 11.7851 18.9649 10.888 19.6033L10.7013 19.6318C10.8554 19.386 11.3827 18.7318 11.4556 18.5595C11.8006 17.7434 12.6713 15.7903 13.535 15.4532L13.6502 15.4889L13.7508 15.8735C14.0422 16.0265 14.2343 15.7464 14.4408 15.5387L14.5999 16.4811C15.2635 16.8143 15.7627 17.1758 15.9461 17.93L15.8671 17.9639Z" fill="#171717"/>
<path d="M125.74 12.7485C125.735 12.0805 125.677 11.0696 125.78 10.4469C126.164 8.13725 129.088 7.18075 130.761 8.82275C131.332 9.38308 131.617 10.0262 131.64 10.7974C131.645 11.1266 131.636 11.4638 131.635 11.7947C131.634 12.09 131.723 12.494 131.668 12.7603C131.463 12.7917 130.895 12.8115 130.701 12.7336C130.608 12.6346 130.656 11.9425 130.656 11.7416C130.654 11.041 130.665 10.1949 130.147 9.65029C129.423 8.88735 128.175 8.78253 127.414 9.55328C127.207 9.76265 126.875 10.1954 126.875 10.5057C126.694 11.1439 126.716 11.4265 126.717 12.0758C126.717 12.5842 126.721 13.0926 126.73 13.6009C126.722 13.6362 126.709 13.6765 126.699 13.7118C126.543 13.8236 124.616 13.7538 124.27 13.7721C123.23 13.8269 122.517 14.0849 122.118 15.1415C121.841 15.8736 122.04 16.5831 122.596 17.1316C123.263 17.7907 124.139 17.7044 124.994 17.7057C126.164 17.7026 127.357 17.714 128.529 17.7027C129.108 17.6968 129.737 17.483 130.135 17.0475C130.642 16.4919 130.679 15.7218 130.642 15.0135L130.87 14.8483C131.303 14.8251 131.37 14.7936 131.745 14.9979C131.75 15.1291 131.754 15.2604 131.755 15.3917C131.767 16.8413 130.943 18.226 129.481 18.5883C129.068 18.6906 128.698 18.7311 128.272 18.7331L125.862 18.7309C124.434 18.7353 122.958 18.9241 121.845 17.8386C120.718 16.7393 120.72 14.7304 121.84 13.6324C122.921 12.5732 124.356 12.7468 125.74 12.7485Z" fill="#94C93D"/>
<path d="M130.592 13.2897C131.233 13.2564 131.914 13.2862 132.559 13.2801C133.059 13.2754 133.597 13.2606 134.095 13.2847C136.699 13.4106 137.893 16.5872 136.025 18.4063C135.718 18.6967 134.957 19.1494 134.517 19.1613C133.795 19.1807 132.867 19.2073 132.147 19.182C132.149 19.2405 132.15 19.299 132.151 19.3575L132.16 20.6454C132.161 20.8646 132.168 21.319 132.137 21.514C132.055 22.0182 131.685 22.7695 131.319 23.1272C130.768 23.6477 130.028 24.0046 129.261 24C127.899 23.9918 126.719 23.1795 126.358 21.8451C126.279 21.5517 126.287 21.3814 126.285 21.077C126.284 20.4703 126.274 19.8396 126.297 19.2354C126.604 19.191 126.928 19.2362 127.243 19.1592C127.265 19.7672 127.176 20.8437 127.28 21.3941C127.545 22.799 129.355 23.5023 130.467 22.483C131.217 21.7949 131.189 20.9585 131.179 20.0079C131.182 19.4103 131.149 18.7617 131.184 18.171C131.999 18.0898 133.963 18.2858 134.629 18.0576C135.109 17.8891 135.503 17.537 135.724 17.0785C135.91 16.693 135.935 15.991 135.781 15.5992C135.268 14.2978 134.171 14.2497 132.973 14.2823C132.458 14.2809 131.958 14.2853 131.441 14.2892C131.257 14.2906 130.596 14.3617 130.513 14.1597C130.487 14.0957 130.483 13.3563 130.506 13.3138L130.592 13.2897Z" fill="#ED1A37"/>
<path d="M126.875 10.5057C126.915 10.9152 126.894 12.9325 126.864 13.4752C126.863 13.4974 126.761 13.5523 126.73 13.6009C126.721 13.0926 126.717 12.5842 126.717 12.0758C126.716 11.4265 126.694 11.1439 126.875 10.5057Z" fill="#94C93D" fill-opacity="0.145098"/>
<path d="M131.64 10.7974C131.705 10.8504 131.741 10.8675 131.745 10.9683C131.755 11.2177 131.79 12.5655 131.719 12.7169L131.668 12.7603C131.723 12.494 131.634 12.09 131.635 11.7947C131.636 11.4638 131.645 11.1266 131.64 10.7974Z" fill="#94C93D" fill-opacity="0.92549"/>
</svg>
